<svg xmlns="http://www.w3.org/2000/svg" xmlns:xlink="http://www.w3.org/1999/xlink" preserveAspectRatio="xMidYMid" width="266" height="50" viewBox="0 0 266 50">
  <defs>
    <style>
      .cls-1 {
        fill: #fafafa;
        filter: url(#color-overlay-1);
      }

      .cls-1, .cls-2 {
        fill-rule: evenodd;
      }

      .cls-2 {
        fill: #f83a00;
      }
    </style>

    <filter id="color-overlay-1" filterUnits="userSpaceOnUse">
      <feFlood flood-color="#332e35"/>
      <feComposite operator="in" in2="SourceGraphic"/>
      <feBlend in2="SourceGraphic" result="solidFill"/>
    </filter>
  </defs>
  <g>
    <path d="M265.295,23.121 C263.860,23.121 262.842,24.205 262.562,25.731 C262.516,26.006 262.468,26.328 262.468,26.675 L262.468,32.628 L260.453,32.628 L260.453,24.945 C260.453,23.628 260.430,22.498 260.361,21.458 L262.144,21.458 L262.215,23.652 L262.308,23.652 C262.816,22.151 264.044,21.206 265.414,21.206 C265.644,21.206 265.807,21.228 265.994,21.275 L265.994,23.190 C265.786,23.144 265.574,23.121 265.295,23.121 ZM248.815,27.412 C248.863,30.158 250.626,31.290 252.662,31.290 C254.125,31.290 255.003,31.035 255.769,30.712 L256.116,32.166 C255.401,32.490 254.171,32.881 252.385,32.881 C248.932,32.881 246.869,30.596 246.869,27.229 C246.869,23.858 248.863,21.206 252.131,21.206 C255.793,21.206 256.767,24.414 256.767,26.467 C256.767,26.884 256.721,27.206 256.698,27.412 L248.815,27.412 ZM251.969,22.659 C249.904,22.659 249.001,24.552 248.840,25.961 L254.797,25.961 C254.820,24.665 254.264,22.659 251.969,22.659 ZM241.167,26.190 C241.167,24.389 240.493,22.890 238.570,22.890 C237.227,22.890 236.182,23.835 235.834,24.968 C235.741,25.220 235.697,25.568 235.697,25.915 L235.697,32.628 L233.657,32.628 L233.657,24.481 C233.657,23.329 233.634,22.383 233.563,21.458 L235.372,21.458 L235.489,23.305 L235.534,23.305 C236.089,22.243 237.389,21.206 239.242,21.206 C240.797,21.206 243.207,22.128 243.207,25.961 L243.207,32.628 L241.167,32.628 L241.167,26.190 ZM227.283,29.027 C227.283,30.413 227.676,31.197 228.811,31.197 C229.367,31.197 229.692,31.150 229.993,31.058 L230.087,32.582 C229.692,32.743 229.067,32.881 228.278,32.881 C227.327,32.881 226.563,32.559 226.076,32.005 C225.496,31.405 225.289,30.413 225.289,29.097 L225.289,23.006 L223.549,23.006 L223.549,21.458 L225.289,21.458 L225.289,19.405 L227.283,18.782 L227.283,21.458 L230.205,21.458 L230.205,23.006 L227.283,23.006 L227.283,29.027 ZM217.639,25.731 C217.594,26.006 217.546,26.328 217.546,26.675 L217.546,32.628 L215.532,32.628 L215.532,24.945 C215.532,23.628 215.504,22.498 215.437,21.458 L217.221,21.458 L217.290,23.652 L217.382,23.652 C217.893,22.151 219.125,21.206 220.491,21.206 C220.722,21.206 220.883,21.228 221.070,21.275 L221.070,23.190 C220.861,23.144 220.653,23.121 220.373,23.121 C218.938,23.121 217.915,24.205 217.639,25.731 ZM209.250,31.222 L209.181,31.222 C208.553,32.099 207.346,32.881 205.747,32.881 C203.476,32.881 202.315,31.290 202.315,29.675 C202.315,26.976 204.727,25.499 209.061,25.522 L209.061,25.291 C209.061,24.366 208.805,22.706 206.513,22.706 C205.469,22.706 204.378,23.027 203.591,23.537 L203.127,22.197 C204.053,21.598 205.400,21.206 206.813,21.206 C210.244,21.206 211.078,23.537 211.078,25.774 L211.078,29.951 C211.078,30.920 211.126,31.868 211.265,32.628 L209.409,32.628 L209.250,31.222 ZM209.109,26.928 C206.882,26.884 204.357,27.273 204.357,29.443 C204.357,30.760 205.239,31.382 206.280,31.382 C207.743,31.382 208.668,30.461 208.994,29.512 C209.061,29.303 209.109,29.075 209.109,28.865 L209.109,26.928 ZM194.017,26.537 C193.416,26.537 192.858,26.512 192.394,26.399 L192.394,32.628 L190.379,32.628 L190.379,17.259 C191.353,17.098 192.629,16.959 194.249,16.959 C196.241,16.959 197.704,17.421 198.631,18.252 C199.486,18.990 199.998,20.122 199.998,21.506 C199.998,22.914 199.583,24.019 198.793,24.828 C197.727,25.961 195.987,26.537 194.017,26.537 ZM194.293,18.551 C193.416,18.551 192.742,18.622 192.394,18.713 L192.394,24.761 C192.837,24.874 193.393,24.919 194.065,24.919 C196.499,24.919 197.981,23.743 197.981,21.598 C197.981,19.544 196.520,18.551 194.293,18.551 ZM177.721,26.190 C177.721,24.389 177.049,22.890 175.125,22.890 C173.781,22.890 172.738,23.835 172.389,24.968 C172.297,25.220 172.249,25.568 172.249,25.915 L172.249,32.628 L170.213,32.628 L170.213,24.481 C170.213,23.329 170.188,22.383 170.119,21.458 L171.928,21.458 L172.041,23.305 L172.088,23.305 C172.646,22.243 173.943,21.206 175.798,21.206 C177.350,21.206 179.761,22.128 179.761,25.961 L179.761,32.628 L177.721,32.628 L177.721,26.190 ZM160.892,32.881 C157.857,32.881 155.515,30.668 155.515,27.137 C155.515,23.397 157.972,21.206 161.079,21.206 C164.301,21.206 166.479,23.537 166.479,26.951 C166.479,31.084 163.604,32.881 160.892,32.881 ZM161.033,22.730 C158.621,22.730 157.580,24.945 157.580,27.068 C157.580,29.512 158.991,31.359 160.985,31.359 C162.930,31.359 164.395,29.535 164.395,27.021 C164.395,25.129 163.442,22.730 161.033,22.730 ZM150.717,19.567 C149.999,19.567 149.487,19.013 149.487,18.319 C149.487,17.605 150.020,17.051 150.761,17.051 C151.528,17.051 152.012,17.605 152.012,18.319 C152.040,19.013 151.528,19.567 150.717,19.567 ZM143.369,29.027 C143.369,30.413 143.761,31.197 144.897,31.197 C145.455,31.197 145.781,31.150 146.081,31.058 L146.171,32.582 C145.781,32.743 145.153,32.881 144.366,32.881 C143.413,32.881 142.651,32.559 142.162,32.005 C141.583,31.405 141.375,30.413 141.375,29.097 L141.375,23.006 L139.635,23.006 L139.635,21.458 L141.375,21.458 L141.375,19.405 L143.369,18.782 L143.369,21.458 L146.288,21.458 L146.288,23.006 L143.369,23.006 L143.369,29.027 ZM134.537,30.808 L134.491,30.808 C133.958,31.706 132.777,32.881 130.780,32.881 C129.021,32.881 126.910,31.913 126.910,27.992 L126.910,21.458 L128.950,21.458 L128.950,27.644 C128.950,29.767 129.599,31.197 131.454,31.197 C132.820,31.197 133.773,30.252 134.143,29.351 C134.258,29.053 134.330,28.681 134.330,28.313 L134.330,21.458 L136.369,21.458 L136.369,29.583 C136.369,30.737 136.390,31.752 136.462,32.628 L134.653,32.628 L134.537,30.808 ZM120.351,16.243 L122.391,16.243 L122.391,32.628 L120.351,32.628 L120.351,16.243 ZM111.032,32.881 C107.995,32.881 105.653,30.668 105.653,27.137 C105.653,23.397 108.111,21.206 111.217,21.206 C114.438,21.206 116.617,23.537 116.617,26.951 C116.617,31.084 113.744,32.881 111.032,32.881 ZM111.169,22.730 C108.759,22.730 107.716,24.945 107.716,27.068 C107.716,29.512 109.128,31.359 111.124,31.359 C113.070,31.359 114.533,29.535 114.533,27.021 C114.533,25.129 113.580,22.730 111.169,22.730 ZM102.477,28.382 C102.477,30.783 100.693,32.881 97.008,32.881 C95.499,32.881 93.853,32.421 93.020,31.868 L93.530,30.181 C94.433,30.737 95.755,31.197 97.147,31.197 C99.209,31.197 100.414,30.114 100.414,28.543 C100.414,27.089 99.581,26.262 97.470,25.451 C94.921,24.552 93.345,23.237 93.345,21.044 C93.345,18.622 95.362,16.820 98.399,16.820 C99.996,16.820 101.155,17.190 101.852,17.582 L101.296,19.221 C100.786,18.944 99.743,18.482 98.328,18.482 C96.195,18.482 95.385,19.751 95.385,20.812 C95.385,22.268 96.336,22.982 98.491,23.812 C101.132,24.828 102.477,26.098 102.477,28.382 ZM65.258,7.979 L66.914,7.979 L66.914,42.017 L65.258,42.017 L65.258,7.979 ZM32.329,46.333 C32.353,47.854 33.157,48.349 34.152,48.349 C34.787,48.349 35.329,48.209 35.729,48.059 L36.012,49.564 C35.455,49.805 34.596,49.952 33.770,49.952 C31.513,49.952 30.282,48.419 30.282,45.799 C30.282,42.985 31.710,41.294 33.578,41.294 C35.381,41.294 36.379,42.788 36.379,45.228 C36.379,45.782 36.356,46.099 36.321,46.343 L32.329,46.333 ZM33.444,42.843 C32.683,42.843 32.360,43.949 32.335,44.852 L34.446,44.852 C34.457,43.670 34.109,42.843 33.444,42.843 ZM26.685,49.999 C25.950,49.999 25.464,49.675 25.023,48.853 L24.979,48.853 L24.860,49.862 L23.057,49.862 C23.086,49.162 23.128,48.209 23.128,47.455 L23.128,37.942 L25.230,37.942 L25.230,42.326 L25.264,42.326 C25.676,41.678 26.228,41.310 27.029,41.310 C28.614,41.310 29.409,43.104 29.409,45.449 C29.409,48.412 28.221,49.999 26.685,49.999 ZM26.158,43.085 C25.758,43.085 25.424,43.516 25.307,43.980 C25.267,44.124 25.230,44.351 25.230,44.509 L25.230,46.859 C25.230,47.067 25.267,47.263 25.313,47.395 C25.522,48.101 25.881,48.272 26.167,48.272 C26.979,48.272 27.309,47.246 27.309,45.606 C27.309,44.115 26.961,43.085 26.158,43.085 ZM18.811,49.999 L18.794,49.999 C16.858,49.999 15.642,48.448 15.642,45.680 C15.642,42.654 17.200,41.310 18.841,41.310 C20.753,41.310 21.953,42.934 21.953,45.629 C21.953,49.094 20.075,49.999 18.811,49.999 ZM18.798,42.914 C17.911,42.914 17.725,44.457 17.725,45.642 C17.725,47.072 17.960,48.393 18.817,48.393 L18.834,48.393 C19.635,48.393 19.834,46.888 19.834,45.642 C19.834,44.457 19.635,42.914 18.798,42.914 ZM12.591,48.894 L12.547,48.894 C12.242,49.491 11.578,49.999 10.787,49.999 C9.046,49.999 8.185,48.088 8.185,45.675 C8.185,42.740 9.470,41.310 10.872,41.310 C11.605,41.310 12.080,41.667 12.318,42.184 L12.353,42.184 L12.353,37.942 L14.455,37.942 L14.455,47.455 C14.455,48.209 14.496,49.136 14.524,49.862 L12.709,49.862 L12.591,48.894 ZM12.353,44.674 C12.353,44.521 12.353,44.340 12.323,44.175 C12.242,43.602 11.933,43.085 11.442,43.085 C10.597,43.085 10.287,44.297 10.287,45.716 C10.287,47.345 10.728,48.272 11.411,48.272 C11.725,48.272 12.085,48.113 12.282,47.429 C12.327,47.293 12.353,47.110 12.353,46.898 L12.353,44.674 ZM5.089,47.072 L2.910,47.072 L2.355,49.862 L0.306,49.862 L2.861,38.251 L5.371,38.251 L7.691,49.862 L5.633,49.862 L5.089,47.072 ZM4.467,42.918 C4.345,42.191 4.189,41.060 4.071,40.277 L4.025,40.277 C3.899,41.066 3.725,42.231 3.596,42.923 L3.139,45.435 L4.893,45.435 L4.467,42.918 ZM151.784,32.628 L149.743,32.628 L149.743,21.458 L151.784,21.458 L151.784,32.628 Z" class="cls-1"/>
    <path d="M39.463,2.566 C38.784,2.566 38.208,2.046 38.208,1.334 C38.208,0.628 38.784,0.108 39.463,0.108 C40.138,0.108 40.712,0.628 40.712,1.334 C40.712,2.046 40.138,2.566 39.463,2.566 ZM39.463,0.314 C38.898,0.314 38.458,0.752 38.458,1.334 C38.458,1.926 38.898,2.362 39.463,2.362 C40.023,2.362 40.463,1.926 40.463,1.334 C40.463,0.752 40.023,0.314 39.463,0.314 ZM39.826,2.046 L39.449,1.431 L39.202,1.431 L39.202,2.046 L38.988,2.046 L38.988,0.628 L39.529,0.628 C39.866,0.628 40.032,0.752 40.032,1.031 C40.032,1.286 39.870,1.396 39.662,1.422 L40.070,2.046 L39.826,2.046 ZM39.806,1.019 C39.806,0.843 39.648,0.810 39.495,0.810 L39.202,0.810 L39.202,1.249 L39.460,1.249 C39.645,1.249 39.806,1.237 39.806,1.019 ZM36.379,-0.004 L36.379,32.041 L22.935,-0.004 L36.379,-0.004 ZM21.152,32.041 L18.590,25.594 L12.318,25.594 L18.199,11.807 L26.767,32.041 L21.152,32.041 ZM0.005,-0.004 L13.461,-0.004 L0.005,32.041 L0.005,-0.004 Z" class="cls-2"/>
  </g>
</svg>
