<svg xmlns="http://www.w3.org/2000/svg" xmlns:xlink="http://www.w3.org/1999/xlink" preserveAspectRatio="xMidYMid" width="60" height="60" viewBox="0 0 60 60">
  <defs>
    <style>

      .cls-3 {
        fill: #3b5998;
      }

      .cls-4 {
        fill: #ffffff;
      }
    </style>
  </defs>
  <g id="contact_fasvg">
    <path d="M3.000,0.000 C3.000,0.000 57.000,0.000 57.000,0.000 C58.657,0.000 60.000,1.343 60.000,3.000 C60.000,3.000 60.000,57.000 60.000,57.000 C60.000,58.657 58.657,60.000 57.000,60.000 C57.000,60.000 3.000,60.000 3.000,60.000 C1.343,60.000 -0.000,58.657 -0.000,57.000 C-0.000,57.000 -0.000,3.000 -0.000,3.000 C-0.000,1.343 1.343,0.000 3.000,0.000 Z" id="path-1" class="cls-3" fill-rule="evenodd"/>
    <path d="M31.860,42.502 C31.860,42.502 31.860,31.552 31.860,31.552 C31.860,31.552 35.539,31.552 35.539,31.552 C35.539,31.552 36.089,27.285 36.089,27.285 C36.089,27.285 31.860,27.285 31.860,27.285 C31.860,27.285 31.860,24.561 31.860,24.561 C31.860,23.325 32.203,22.483 33.976,22.483 C33.976,22.483 36.238,22.482 36.238,22.482 C36.238,22.482 36.238,18.665 36.238,18.665 C35.847,18.613 34.504,18.497 32.942,18.497 C29.681,18.497 27.449,20.486 27.449,24.138 C27.449,24.138 27.449,27.285 27.449,27.285 C27.449,27.285 23.760,27.285 23.760,27.285 C23.760,27.285 23.760,31.552 23.760,31.552 C23.760,31.552 27.449,31.552 27.449,31.552 C27.449,31.552 27.449,42.502 27.449,42.502 C27.449,42.502 31.860,42.502 31.860,42.502 Z" id="path-2" class="cls-4" fill-rule="evenodd"/>
  </g>
</svg>
