<svg xmlns="http://www.w3.org/2000/svg" xmlns:xlink="http://www.w3.org/1999/xlink" preserveAspectRatio="xMidYMid" width="60" height="60" viewBox="0 0 60 60">
  <defs>
    <style>

      .cls-3 {
        fill: #4099ff;
      }

      .cls-4 {
        fill: #ffffff;
      }
    </style>
  </defs>
  <g id="nav_tw_colorsvg">
    <path d="M3.000,-0.000 C3.000,-0.000 57.000,-0.000 57.000,-0.000 C58.657,-0.000 60.000,1.343 60.000,3.000 C60.000,3.000 60.000,57.000 60.000,57.000 C60.000,58.657 58.657,60.000 57.000,60.000 C57.000,60.000 3.000,60.000 3.000,60.000 C1.343,60.000 0.000,58.657 0.000,57.000 C0.000,57.000 0.000,3.000 0.000,3.000 C0.000,1.343 1.343,-0.000 3.000,-0.000 Z" id="path-1" class="cls-3" fill-rule="evenodd"/>
    <path d="M45.256,20.842 C45.256,20.842 45.256,20.842 45.256,20.842 C45.256,20.842 45.256,20.842 45.256,20.842 M36.176,18.001 C32.832,18.001 30.121,20.713 30.121,24.059 C30.121,24.534 30.175,24.996 30.278,25.440 C25.246,25.187 20.785,22.775 17.799,19.110 C17.277,20.005 16.979,21.045 16.979,22.156 C16.979,24.257 18.048,26.112 19.672,27.198 C18.680,27.167 17.746,26.894 16.930,26.440 C16.929,26.466 16.929,26.491 16.929,26.517 C16.929,29.452 19.016,31.901 21.786,32.457 C21.278,32.596 20.743,32.670 20.191,32.670 C19.801,32.670 19.422,32.632 19.052,32.561 C19.822,34.968 22.058,36.719 24.708,36.768 C22.636,38.393 20.025,39.362 17.188,39.362 C16.700,39.362 16.218,39.333 15.744,39.277 C18.424,40.996 21.606,41.999 25.025,41.999 C36.162,41.999 42.252,32.768 42.252,24.762 C42.252,24.499 42.246,24.238 42.235,23.978 C43.417,23.124 44.444,22.057 45.256,20.842 C44.170,21.323 43.003,21.649 41.778,21.796 C43.028,21.046 43.988,19.859 44.440,18.444 C43.271,19.138 41.975,19.642 40.596,19.914 C39.491,18.736 37.918,18.001 36.176,18.001 " id="path-2" class="cls-4" fill-rule="evenodd"/>
  </g>
</svg>
