<svg xmlns="http://www.w3.org/2000/svg" xmlns:xlink="http://www.w3.org/1999/xlink" preserveAspectRatio="xMidYMid" width="60" height="60" viewBox="0 0 60 60">
  <defs>
    <style>

      .cls-3 {
        fill: #ffffff;
      }

      .cls-4 {
        fill: #000000;
      }
    </style>
  </defs>
  <g id="nav_in_whitesvg">
    <path d="M3.000,-0.000 C3.000,-0.000 57.000,-0.000 57.000,-0.000 C58.657,-0.000 60.000,1.343 60.000,3.000 C60.000,3.000 60.000,57.000 60.000,57.000 C60.000,58.657 58.657,60.000 57.000,60.000 C57.000,60.000 3.000,60.000 3.000,60.000 C1.343,60.000 -0.000,58.657 -0.000,57.000 C-0.000,57.000 -0.000,3.000 -0.000,3.000 C-0.000,1.343 1.343,-0.000 3.000,-0.000 Z" id="path-1" class="cls-3" fill-rule="evenodd"/>
    <path d="M37.498,41.799 C37.498,41.799 37.498,33.484 37.498,33.484 C37.498,31.500 37.462,28.950 34.741,28.950 C31.980,28.950 31.557,31.110 31.557,33.340 C31.557,33.340 31.557,41.799 31.557,41.799 C31.557,41.799 26.256,41.799 26.256,41.799 C26.256,41.799 26.256,24.700 26.256,24.700 C26.256,24.700 31.345,24.700 31.345,24.700 C31.345,24.700 31.345,27.036 31.345,27.036 C31.345,27.036 31.416,27.036 31.416,27.036 C32.124,25.692 33.855,24.274 36.436,24.274 C41.808,24.274 42.800,27.816 42.800,32.420 C42.800,32.420 42.800,41.799 42.800,41.799 C42.800,41.799 37.498,41.799 37.498,41.799 ZM20.276,22.363 C18.576,22.363 17.200,20.981 17.200,19.280 C17.200,17.581 18.576,16.200 20.276,16.200 C21.973,16.200 23.351,17.581 23.351,19.280 C23.351,20.981 21.973,22.363 20.276,22.363 ZM22.928,41.799 C22.928,41.799 17.623,41.799 17.623,41.799 C17.623,41.799 17.623,24.700 17.623,24.700 C17.623,24.700 22.928,24.700 22.928,24.700 C22.928,24.700 22.928,41.799 22.928,41.799 Z" id="path-2" class="cls-4" fill-rule="evenodd"/>
  </g>
</svg>
