<svg xmlns="http://www.w3.org/2000/svg" xmlns:xlink="http://www.w3.org/1999/xlink" preserveAspectRatio="xMidYMid" width="60" height="60" viewBox="0 0 60 60">
  <defs>
    <style>
      .cls-1 {
        fill: #006a9a;
        filter: url(#color-overlay-1);
      }

      .cls-2 {
        fill: #fff;
        filter: url(#color-overlay-2);
        fill-rule: evenodd;
      }
    </style>

    <filter id="color-overlay-1" filterUnits="userSpaceOnUse">
      <feFlood flood-color="#fff"/>
      <feComposite operator="in" in2="SourceGraphic"/>
      <feBlend in2="SourceGraphic" result="solidFill"/>
    </filter>
    <filter id="color-overlay-2" filterUnits="userSpaceOnUse">
      <feFlood/>
      <feComposite operator="in" in2="SourceGraphic"/>
      <feBlend in2="SourceGraphic" result="solidFill"/>
    </filter>
  </defs>
  <g>
    <rect width="60" height="60" rx="3" ry="3" class="cls-1"/>
    <path d="M37.498,41.799 L37.498,33.484 C37.498,31.500 37.462,28.950 34.741,28.950 C31.980,28.950 31.557,31.110 31.557,33.340 L31.557,41.799 L26.256,41.799 L26.256,24.700 L31.345,24.700 L31.345,27.036 L31.416,27.036 C32.124,25.692 33.855,24.274 36.436,24.274 C41.808,24.274 42.800,27.816 42.800,32.420 L42.800,41.799 L37.498,41.799 ZM20.276,22.363 C18.576,22.363 17.200,20.981 17.200,19.280 C17.200,17.581 18.576,16.200 20.276,16.200 C21.973,16.200 23.351,17.581 23.351,19.280 C23.351,20.981 21.973,22.363 20.276,22.363 ZM22.928,41.799 L17.623,41.799 L17.623,24.700 L22.928,24.700 L22.928,41.799 Z" class="cls-2"/>
  </g>
</svg>
