<?xml version="1.0" encoding="utf-8"?>
<!-- Generator: Adobe Illustrator 19.2.1, SVG Export Plug-In . SVG Version: 6.00 Build 0)  -->
<svg version="1.1" id="root" xmlns="http://www.w3.org/2000/svg" xmlns:xlink="http://www.w3.org/1999/xlink" x="0px" y="0px"
	 viewBox="0 0 500 125" style="enable-background:new 0 0 500 125;" xml:space="preserve">
<g>
	<path id="path45" d="M477.4,99.5h1.3c0,2.6,1,4.9,2.7,6.6c1.7,1.7,4,2.7,6.6,2.7c2.6,0,4.9-1,6.6-2.7c1.7-1.7,2.7-4,2.7-6.6h1.2
		c0,5.9-4.7,10.6-10.6,10.6v-0.6v0.6C482.1,110.1,477.4,105.3,477.4,99.5 M497.3,99.5c0-2.6-1-4.9-2.7-6.6c-1.7-1.7-4-2.7-6.6-2.7
		v-1.2c5.8,0,10.6,4.7,10.6,10.6H497.3 M488,89.5v-0.6V89.5 M477.4,99.5c0-5.8,4.8-10.6,10.6-10.6v1.2c-2.6,0-4.9,1.1-6.6,2.7
		c-1.7,1.7-2.7,4-2.7,6.6H477.4"/>
	<path id="path47" d="M163.1,34.9h18.6v70.8h-18.6V34.9z"/>
	<path id="path49" d="M434.8,75.6v29.9l-18.7-0.1V32.7l33.6,29V34.9h18.5v73.4L434.8,75.6"/>
	<path id="path51" d="M69.7,70.2c0-20.1,16.3-36.4,36.4-36.4c9.1,0,17.4,3.3,23.7,8.8l-12,13.7c-3.2-2.7-7.2-4.3-11.7-4.3
		c-10.1,0-18.2,8.2-18.2,18.2s8.2,18.2,18.2,18.2c4.5,0,8.7-1.7,11.9-4.4l12,13.7c-6.4,5.6-14.7,8.9-23.9,8.9
		C86,106.6,69.7,90.3,69.7,70.2"/>
	<path id="path53" d="M217,122l-35.1-93.3h-29.4V106h-19.2V28.6H90.7l9.9-18.6h95L217,66L238.4,10h92l10.1,18.6h-88.4L217,122"/>
	<path id="path55" d="M276.4,105.5V89.9h12.8c2.1,0,6-0.2,7-3.4c2.1-6.9-19-18-19-35c0-12.9,9.3-16.7,15.7-16.7h19.3V50h-11.9
		c0,0-3.4,0-4.4,1.4c-5.2,7.4,19.2,18.3,19.2,38.2c0,10.4-8.9,15.9-17.8,15.9H276.4"/>
	<path id="path57" d="M252.4,34.7H271v70.8h-18.6V34.7z"/>
	<path id="path59" d="M318.1,34.7h18.6v70.8h-18.6V34.7z"/>
	<path id="path61" d="M490.7,104.9c-0.3-0.7-0.3-1.9-0.4-2.8c-0.2-1.2-0.7-1.8-2-1.8h-2.6v4.6h-2.6V93.1h6.3c2.1,0,3.4,1.5,3.4,3.2
		c0,1.4-0.6,2.4-1.9,3v0c1.3,0.3,1.6,1.6,1.7,2.7c0.1,0.7,0,2.1,0.5,2.8H490.7 M485.8,98.5h2.8c1.1,0,1.8-0.5,1.8-1.7
		c0-1.1-0.6-1.6-1.8-1.6h-2.8V98.5"/>
	<path id="path63" d="M55.6,105.8l-4.9-13.2H27.6l-4.9,13.2H2.9L39.1,2l36.2,103.8H55.6 M33.2,73.6h11l-5.5-18.1L33.2,73.6"/>
	<path id="path65" d="M340.1,70.1c0-20.1,16.3-36.5,36.5-36.5c20.1,0,36.5,16.3,36.5,36.5c0,20.1-16.3,36.5-36.5,36.5
		C356.4,106.6,340.1,90.3,340.1,70.1 M358.4,70.1c0,10,8.1,18.1,18.1,18.1c10,0,18.1-8.1,18.1-18.1c0-10-8.1-18.1-18.1-18.1
		C366.5,52,358.4,60.1,358.4,70.1"/>
</g>
</svg>
