<?xml version="1.0" encoding="utf-8"?>
<!-- Generator: Adobe Illustrator 19.2.1, SVG Export Plug-In . SVG Version: 6.00 Build 0)  -->
<svg version="1.1" id="Layer_1" xmlns="http://www.w3.org/2000/svg" xmlns:xlink="http://www.w3.org/1999/xlink" x="0px" y="0px"
	 viewBox="0 0 300 300" style="enable-background:new 0 0 300 300;" xml:space="preserve">
<style type="text/css">
	.st0{fill:#ED1C24;}
</style>
<path d="M276.1,22.2h1.7c2.1,0,3.9-0.7,3.9-2.6c0-1.4-1-2.7-3.8-2.7c-0.9,0-1.4,0-1.9,0.1L276.1,22.2L276.1,22.2z M276.1,31.4h-2.9
	V15.2c1.4-0.2,2.7-0.5,4.9-0.5c2.6,0,4.2,0.5,5.2,1.3c0.9,0.7,1.4,1.8,1.4,3.4c0,2.1-1.4,3.4-3.1,3.9v0.1c1.4,0.3,2.3,1.6,2.6,4
	c0.4,2.5,0.7,3.5,1,4h-3c-0.4-0.5-0.7-2-1-4.1c-0.3-2-1.4-2.7-3.4-2.7h-1.7L276.1,31.4L276.1,31.4z M278.8,10.8
	c-6.4,0-11.6,5.4-11.6,12.1s5.2,12.1,11.7,12.1c6.4,0.1,11.5-5.4,11.5-12.1S285.3,10.8,278.8,10.8L278.8,10.8z M278.9,8.4
	c8,0,14.4,6.5,14.4,14.5c0,8.2-6.4,14.6-14.5,14.6c-8.1,0-14.6-6.5-14.6-14.6C264.2,14.9,270.7,8.4,278.9,8.4L278.9,8.4z"/>
<path d="M70.9,268.1l-2.4-14.4c-0.7-4.2-1.6-10.6-2.3-15.1H66c-0.7,4.5-1.7,11.2-2.4,15.2l-2.6,14.4H70.9z M59.6,277.5l-3.2,16H44.8
	L59.4,227h14.3l13.2,66.5H75.2l-3.1-16H59.6z"/>
<path d="M113.5,263.8c0-0.9,0-1.9-0.2-2.9c-0.5-3.3-2.2-6.2-5-6.2c-4.8,0-6.6,6.9-6.6,15.1c0,9.3,2.5,14.6,6.4,14.6
	c1.8,0,3.8-0.9,5-4.8c0.3-0.8,0.4-1.8,0.4-3V263.8z M125.5,225.2v54.5c0,4.3,0.2,9.6,0.4,13.8h-10.4l-0.7-5.5h-0.2
	c-1.7,3.4-5.5,6.3-10,6.3c-9.9,0-14.8-10.9-14.8-24.8c0-16.8,7.3-25,15.3-25c4.2,0,6.9,2,8.2,5h0.2v-24.3H125.5z"/>
<path d="M150.5,285.1c4.6,0,5.7-8.6,5.7-15.8c0-6.8-1.1-15.6-5.9-15.6c-5.1,0-6.1,8.8-6.1,15.6c0,8.2,1.3,15.8,6.2,15.8H150.5z
	 M150.2,294.3c-11,0-18-8.9-18-24.8c0-17.3,8.9-25,18.3-25c10.9,0,17.7,9.3,17.7,24.8C168.2,289.1,157.5,294.3,150.2,294.3
	L150.2,294.3z"/>
<path d="M186.9,276.3c0,1.2,0.2,2.3,0.5,3.1c1.2,4,3.2,5,4.9,5c4.6,0,6.5-5.9,6.5-15.3c0-8.6-2-14.4-6.6-14.4
	c-2.3,0-4.2,2.5-4.8,5.1c-0.2,0.8-0.4,2.1-0.4,3V276.3z M174.9,225.2h12v25.1h0.2c2.4-3.7,5.5-5.8,10.1-5.8c9,0,13.6,10.3,13.6,23.7
	c0,17-6.8,26.1-15.5,26.1c-4.2,0-7-1.9-9.5-6.6h-0.3l-0.7,5.8h-10.3c0.2-4,0.4-9.5,0.4-13.8L174.9,225.2L174.9,225.2z"/>
<path d="M239.5,264.8c0.1-6.8-1.9-11.5-5.7-11.5c-4.3,0-6.2,6.4-6.3,11.5H239.5z M227.4,273.3c0.1,8.7,4.7,11.6,10.4,11.6
	c3.6,0,6.7-0.8,9-1.7l1.6,8.6c-3.2,1.4-8.1,2.2-12.8,2.2c-12.9,0-19.9-8.8-19.9-23.8c0-16.1,8.2-25.8,18.8-25.8
	c10.3,0,16,8.6,16,22.5c0,3.2-0.1,5-0.3,6.4L227.4,273.3z"/>
<polygon class="st0" points="173.8,7.8 250.5,7.8 250.5,191.4 "/>
<polygon class="st0" points="119.8,7.8 43.1,7.8 43.1,191.4 "/>
<polygon class="st0" points="146.8,75.4 195.7,191.4 163.7,191.4 149.1,154.4 113.3,154.4 "/>
</svg>
