<?xml version="1.0" encoding="utf-8"?>
<!-- Generator: Adobe Illustrator 19.2.1, SVG Export Plug-In . SVG Version: 6.00 Build 0)  -->
<svg version="1.1" id="Layer_1" xmlns="http://www.w3.org/2000/svg" xmlns:xlink="http://www.w3.org/1999/xlink" x="0px" y="0px"
	 viewBox="0 0 526 254" style="enable-background:new 0 0 526 254;" xml:space="preserve">
<style type="text/css">
	.st0{fill:url(#backclear_1_);}
	.st1{fill:url(#backstripes_1_);}
	.st2{fill:url(#forestripes_1_);}
</style>
<radialGradient id="backclear_1_" cx="-41.315" cy="522.1618" r="0.6" fx="-41.115" fy="522.0618" gradientTransform="matrix(226.9922 0 0 -200.2671 9502.4785 104701.3906)" gradientUnits="userSpaceOnUse">
	<stop  offset="0" style="stop-color:#32A5DD"/>
	<stop  offset="0.7" style="stop-color:#32A5DD"/>
	<stop  offset="1" style="stop-color:#2277A0"/>
</radialGradient>
<path id="backclear" class="st0" d="M236,109.8c0-1.8-0.2-5.5-1.1-9.3c-0.6-2.5-1.3-5-2.1-7.5c1.4,4.6,1.2,7.9,1.2,9.1
	c0,5.7-7,40.2-76,46.4c-6,0.5-49.8,1.2-87.8-8.4c-25.3-6.4-50.8-18.8-55.6-36c-0.8-2.7-0.4-5.2,0.2-7.5c-1.9,6.9-3.2,14-3.8,21.4
	c0.4,18.1,16.2,39.2,45,48.3c32.9,10.4,53.1,10.7,101,0C236.7,148.7,236,113.7,236,109.8z M58.4,206.1
	c-18.8-7.8-31.8-20.7-37.1-30.2c4.8,10.2,11.1,19.6,18.6,27.9c24.5,23.1,62.2,25.9,79.6,25.9c73.3,0,99.5-38.5,105.4-48.9
	c1.1-2.1,2.1-4.2,3.1-6.3C216.4,198.4,156.2,246.5,58.4,206.1z M138.2,191c-22.2,0.8-61.3-6.9-85.9-16.9
	c-19.8-8.1-39.4-23.8-41.5-38.8c0.2,3.6,0.6,7.2,1.2,10.7c12.1,66.2,95.6,62.4,109.9,60.8c104.9-11.6,113.9-56.4,115.3-65.3
	c0.2-1.9,0.4-3.7,0.5-5.6C235.9,147.7,218.2,188.1,138.2,191 M43.3,57.1c0,10.4,15.1,26.9,58.8,26.9c25.9,0,46.8-5,62.6-10.3
	c25.3-8.4,37.9-18.7,37.4-26.4c-0.1-1.2-0.5-3.1-1.9-4.6c-5.6-5-11.8-9.5-18.3-13.4c4.3,2.5,6.8,5.4,6.8,8.7
	c0,11.4-27.9,21.9-64.3,22.8c-36.4,0.9-66.6-8-67.4-19.4c-0.3-3.8,2.4-7.5,7.6-10.8c-3.9,2.4-7.7,5.1-11.3,8
	C43.1,47.2,43.3,56,43.3,57.1z M19.9,89.4c0-4.9,0.7-8.3,2-11.3c2.2-4.5,4.7-8.9,7.5-13.1c-0.7,1.2-1.1,2.5-1.1,4.1
	c0,10.6,25.9,24.3,61.3,28.8c12,1.5,43.7,5.9,68.3,3.8c49.6-4.1,60.6-21.4,60.6-32.7c0-3.1-1.7-7.6-3.3-10.2c2.2,3,4.4,6.1,6.3,9.3
	c3.8,6.6,3.3,9.2,3.3,10.4c0,23-42.8,38-71.4,45.8C79.8,144.4,19.9,117.1,19.9,89.4z"/>
<radialGradient id="backstripes_1_" cx="-41.3135" cy="522.1278" r="0.6" fx="-41.1135" fy="522.0278" gradientTransform="matrix(225.1525 0 0 -195.3101 9425.21 102106.3906)" gradientUnits="userSpaceOnUse">
	<stop  offset="0" style="stop-color:#0096D6"/>
	<stop  offset="0.7" style="stop-color:#0096D6"/>
	<stop  offset="1" style="stop-color:#006C9B"/>
</radialGradient>
<path id="backstripes" class="st1" d="M11.5,138.6c-0.3-1.1-0.6-2.2-0.7-3.3c0.2,2.8,0.5,5.5,0.8,8.3
	C11.5,141.9,11.4,140.2,11.5,138.6z M14.7,97c-0.7,2.5-1.3,5.1-1.9,7.8c0.3-1,0.8-2.1,1.3-3.3C14.1,99.9,14.4,98.4,14.7,97z
	 M21.4,176c2.6,5.6,5.7,11,9.2,16c-1.9-3-3.4-6.2-4.7-9.4C24,180.3,22.5,178.1,21.4,176z M35.7,79.9c-1.4-1.1-2.6-2.2-3.7-3.3
	c-4.9,3.4-9,7-12.1,10.9c0,0.6,0,1.2,0,1.9c0,1.2,0.1,2.4,0.4,3.7C24,88.8,29.2,84.2,35.7,79.9z M215.6,78.8
	c3.1,1.6,5.8,3.3,8.3,5.1c0.5-1.7,0.8-3.5,0.8-5.3c0-1.1,0.5-3.7-3.2-10.1c-2-3.2-4.1-6.3-6.4-9.4c1.6,2.6,3.2,7,3.2,10
	C218.4,72,217.6,75.4,215.6,78.8L215.6,78.8z M29.2,65.1c-0.3,0.5-0.6,1-0.9,1.5l0.5-0.6C28.9,65.6,29.1,65.4,29.2,65.1z
	 M188.5,36.8c4.5,1.8,8.7,4.1,12.3,6.9l-0.6-0.8c-3.7-3.3-7.5-6.3-11.6-9.1c-1-0.6-2.1-1.2-3.3-1.8C187.1,33.4,188.2,35,188.5,36.8z
	 M209.4,196c-0.3,1.6-0.7,3.3-1.2,4.8c9.3-8.3,14.3-16.1,16.6-19.9l0.2-0.4l-0.1-0.8C221.5,184.7,216.3,190.4,209.4,196z M71.8,196
	c0-5,1.2-9.8,3.4-14.3c-2.8-0.8-5.6-1.6-8.3-2.4c-2.2,4.7-3.3,9.7-3.3,15c0,2.4,0.3,4.7,0.7,6.9c2.8,0.9,5.6,1.6,8.4,2.3
	C72.1,201.1,71.8,198.6,71.8,196z M234.9,100.8c-0.3-1.1-0.5-2.1-0.8-3.2c-0.2-0.4-0.3-0.8-0.5-1.1c0.5,2.8,0.4,4.8,0.4,5.7
	c0,1.8-0.8,6.8-4.2,12.8c1.6,1.8,3,3.7,4.1,5.7c2.2-5.6,2.1-9.7,2.1-10.9C236,108,235.7,104.5,234.9,100.8L234.9,100.8z M234.8,145
	c-1.1,2.3-2.5,4.8-4.3,7.5c0.5,1.6,0.8,3.3,1,4.8c1.9-3.2,3.1-6.2,3.9-8.7C235.3,147.5,235.1,146.3,234.8,145z M222.6,169.1
	c-0.6-1.7-1.3-3.4-2.1-5c-3.6,3.3-8,6.6-13.2,9.7c0.8,2.1,1.4,4.2,1.9,6.4C214.6,176.5,219,172.8,222.6,169.1z M51.5,71.2
	c12-5.5,26.7-9.8,44.1-11.6c-6-0.8-11.4-1.8-16.3-3.1c-11.4,3.1-22.1,6.9-31.4,11.3C48.9,68.9,50.1,70,51.5,71.2z M22.8,165.9
	c0-3.3,0.4-6.5,1-9.6c-1.6-1.6-3.2-3.1-4.6-4.7c-1,4.6-1.3,9.3-0.8,13.9c1.5,2.9,3.2,5.6,5,8.2C23,171.1,22.8,168.5,22.8,165.9z
	 M18.5,112.3c-3,4.1-5.2,8.5-6.6,13.3c0.3,1.5,0.8,3,1.3,4.4c1.7-4.8,4.5-9.5,8.3-14C20.5,114.8,19.4,113.6,18.5,112.3 M57.9,44.7
	c-5.1,2.1-9.7,4.4-13.6,6.5c-0.7,2.1-0.9,3.8-0.9,4.9c5-2.6,11-5.2,17.7-7.8C59.6,47.1,58.6,45.9,57.9,44.7z M201.5,50.9
	c-5.2-1.8-11.4-3.1-18.4-4.1c-8.1,6.2-24.5,11.2-44.9,13.2c12.8,1.3,28.5,3.5,43.3,7C192.9,61.6,199.5,56,201.5,50.9z M181.2,184.7
	c1,2.7,1.7,5.6,2,8.5c3.3-1.2,6.5-2.5,9.4-3.9c-0.4-2.6-1-5.2-2-7.7C187.6,182.7,184.6,183.8,181.2,184.7z M171.1,221.9
	c5.3-1.8,10.2-3.9,14.6-6.1c1.7-2.4,3.1-4.9,4.2-7.5c-3.7,1.9-7.7,3.6-11.8,5.2C176.2,216.5,173.9,219.4,171.1,221.9z M38.6,194.8
	c1,4.2,2.5,8.1,4.6,12c4,3.3,8.4,6.2,12.8,8.7c-3.3-4.4-5.8-9.1-7.3-14.1C45,199.3,41.7,197.1,38.6,194.8z M215.1,130.8
	c2.7,2.2,5,4.5,6.9,6.7c2.8-2.7,5-5.2,6.8-7.7c-1.3-2.3-2.9-4.6-4.8-6.9C221.7,125.5,218.8,128.2,215.1,130.8L215.1,130.8z
	 M26,149.1c2.8-7.3,7.4-14,13.5-20.1c-2-1-4-2.2-5.9-3.3c-5.3,5.8-9.5,12.1-12.1,18.6C22.9,145.9,24.4,147.5,26,149.1z M233.3,94.7
	c-0.1-0.4-0.3-0.8-0.4-1.2c0.1,0.3,0.2,0.6,0.2,0.9L233.3,94.7z M76.6,212.8c-3.1-1-6.3-2.1-9.5-3.3c2.6,5.5,6.5,10.6,11.6,14.9
	c4.2,1.1,8.3,2.1,12.3,2.8C84.8,223.3,79.9,218.3,76.6,212.8z M108.5,100.2c-8-0.8-14.8-1.7-19-2.3c-2.8-0.3-5.5-0.8-8.1-1.2
	c-15.3,4.8-28.7,12.2-39.2,20.9c2.1,1.2,4.4,2.3,6.8,3.4C64.2,109.9,85.1,102.3,108.5,100.2 M46.7,188.8c0-5.4,0.9-10.8,2.8-15.9
	c-3.1-1.4-6.1-2.9-9.1-4.6c-2,5.2-3,10.7-3,16.3c0,1.1,0.1,2.2,0.1,3.3c3,2.3,6.2,4.3,9.5,6.1C46.8,192.3,46.7,190.6,46.7,188.8
	L46.7,188.8z M78.5,142.2c-2.8-0.6-5.6-1.2-8.4-1.9c-1.8-0.5-3.5-0.9-5.3-1.4c-9.2,6.4-16.5,14.1-21.3,22.7c2.9,1.4,6,2.8,9.3,3.9
	c2.8-4.9,6.4-9.4,10.9-13.4C68.1,148.3,73,145,78.5,142.2z M50.2,87.9c-8.9,4.3-17.6,9.8-24.6,16.4c1.1,1.4,2.3,2.7,3.6,4
	c7.6-6.7,17.3-12.8,27.9-17.7C54.7,89.7,52.4,88.8,50.2,87.9z M198.9,139.6c-5.1,2-10.9,3.9-17.5,5.4c4.8,2.9,9.1,6.2,12.9,9.8
	c5.4-2.3,10.1-4.8,14.2-7.2C205.5,144.7,202.4,142,198.9,139.6z M185.5,113.7c6-2.5,11.8-5.2,17.1-8.2c-5.4-2.9-11.8-5.6-19.1-7.8
	c-7.1,1.8-15.6,3.1-25.7,3.9c-3,0.3-6.1,0.4-9.3,0.5c7,1.3,13.8,3.1,20.1,5.2C174.8,109.5,180.4,111.6,185.5,113.7z M210.6,100.4
	c5.7-4.2,10.1-8.9,12.4-14.1c-2.7-1.7-5.9-3.3-9.2-4.8c-3.3,4.3-8.8,8.5-17.4,12.1C201.5,95.6,206.2,97.9,210.6,100.4z M146.1,148.9
	c-7.2,0-17.1-0.4-28.2-1.2c-19.7,2.3-36.4,11.1-45.9,23.2c3.1,0.7,6.3,1.3,9.3,1.8c10-11,27-18.2,46.2-18.2c14,0,26.9,3.8,36.7,10.2
	c3.8-0.9,7.4-2,10.8-3C167.3,155.7,157.3,151.2,146.1,148.9z M143.8,79.6c7.8-1.7,14.7-3.7,20.9-5.8c3.4-1.1,6.5-2.3,9.5-3.5
	c-8.7-1.6-16.4-2.6-21.6-3.1c-19.8-1.8-49.3,3.8-57,5.4c-2.4,0.5-13.1,2.7-26.3,7.3c3.1,0.9,6.5,1.7,10.2,2.3
	c11.9-3.3,24.2-5.2,35.9-5.2C123.1,77.1,133,77.9,143.8,79.6z M153.3,124.4c1.9-0.5,3.9-1.1,6-1.7c-8.8-1.9-18.2-2.9-27.9-2.9
	c-18.4,0-35.6,3.7-50.2,10C102,132.7,126.7,131.6,153.3,124.4z"/>
<radialGradient id="forestripes_1_" cx="-41.3154" cy="522.3223" r="0.6" fx="-41.1154" fy="522.2224" gradientTransform="matrix(227.5371 0 0 -227.5688 9525.1074 118991.8594)" gradientUnits="userSpaceOnUse">
	<stop  offset="0" style="stop-color:#FFFFFF"/>
	<stop  offset="0.55" style="stop-color:#FFFFFF"/>
	<stop  offset="1" style="stop-color:#B1B4B6"/>
</radialGradient>
<path id="forestripes" class="st2" d="M14.8,96.8C16.6,90.3,19,84,21.8,78c-1.3,3.1-2,6.5-2,11.3c0,27.7,59.9,55.1,133.4,35
	c28.6-7.8,71.4-22.8,71.4-45.8c0-1.2,0.5-3.8-3.3-10.4c4.8,7.8,8.6,16.1,11.4,24.9c1.4,4.6,1.2,7.9,1.2,9.1c0,5.7-7,40.2-76,46.4
	c-6,0.5-49.8,1.2-87.8-8.4c-25.3-6.4-50.8-18.8-55.6-36C13.8,101.6,14.2,99.1,14.8,96.8z M121.9,206.8
	c-14.4,1.6-97.8,5.4-109.9-60.8c1.7,10.6,4.9,20.6,9.3,30c5.2,9.5,18.2,22.4,37.1,30.2c97.8,40.4,158-7.7,169.6-31.6
	c4.7-10.3,7.8-21.4,9.3-33C235.9,150.4,226.8,195.1,121.9,206.8z M119.5,229.7c-17.3,0-55-2.8-79.6-25.9
	c20.8,23,50.9,37.5,84.4,37.5c43.6,0,81.5-24.5,100.6-60.5C218.9,191.2,192.8,229.7,119.5,229.7z M52.3,174.1
	c24.6,10.1,63.7,17.7,85.9,16.9c80-2.9,97.8-43.3,99.6-55.1c0.2-2.8,0.3-5.6,0.3-8.4c0-9.3-1.1-18.3-3.2-27c0.9,3.8,1.1,7.4,1.1,9.3
	c0,3.9,0.8,38.9-79.1,56.7c-47.8,10.7-68.1,10.3-101,0c-28.8-9.1-44.5-30.2-45-48.3c-0.3,3.1-0.4,6.3-0.4,9.4c0,2.6,0.1,5.1,0.3,7.7
	C12.9,150.3,32.5,166,52.3,174.1z M89.5,97.9c12,1.5,43.7,5.9,68.3,3.8c49.6-4.1,60.6-21.4,60.6-32.7c0-3.1-1.7-7.6-3.3-10.2
	c-4.4-5.8-9.4-11.2-14.8-16.1c1.4,1.5,1.9,3.5,1.9,4.6c0.5,7.7-12.1,18-37.4,26.4c-15.8,5.2-36.7,10.3-62.6,10.3
	c-43.7,0-58.8-16.6-58.8-26.9c0-1.1-0.2-10,9.9-18.4C43.9,46.2,35.9,55,29.3,65c-0.7,1.2-1.1,2.5-1.1,4.1
	C28.2,79.7,54.1,93.4,89.5,97.9z M56.9,41.5c0.8,11.4,31,20.3,67.4,19.4c36.4-1,64.3-11.4,64.3-22.8c0-3.3-2.4-6.2-6.8-8.7
	c-16.9-9.9-36.6-15.7-57.6-15.7c-22,0-42.4,6.2-59.8,17C59.3,34.1,56.6,37.8,56.9,41.5z"/>
<path d="M339,168.1c-0.7-2.1-0.9-4.3-1-5.3l-0.1-41.3c0-19.8-14-26.9-27.2-26.9c-10.4,0-19.9,2.7-26,6.8c-1.1,0.8-1.2,2-0.6,2.9
	l4.8,6.5c1.2,1.3,2.4,1,3.6,0c4.8-3,10.4-4.7,16.1-4.7c16.2,0,15.7,12.7,15.7,14.3c0,0.8-0.5,1-1.1,1l-2.5-0.1
	c-12.6-0.5-44.5,3.8-44.5,29.1c0,14.8,12.4,22.4,23.9,22.4c11.2,0,20.2-4.4,24.7-9.9c0.3-0.3,0.5,0,0.5,0.1c0,0.7,0,2.3,0.1,3.6
	c0.2,3.3,0.9,4.4,2.5,4.5l9,0c1.2,0,2.1-0.9,2.1-2.1C339.3,169,339,168.1,339,168.1L339,168.1z M325,138.7c-1.8,13-8.2,20.4-20,22.4
	c-8.3,1.4-15.8-2.1-16.2-10.9c-0.5-9.8,10.9-18,31.8-17.1c0,0,1.5,0.1,2.6,0.2C325.6,133.5,325.6,134.8,325,138.7z"/>
<path d="M370.8,74.9l-9.4,0.7c-1.1,0-2.1,1-2.1,2.2v15.7c0,0.6-0.5,1.1-1.1,1.1l-11.4,0c-1.2,0-2.2,1-2.2,2.2l0,7.9
	c0,0.6,0.3,1.1,0.7,1.5c0.4,0.4,1,0.6,1.6,0.6h11.3c0.6,0,1.1,0.5,1.1,1.1l0,37.9c0,20.4,15.3,27.6,28.8,27.6c0,0,1.6,0,2.8-0.1
	c1.2-0.1,2.1-1,2.1-2.1v-7.4c0-1.2-1-2.1-2.4-2.1c-11.5,0-17.6-6.1-17.6-18.2v-35.5c0-0.6,0.5-1.1,1.1-1.1h18.1c1.2,0,2.2-1,2.2-2.1
	v-7.9c0-1.2-1-2.2-2.2-2.2h-18c-0.7,0-1.2-0.5-1.2-1.2V77.1C373,76,372.1,74.9,370.8,74.9L370.8,74.9z"/>
<path d="M439.1,154.4c-3.7,4.4-7.8,7.4-13.7,7.4c-7,0-12.5-5.1-12.5-11.5c0-5.7,2.4-9.1,9.7-13.5c0.5-0.3,1.1-0.2,1.4,0.1l15.1,15.8
	C439.5,153.4,439.3,153.7,439.1,154.4L439.1,154.4z M426.7,121.5c-0.4,0.2-1.1,0.1-1.4-0.2c-2.2-2.4-4.9-6.4-4.9-9.2
	c0-4.8,3.4-8.5,8.4-8.5c4.8,0,7.4,3.3,7.4,7.4C436.2,115.8,431.8,118.6,426.7,121.5z M469.5,167.5l-14.4-14.9
	c-0.4-0.3-0.6-1.1-0.2-1.6l11-18.5c0.2-0.5,0.3-0.9,0.3-1c0-1.2-0.9-2.1-2.1-2.1h-8c-0.8,0-1.5,0.4-1.9,1.1l-7,12
	c-0.3,0.5-1,0.6-1.5,0.2l-11.2-11.6c-0.4-0.7-0.1-0.9,0.2-1.5c6.4-3.8,13.7-9.2,13.7-18.8c0-11-7.9-18.4-19.6-18.4
	c-11.5,0-20.2,7.7-20.2,19.2c0,5.1,2.1,10.1,6.6,15.9c0.1,0.7,0,1-0.3,1.2c-9.6,5.4-14.4,12.6-14.4,21.4c0,14.9,12.5,22.8,24.9,22.8
	c8.5,0,15.1-3.3,21.5-10.7c0.4-0.4,1.1-0.4,1.6,0l7.8,8.1c0.5,0.5,1.1,0.7,1.6,0.7l10.2,0c1.2,0,2.1-1,2.1-2.1
	C470.1,168.5,469.9,167.9,469.5,167.5L469.5,167.5z"/>
<path d="M514.8,163.8c0-0.8-0.6-2.3-2.6-2.1c-11.5,0-17.4-6.1-17.4-18.2v-35.5c0-0.6,0.5-1.1,1.1-1.1H514c1.2,0,2.2-1,2.2-2.1v-7.9
	c0-1.2-1-2.2-2.2-2.2h-18c-0.7,0-1.2-0.5-1.2-1.2V77.1c0-1.7-1.4-2.3-2.3-2.2l-9.3,0.7c-1.1,0-2.1,1-2.1,2.2v15.7
	c0,0.6-0.5,1.1-1.1,1.1l-11.4,0c-1.2,0-2.2,1-2.2,2.2l0,7.9c0,1.2,1.1,2.1,2.2,2.1H480c0.6,0,1.1,0.5,1.1,1.1v37.9
	c0,20.4,15.3,27.6,28.8,27.6c0,0,1.6,0,2.8-0.1c1.2-0.1,2.1-1,2.1-2.1V163.8z"/>
</svg>
