<?xml version="1.0" encoding="utf-8"?>
<!-- Generator: Adobe Illustrator 19.2.1, SVG Export Plug-In . SVG Version: 6.00 Build 0)  -->
<svg version="1.1"
	 id="svg4843" inkscape:version="0.48.2 r9819" sodipodi:docname="drawing.svg" xmlns:cc="http://creativecommons.org/ns#" xmlns:dc="http://purl.org/dc/elements/1.1/" xmlns:inkscape="http://www.inkscape.org/namespaces/inkscape" xmlns:rdf="http://www.w3.org/1999/02/22-rdf-syntax-ns#" xmlns:sodipodi="http://sodipodi.sourceforge.net/DTD/sodipodi-0.dtd" xmlns:svg="http://www.w3.org/2000/svg"
	 xmlns="http://www.w3.org/2000/svg" xmlns:xlink="http://www.w3.org/1999/xlink" x="0px" y="0px" viewBox="0 0 1000 167.1"
	 style="enable-background:new 0 0 1000 167.1;" xml:space="preserve">
<style type="text/css">
	.st0{clip-path:url(#SVGID_2_);}
	.st1{fill:#231F20;}
	.st2{fill:#0E0D0F;}
	.st3{clip-path:url(#SVGID_4_);}
	.st4{fill:url(#path4460_1_);}
	.st5{fill:url(#path4458_1_);}
	.st6{fill:url(#path4456_1_);}
</style>
<sodipodi:namedview  bordercolor="#666666" borderopacity="1.0" fit-margin-bottom="0.5" fit-margin-left="0.5" fit-margin-right="0.5" fit-margin-top="0.5" id="base" inkscape:current-layer="g4585" inkscape:cx="1010.9794" inkscape:cy="-454.71711" inkscape:document-units="px" inkscape:pageopacity="0.0" inkscape:pageshadow="2" inkscape:window-height="1028" inkscape:window-maximized="1" inkscape:window-width="1920" inkscape:window-x="-8" inkscape:window-y="-8" inkscape:zoom="0.35" pagecolor="#ffffff" showgrid="false">
	</sodipodi:namedview>
<g id="layer1" transform="translate(322.85716,-405.96212)" inkscape:groupmode="layer" inkscape:label="Layer 1">
	<g id="g4585" transform="matrix(0.21760945,0,0,-0.21760945,-730.40318,512.50689)">
		<g id="g4558" transform="matrix(39.039994,0,0,39.039994,-62459.022,-2751.3346)">
			<g id="g3623" transform="translate(1010.2857,27.428571)">
				<g>
					<defs>
						<rect id="SVGID_1_" x="196.4" y="-37.1" width="1000" height="165.8"/>
					</defs>
					<clipPath id="SVGID_2_">
						<use xlink:href="#SVGID_1_"  style="overflow:visible;"/>
					</clipPath>
					<g id="g3625" class="st0">
						<g id="g3631" transform="translate(755.0571,42.0247)">
							<path id="path3633" inkscape:connector-curvature="0" class="st1" d="M0,0c0-0.5-0.4-0.9-0.9-0.9c-0.5,0-0.9,0.4-0.9,0.9
								s0.4,0.9,0.9,0.9C-0.4,0.9,0,0.5,0,0 M0.2,0c0,0.6-0.5,1-1,1c-0.6,0-1-0.5-1-1s0.5-1,1-1C-0.3-1,0.2-0.6,0.2,0"/>
						</g>
						<g id="g3635" transform="translate(754.3766,42.2633)">
							<path id="path3637" inkscape:connector-curvature="0" class="st1" d="M0,0c0-0.2-0.1-0.2-0.2-0.2h-0.1v0.3h0.2
								C-0.1,0.2,0,0.1,0,0 M0.3-0.8L0-0.4c0,0.1-0.1,0.1-0.1,0.1c0.2,0,0.3,0.1,0.3,0.3c0,0.2-0.1,0.3-0.3,0.3h-0.3v-1.1h0.2v0.5
								c0.1,0,0.1,0,0.2-0.1l0.3-0.4H0.3z"/>
						</g>
					</g>
				</g>
			</g>
			<g id="g3719" transform="translate(1678.0568,77.434471)">
				<path id="path3721" inkscape:connector-curvature="0" class="st2" d="M0,0l-1.9-4.5H2L0,0z M5.9-9H3.8L2.7-6.3h-5.3L-3.8-9h-2
					l5,11.4H1C1,2.4,5.9-9,5.9-9z"/>
			</g>
			<g id="g3723" transform="translate(1702.2941,68.429171)">
				<path id="path3725" inkscape:connector-curvature="0" class="st2" d="M0,0h-2v9.5h-3.6v1.8h9.3L3,9.5H0V0z"/>
			</g>
			<g id="g3727" transform="translate(1740.2972,77.886371)">
				<path id="path3729" inkscape:connector-curvature="0" class="st2" d="M0,0H-6v-2.9h3.9v-1.8H-6v-3H0v-1.8H-8V1.8l8,0V0z"/>
			</g>
			<path id="path3731" inkscape:connector-curvature="0" class="st2" d="M1754.5,68.4h-1.9v11.3h1.9V68.4z"/>
			<g id="g3733" transform="translate(1010.2857,27.428571)">
				<g>
					<defs>
						<rect id="SVGID_3_" x="196.4" y="-37.1" width="1000" height="165.8"/>
					</defs>
					<clipPath id="SVGID_4_">
						<use xlink:href="#SVGID_3_"  style="overflow:visible;"/>
					</clipPath>
					<g id="g3735" class="st3">
						<g id="g3741" transform="translate(736.1471,50.6673)">
							<path id="path3743" inkscape:connector-curvature="0" class="st2" d="M0,0c-1.2,0-2.1-0.3-2.1-1.1C-2.1-2-1.6-2.3,0.5-3
								c2.3-0.8,3.6-1.6,3.6-3.5c0-2.2-1.7-3.4-4.1-3.4c-1.7,0-3.3,0.6-4.4,1.6l0.7,1.8C-2.6-7.4-1.3-8,0.1-8c1.2,0,2.1,0.6,2.1,1.5
								c0,0.7-0.4,1.2-2.5,1.9c-2.4,0.8-3.8,1.6-3.8,3.5c0,1.9,1.8,3,4.1,3c2.3,0,3.5-0.8,3.7-0.9L3-0.7C2.5-0.5,1.5,0,0,0"/>
						</g>
						<g id="g3745" transform="translate(746.6359,46.8288)">
							<path id="path3747" inkscape:connector-curvature="0" class="st2" d="M0,0l5.1,5.5H2.6L-2.4,0l5.6-5.8h2.5L0,0z"/>
						</g>
						<g id="g3749" transform="translate(701.8704,42.6286)">
							<path id="path3751" inkscape:connector-curvature="0" class="st2" d="M0,0c-2.2,0-3.8,1.8-3.8,4S-2.2,8,0,8s3.8-1.8,3.8-4
								S2.2,0,0,0 M0,9.9c-3.2,0-5.8-2.6-5.8-5.8S-3.2-1.8,0-1.8c3.2,0,5.8,2.6,5.8,5.8S3.2,9.9,0,9.9"/>
						</g>
						<g id="g3753" transform="translate(714.0898,42.8078)">
							<path id="path3755" inkscape:connector-curvature="0" class="st2" d="M0,0l-2.3,0v7.7H0c2.2,0,3.8-1.6,3.8-3.8S2.2,0,0,0
								 M0,9.5h-4.3V-1.8l4.3,0c3.2,0,5.8,2.4,5.8,5.7C5.8,7.1,3.2,9.5,0,9.5"/>
						</g>
						<g id="g3757" transform="translate(684.2415,46.0058)">
							<path id="path3759" inkscape:connector-curvature="0" class="st2" d="M0,0c0-3.4-2-5.2-4.8-5.2c-2.9,0-4.8,1.8-4.8,5.2v6.3h2
								v-6.5c0-2,1.2-3.1,2.8-3.1C-3.2-3.4-2-2.2-2-0.2v6.5h2L0,0z"/>
						</g>
					</g>
				</g>
			</g>
		</g>
		
			<linearGradient id="path4460_1_" gradientUnits="userSpaceOnUse" x1="511.3244" y1="10734.3145" x2="1057.0269" y2="10625.584" gradientTransform="matrix(0.1741 0 0 -0.1741 1848.5457 1708.4119)">
			<stop  offset="0" style="stop-color:#2B7A77"/>
			<stop  offset="0.5105" style="stop-color:#4EBAA9"/>
			<stop  offset="1" style="stop-color:#5CC2B1"/>
		</linearGradient>
		<path id="path4460" inkscape:connector-curvature="0" sodipodi:nodetypes="ccccccccc" class="st4" d="M2024.9-275.9
			c-21.7,0-33,8.2-43.8,27.2l-99,183.5c-6.8,13.1-6.9,17.5-6.9,27l155.5-6.9l35.6-35.6h312l-259.1-160.5
			C2106.6-248.6,2058.6-275.9,2024.9-275.9z"/>
		
			<linearGradient id="path4458_1_" gradientUnits="userSpaceOnUse" x1="1861.8529" y1="7376.624" x2="1591.0533" y2="8012.5933" gradientTransform="matrix(0.1741 0 0 -0.1741 1848.5457 1708.4119)">
			<stop  offset="0" style="stop-color:#236736"/>
			<stop  offset="0.4928" style="stop-color:#6BA443"/>
			<stop  offset="1" style="stop-color:#86C146"/>
		</linearGradient>
		<path id="path4458" inkscape:connector-curvature="0" sodipodi:nodetypes="cccccccccccccc" class="st5" d="M2066.4-80.7h-134.5
			c-40.6,0-56.7,21.3-56.7,42.5c0,13.4,4.3,20.7,10.3,35.6l196.1,468.1l2.1,4.1l2.7,4.2l5.6,5.5l8.3,4.4l12,2.6l20.6-0.5l136.3-50.6
			l-46.1-145.3L2066.4-80.7z"/>
		
			<linearGradient id="path4456_1_" gradientUnits="userSpaceOnUse" x1="2135.2432" y1="7096.3555" x2="2533.2366" y2="8044.1543" gradientTransform="matrix(0.1741 0 0 -0.1741 1848.5457 1708.4119)">
			<stop  offset="0" style="stop-color:#29A5E3"/>
			<stop  offset="0.5155" style="stop-color:#356EB9"/>
			<stop  offset="1" style="stop-color:#394DA5"/>
		</linearGradient>
		<path id="path4456" inkscape:connector-curvature="0" sodipodi:nodetypes="ccccccccc" class="st6" d="M2461.5-275.9L2152,456.8
			c-5.3,12.5-13.9,28.6-36,28.6c-19.8,0-29.2-9.6-34.5-19.9c2.7,7.4,11.1,21.8,35.2,21.8h213.6c19.7,0,29.1-11.6,33.4-22.2l313-741
			H2461.5z"/>
	</g>
</g>
</svg>
