<?xml version="1.0" encoding="utf-8"?>
<!-- Generator: Adobe Illustrator 19.2.1, SVG Export Plug-In . SVG Version: 6.00 Build 0)  -->
<svg version="1.1"
	 id="Layer_1" inkscape:version="0.48.1 " sodipodi:docname="AJAX.svg" xmlns:cc="http://creativecommons.org/ns#" xmlns:dc="http://purl.org/dc/elements/1.1/" xmlns:inkscape="http://www.inkscape.org/namespaces/inkscape" xmlns:rdf="http://www.w3.org/1999/02/22-rdf-syntax-ns#" xmlns:sodipodi="http://sodipodi.sourceforge.net/DTD/sodipodi-0.dtd" xmlns:svg="http://www.w3.org/2000/svg"
	 xmlns="http://www.w3.org/2000/svg" xmlns:xlink="http://www.w3.org/1999/xlink" x="0px" y="0px" viewBox="0 0 229.7 40.1"
	 style="enable-background:new 0 0 229.7 40.1;" xml:space="preserve">
<style type="text/css">
	.st0{fill:none;}
</style>
<sodipodi:namedview  bordercolor="#666666" borderopacity="1" fit-margin-bottom="0" fit-margin-left="0" fit-margin-right="0" fit-margin-top="0" gridtolerance="10" guidetolerance="10" id="namedview51" inkscape:current-layer="Layer_1" inkscape:cx="159.9751" inkscape:cy="43.993248" inkscape:pageopacity="0" inkscape:pageshadow="2" inkscape:window-height="1004" inkscape:window-maximized="1" inkscape:window-width="1280" inkscape:window-x="-8" inkscape:window-y="-8" inkscape:zoom="3.0374886" objecttolerance="10" pagecolor="#ffffff" showgrid="false">
	</sodipodi:namedview>
<g id="g3" transform="translate(-4.1840025,-9.032)">
	<g id="g5">
		<g id="g7">
			<path id="path9" inkscape:connector-curvature="0" d="M116,34.1c-0.2,0.5-1.4,2.7-4.2,2.7c-3.3,0-4.6-2.8-4.6-4.8
				c0-3.4,2.3-6.4,5.6-6.4c3.6,0,4.5,2.7,4.6,3.2h5.3c0.3-2-1.3-8.1-9.7-8.1c-6.1,0-11.1,4.9-11.1,11.5c0,5.4,3.4,9.5,9.6,9.5
				c7.7,0,9.8-6.1,10.1-7.6C121.6,34.1,116,34.1,116,34.1z"/>
			<path id="path11" inkscape:connector-curvature="0" d="M75.3,35.6c0-0.3,0.1-0.9,0.4-2.1c0.3-1.2,4-18.5,4-18.5h-5L70.6,34
				c-0.2,0.8-0.2,1.6-0.2,2.3c0,4.2,3.2,5.4,5.8,5.4c0.9,0,1.8-0.2,2-0.2c0.1-0.4,0.9-4,0.9-4.2c-0.1,0-0.7,0-1.3,0
				C75.9,37.4,75.3,36.6,75.3,35.6z"/>
			<polygon id="polygon13" points="139.1,20.8 130.2,28.8 133.2,14.9 128.2,14.9 122.5,41.3 127.5,41.3 128.9,34.9 132,32.4 
				136.2,41.3 141.8,41.3 135.8,29.4 146.1,20.8 			"/>
			<path id="path15" inkscape:connector-curvature="0" d="M47.9,33.1c0.4-1.9,4-18.2,4-18.2s6.1,0,9.5,0c6.9,0,8.6,3.8,8.6,6.1
				c0,5.1-4.9,6.5-5.4,6.7c0.6,0.2,3.7,1.4,3.7,5.5c0,4.4-4,8.1-10.3,8.1c0,0-2.2,0-2.9,0C49.8,41.3,46.9,37.7,47.9,33.1z
				 M62.8,32.8c0-1.2-0.8-2.8-4.3-2.8h-4.6l-1.4,6.4h5.2C61.1,36.4,62.8,34.8,62.8,32.8z M64.5,22.2c0-1.3-1-2.4-3.4-2.4h-5.1
				l-1.2,5.3h5.3C63.1,25.1,64.5,23.7,64.5,22.2z"/>
			<path id="path17" inkscape:connector-curvature="0" d="M143.8,33.1c0.4-1.9,3.9-18.2,3.9-18.2s6.1,0,9.5,0c6.9,0,8.6,3.8,8.6,6.1
				c0,5.1-4.9,6.5-5.4,6.7c0.5,0.2,3.7,1.4,3.7,5.5c0,4.4-4.1,8.1-10.3,8.1c0,0-2.2,0-2.9,0C145.6,41.3,142.8,37.7,143.8,33.1z
				 M158.6,32.8c0-1.2-0.8-2.8-4.3-2.8h-4.6l-1.4,6.4h5.2C156.9,36.4,158.6,34.8,158.6,32.8z M160.3,22.2c0-1.3-1-2.4-3.4-2.4h-5.1
				l-1.1,5.3h5.3C158.9,25.1,160.3,23.7,160.3,22.2z"/>
			<path id="path19" inkscape:connector-curvature="0" d="M200.2,20.8c-5.3,0-8.9,3.1-10.1,9c-0.5,2.5-2.5,11.5-2.5,11.5h5
				c0,0,1.8-8.5,2.4-11.1c0.8-3.5,2.6-4.7,5.1-4.7c0.8,0,1.3,0.1,1.6,0.1c0.1-0.7,0.8-3.9,1-4.6C202.1,20.9,201.3,20.8,200.2,20.8z"
				/>
			<path id="path21" inkscape:connector-curvature="0" d="M217.2,49.1l16.7-28.3h-5.4l-7.7,13.3L219,20.8c0,0-2.7,0-5.8,0
				c-6.6,0-10,3-11.2,8.8c-0.6,2.9-2.5,11.7-2.5,11.7h5c0,0,1.8-8.4,2.6-11.8c0.7-3.3,3.1-4.3,5.8-3.7l1-4.8
				c0.8,4.6,3.2,19.3,3.2,19.3l-5.2,9L217.2,49.1L217.2,49.1z"/>
			<path id="path23" inkscape:connector-curvature="0" d="M89.7,32.5c1.1-0.2,4.3-0.7,4.7-0.7c-0.1,0.3-0.2,0.9-0.3,1.3
				c-0.6,2.5-3.1,4.1-5.9,4.1c-1.8,0-2.8-1-2.8-2.1C85.4,34.1,86.3,33,89.7,32.5z M87.8,27.2C88,27,89.2,25,92.4,25c2,0,3,0.7,3,1.6
				c0,1.2-2,1.6-5.5,2.1c-6,0.9-9.7,2.7-9.7,7c0,3,2.5,6,7,6c3.7,0,5.7-2.3,5.9-2.4c0,0.5,0.1,1.4,0.1,2c0.4,0,3.9,0,5.1,0
				c-0.2-0.9-0.5-2.6,0.1-5.3c0.3-1.4,1.2-5.6,1.7-7.9c0.9-4.3-1.5-7.4-7.6-7.4c-7.8,0-10.1,5.6-10.4,6.5L87.8,27.2L87.8,27.2z"/>
			<path id="path25" inkscape:connector-curvature="0" d="M180.3,35.1c-0.2,0.4-1.4,2.1-4.1,2.1c-3.9,0-4.8-3.3-4.7-4.2
				c2.1,0,14.1,0,15.2,0c0.1-0.4,0.4-1.7,0.4-3.1c0-4.8-3.3-9.2-9.8-9.2c-6,0-10.8,5-10.8,11c0,5.8,3.5,9.9,9.6,9.9
				c7.6,0,9.7-6,9.9-6.5C184.6,35.1,180.3,35.1,180.3,35.1z M177.4,25.2c3.4,0,4.6,2,4.5,3.7c-1.9,0-7.7,0-9.6,0
				C172.5,27.9,174.1,25.2,177.4,25.2z"/>
		</g>
		<g id="g27">
			<path id="path29" inkscape:connector-curvature="0" d="M16.5,11.9c0-1.3-0.8-2.9-4-2.9c-1.3,0-5,0-5,0L6,15.6c0,0,2.7,0,5.2,0
				C15.3,15.6,16.5,13.7,16.5,11.9z"/>
			<path id="path31" inkscape:connector-curvature="0" d="M29.9,11.9c0-1.3-0.8-2.9-4-2.9c-1.3,0-5,0-5,0l-1.4,6.6c0,0,2.7,0,5.2,0
				C28.8,15.6,29.9,13.7,29.9,11.9z"/>
			<path id="path33" inkscape:connector-curvature="0" d="M14.6,21.8c0-1.3-0.8-2.9-4-2.9c-1.3,0-5,0-5,0l-1.4,6.6c0,0,2.7,0,5.2,0
				C13.5,25.5,14.6,23.6,14.6,21.8z"/>
			<path id="path35" inkscape:connector-curvature="0" d="M28.1,21.8c0-1.3-0.8-2.9-4-2.9c-1.3,0-5,0-5,0l-1.4,6.6c0,0,2.7,0,5.2,0
				C27,25.5,28.1,23.6,28.1,21.8z"/>
			<path id="path37" inkscape:connector-curvature="0" d="M42.3,17.8c0-1.3-0.8-2.9-4-2.9c-1.3,0-5,0-5,0l-1.4,6.6c0,0,2.7,0,5.2,0
				C41.1,21.5,42.3,19.6,42.3,17.8z"/>
			<path id="path39" inkscape:connector-curvature="0" d="M40.3,28.1c0-1.3-0.8-2.9-4-2.9c-1.3,0-5,0-5,0l-1.4,6.6c0,0,2.7,0,5.2,0
				C39.1,31.8,40.3,29.9,40.3,28.1z"/>
			<path id="path41" inkscape:connector-curvature="0" d="M26.2,32.1c0-1.3-0.8-2.9-4-2.9c-1.3,0-5,0-5,0l-1.4,6.6c0,0,2.7,0,5.2,0
				C25,35.9,26.2,33.9,26.2,32.1z"/>
		</g>
	</g>
	<rect id="rect43" x="0" y="0" class="st0" width="240.5" height="53.5"/>
</g>
</svg>
