<?xml version="1.0" encoding="utf-8"?>
<!-- Generator: Adobe Illustrator 19.2.1, SVG Export Plug-In . SVG Version: 6.00 Build 0)  -->
<svg version="1.1" id="Isolation_Mode" xmlns="http://www.w3.org/2000/svg" xmlns:xlink="http://www.w3.org/1999/xlink" x="0px"
	 y="0px" viewBox="0 0 306 234" style="enable-background:new 0 0 306 234;" xml:space="preserve">
<style type="text/css">
	.st0{fill:#4BAE44;}
	.st1{fill:#0084CB;}
</style>
<g>
	<g>
		<g>
			<path class="st0" d="M30.3,188.2v-8.1h5.8v8.1h4.7v4.7h-4.7v13.8c0,1.3,0.6,1.7,2.1,1.7c0.9,0,1.8-0.3,2.7-0.5v4.8
				c-1.6,0.2-3,0.4-4.6,0.4c-4.3,0-5.9-2.2-5.9-5.6v-14.5H27v-4.7H30.3z"/>
			<path class="st0" d="M49.4,201.3c0.1,5,2.3,7,5,7c2.7,0,3.9-1.2,5.4-2.9L64,208c-2.2,3.5-5.5,5-10.1,5c-6.3,0-10.2-4.9-10.2-12.6
				c0-7.7,3.9-12.6,10.5-12.6c6.3,0,9.9,5.3,9.9,11.2v2.4L49.4,201.3L49.4,201.3z M58.7,197.4c-0.1-3.4-1.9-5.3-4.6-5.3
				c-2.8,0-4.5,2-4.6,5.3H58.7z"/>
			<path class="st0" d="M82.7,196.1c-0.9-2.1-1.9-3.7-4.8-3.7c-3.2,0-4.7,2.5-4.7,8c0,5.4,1.5,7.9,4.9,7.9c2.5,0,3.9-1.7,5.1-3.9
				l4.4,2.5c-2.3,4.3-5.3,6.1-9.7,6.1c-6.5,0-10.5-4.9-10.5-12.6c0-7.7,3.9-12.6,10.5-12.6c4.6,0,8.2,2.4,9.5,6.5L82.7,196.1z"/>
			<path class="st0" d="M91.9,212.5v-33.8h5.8v12.1c1.8-1.5,4.1-3.1,6.9-3.1c4.8,0,7.2,3.2,7.2,8.1v16.7H106v-15.8
				c0-3.3-1-4.3-3-4.3c-2.5,0-4.4,1.5-5.4,2.6v17.6H91.9z"/>
			<path class="st0" d="M117.7,212.5v-24.3h5.3v2.6c2.1-1.5,4.6-3.1,7.4-3.1c4.8,0,7.1,3.2,7.1,8.1v16.7h-5.7v-15.8
				c0-3.3-1-4.3-3-4.3c-2.5,0-4.4,1.5-5.4,2.6v17.6H117.7z"/>
			<path class="st0" d="M152.1,187.7c6.6,0,10.5,4.9,10.5,12.6c0,7.7-3.9,12.6-10.5,12.6c-6.6,0-10.5-4.9-10.5-12.6
				C141.6,192.6,145.6,187.7,152.1,187.7z M152.1,192.4c-3.2,0-4.7,2.5-4.7,8c0,5.4,1.5,7.9,4.7,7.9c3.2,0,4.7-2.5,4.7-7.9
				C156.9,194.9,155.3,192.4,152.1,192.4z"/>
			<path class="st0" d="M167.3,212.5v-33.8h5.7V204v8.5L167.3,212.5L167.3,212.5z"/>
			<path class="st0" d="M188.2,187.7c6.6,0,10.5,4.9,10.5,12.6c0,7.7-3.9,12.6-10.5,12.6c-6.6,0-10.5-4.9-10.5-12.6
				C177.8,192.6,181.7,187.7,188.2,187.7z M188.2,192.4c-3.2,0-4.7,2.5-4.7,8c0,5.4,1.5,7.9,4.7,7.9c3.2,0,4.7-2.5,4.7-7.9
				C193,194.9,191.5,192.4,188.2,192.4z"/>
			<path class="st0" d="M222.5,191.7c-1.3,0-2.8,0-3.7,0.6c0.8,1,1.3,2.4,1.3,4.3c0,4.6-3.1,7.9-9.1,7.9c-2.5,0-4.5,0.1-4.5,1.5
				c0,3.9,15.9-1.4,15.9,8.3c0,3.5-3.5,7.2-11.2,7.2c-6.5,0-10.8-2-10.8-5.8c0-3,2.3-4.5,4.3-4.5V211c-1.1-0.7-3.6-1.3-3.6-3.9
				c0-2.3,2.7-4.1,3.8-4.4c-2-1.6-3.6-3.5-3.6-6.4c0-4.3,3.2-8.5,9.5-8.5c2,0,4.5,0.9,5.9,2.2c1.1-1.5,2.9-2.3,5.7-2.2L222.5,191.7
				L222.5,191.7z M205.7,214.9c0,1.8,1.6,2.7,6.4,2.7c3.7,0,5-1.9,5-2.7c0-1.1-1.7-2.8-7.3-2.8C206.6,212.1,205.7,213.8,205.7,214.9
				z M210.8,192c-2.5,0-4.2,1.8-4.2,4c0,2.2,1.7,4,4.2,4c2.2,0,3.9-1.8,3.9-4C214.8,193.8,213,192,210.8,192z"/>
			<path class="st0" d="M226.6,183.7v-5.4h5.7v2.4v3H226.6z M232.4,205.4v7.2h-5.7v-24.3h5.7V205.4z"/>
			<path class="st0" d="M242.8,201.3c0.1,5,2.3,7,5,7c2.7,0,3.9-1.2,5.4-2.9l4.2,2.6c-2.2,3.5-5.5,5-10.1,5
				c-6.3,0-10.2-4.9-10.2-12.6c0-7.7,3.9-12.6,10.5-12.6c6.3,0,9.9,5.3,9.9,11.2v2.4L242.8,201.3L242.8,201.3z M252.1,197.4
				c-0.1-3.4-1.9-5.3-4.6-5.3c-2.8,0-4.6,2-4.6,5.3H252.1z"/>
			<path class="st0" d="M273.9,194.6c-1.1-1.3-2.7-2.6-4.5-2.6c-2.2,0-3.2,0.9-3.2,2.4c0,4.2,12.1,2.4,12.1,11.3
				c0,5-3.8,7.3-8.9,7.3c-3.8,0-7-1.7-9.1-4.9l3.9-2.9c1.3,1.9,3.1,3.5,5.6,3.5c2,0,3.4-1.1,3.4-2.8c0-4.1-12.1-2.6-12.1-11.1
				c0-4.5,3.8-7.1,8-7.1c3.2,0,6.4,1.2,8.5,3.7L273.9,194.6z"/>
		</g>
		<g>
			<path class="st0" d="M263.9,154.3c-4.3,0-7.2-3-7.2-7.4s3-7.4,7.2-7.4c4.3,0,7.2,3,7.2,7.4C271.1,151.3,268.1,154.3,263.9,154.3z
				 M263.9,140.4c-3.4,0-6.2,2.3-6.2,6.5c0,4.2,2.8,6.5,6.2,6.5c3.5,0,6.2-2.3,6.2-6.5C270.1,142.7,267.3,140.4,263.9,140.4z
				 M266,150.9l-2.5-3.5h-0.8v3.4h-1.4v-8.1h2.5c1.7,0,2.9,0.8,2.9,2.4c0,1.2-0.7,1.9-1.7,2.2l2.3,3.3L266,150.9z M263.8,143.8h-1.1
				v2.4h1c0.9,0,1.5-0.4,1.5-1.2C265.3,144.3,264.8,143.8,263.8,143.8z"/>
			<g>
				<g>
					<g>
						<path class="st0" d="M246.8,133.5V61.5c0-17.5-3.3-27.3-12.7-35.8C225.3,17.5,210.7,13,191,13c-19,0-35.1,4.5-46.6,13.1
							c10.4,8.3,17.3,20.5,18.6,36.6c0-13.6,9.4-19.2,23.4-19.2c15.7,0,20.2,11,20.4,20.1l0.1,4.4c-43.4,2.1-84.2,10.2-83.4,49.9
							c0.6,27.8,25.7,39.2,43,39.1c20.1,0,31.3-5.4,42.4-19.1c0.2,5.8,0.9,11.9,1.9,16.4h38.9C247.4,147.5,246.8,140.6,246.8,133.5z
							 M201.4,119.3c-4.6,7.1-12,11.5-20.2,11.5c-11.2,0-20.5-5.1-20.5-17.2c0-17.9,26.1-24.2,46.1-25.4v5.3
							C206.9,105.1,206.7,111.3,201.4,119.3z"/>
					</g>
				</g>
				<g>
					<path class="st1" d="M123.4,117.9c-0.1-3,0.1-5.9,0.5-8.6c-1.8,10-9.8,15-20,15c-20.2,0-25.9-15.2-25.9-41.2
						c0-25.6,6.1-39.5,25.8-39.5c12.2,0,21.1,6.6,21.1,19.2H163C160.3,29.8,134.2,13,102.5,13c-43.6,0-69.3,30.8-69.3,73.4
						c0,40.9,24.8,70.6,66.8,70.6c12.2,0,26.1-3,37.3-10.1C129.5,140.5,123.7,131,123.4,117.9z"/>
				</g>
			</g>
		</g>
	</g>
</g>
</svg>
