<?xml version="1.0" encoding="utf-8"?>
<!-- Generator: Adobe Illustrator 19.2.1, SVG Export Plug-In . SVG Version: 6.00 Build 0)  -->
<svg version="1.1" id="Layer_1" xmlns="http://www.w3.org/2000/svg" xmlns:xlink="http://www.w3.org/1999/xlink" x="0px" y="0px"
	 viewBox="0 0 216 216" style="enable-background:new 0 0 216 216;" xml:space="preserve">
<style type="text/css">
	.st0{fill:#FFFFFF;}
</style>
<rect x="58" y="58" width="100" height="100"/>
<g>
	<path class="st0" d="M80.3,118.7l-1,0.8c-0.5-0.7-1.2-1.3-2-1.6c-0.8-0.4-1.6-0.6-2.5-0.6c-1,0-1.9,0.2-2.8,0.7
		c-0.9,0.5-1.5,1.1-2,1.9c-0.5,0.8-0.7,1.7-0.7,2.7c0,1.5,0.5,2.8,1.6,3.8c1.1,1,2.4,1.5,4,1.5c1.8,0,3.2-0.7,4.4-2.1l1,0.8
		c-0.6,0.8-1.4,1.4-2.4,1.9c-0.9,0.4-2,0.7-3.1,0.7c-2.2,0-3.9-0.7-5.2-2.2c-1.1-1.2-1.6-2.7-1.6-4.5c0-1.8,0.6-3.4,1.9-4.7
		c1.3-1.3,2.9-1.9,4.9-1.9c1.2,0,2.2,0.2,3.2,0.7C78.9,117.2,79.7,117.9,80.3,118.7z"/>
	<path class="st0" d="M87.9,116.4l5.9,12.6h-1.4l-2-4.1h-5.4l-2,4.1h-1.4l6-12.6H87.9z M87.8,119.1l-2.2,4.6h4.3L87.8,119.1z"/>
	<path class="st0" d="M95.8,116.4h2.5c1.4,0,2.4,0.1,2.9,0.2c0.7,0.2,1.3,0.5,1.8,1.1c0.5,0.6,0.7,1.2,0.7,2.1
		c0,0.8-0.2,1.5-0.7,2.1c-0.4,0.5-1.1,0.9-1.8,1.1c-0.6,0.1-1.6,0.2-3.2,0.2H97v5.9h-1.3V116.4z M97,117.6v4.3l2.1,0
		c0.9,0,1.5-0.1,1.9-0.2c0.4-0.2,0.7-0.4,0.9-0.8c0.2-0.4,0.3-0.7,0.3-1.2c0-0.4-0.1-0.8-0.3-1.2c-0.2-0.4-0.5-0.6-0.9-0.7
		s-1-0.2-1.8-0.2H97z"/>
	<path class="st0" d="M117.9,118.7l-1,0.8c-0.5-0.7-1.2-1.3-2-1.6c-0.8-0.4-1.6-0.6-2.5-0.6c-1,0-1.9,0.2-2.8,0.7
		c-0.9,0.5-1.5,1.1-2,1.9c-0.5,0.8-0.7,1.7-0.7,2.7c0,1.5,0.5,2.8,1.6,3.8c1.1,1,2.4,1.5,4,1.5c1.8,0,3.2-0.7,4.4-2.1l1,0.8
		c-0.6,0.8-1.4,1.4-2.4,1.9c-0.9,0.4-2,0.7-3.1,0.7c-2.2,0-3.9-0.7-5.2-2.2c-1.1-1.2-1.6-2.7-1.6-4.5c0-1.8,0.6-3.4,1.9-4.7
		c1.3-1.3,2.9-1.9,4.9-1.9c1.2,0,2.2,0.2,3.2,0.7C116.5,117.2,117.3,117.9,117.9,118.7z"/>
	<path class="st0" d="M126.4,116.1c1.9,0,3.5,0.6,4.8,1.9c1.3,1.3,1.9,2.8,1.9,4.7c0,1.8-0.6,3.4-1.9,4.7s-2.8,1.9-4.7,1.9
		c-1.9,0-3.4-0.6-4.7-1.9c-1.3-1.3-1.9-2.8-1.9-4.6c0-1.2,0.3-2.3,0.9-3.4c0.6-1,1.4-1.8,2.4-2.4
		C124.2,116.4,125.3,116.1,126.4,116.1z M126.5,117.3c-0.9,0-1.8,0.2-2.7,0.7c-0.8,0.5-1.5,1.1-2,2c-0.5,0.8-0.7,1.7-0.7,2.8
		c0,1.5,0.5,2.8,1.6,3.8c1,1,2.3,1.5,3.8,1.5c1,0,1.9-0.2,2.7-0.7c0.8-0.5,1.5-1.1,1.9-1.9c0.5-0.8,0.7-1.7,0.7-2.7
		c0-1-0.2-1.9-0.7-2.7c-0.5-0.8-1.1-1.5-2-1.9C128.3,117.5,127.4,117.3,126.5,117.3z"/>
</g>
</svg>
