<?xml version="1.0" encoding="utf-8"?>
<!-- Generator: Adobe Illustrator 19.2.1, SVG Export Plug-In . SVG Version: 6.00 Build 0)  -->
<svg version="1.1" id="Layer_1" xmlns="http://www.w3.org/2000/svg" xmlns:xlink="http://www.w3.org/1999/xlink" x="0px" y="0px"
	 viewBox="0 0 288 288" style="enable-background:new 0 0 288 288;" xml:space="preserve">
<style type="text/css">
	.st0{fill:#A7A9AC;}
</style>
<path class="st0" d="M135.6,153.7c0,3.3-3.8,6.3-7.2,6.3c-2.2,0-4-1.4-4-2.2c0-0.5,0.2-2.1,0.9-2.1c1.2,0,2.4,2.6,4.8,2.6
	c1.5,0,2.9-1,2.9-2.6c0-2.2-3.8-4.2-3.8-7.7c0-3.6,3.9-8,7.4-8c1.8,0,2.5,1,2.5,1.9c0,0.7-0.6,1.6-1.6,1.6c-1.4,0-2.3-1.1-3.7-1.1
	c-1.5,0-2.4,1-2.4,2.8C131.6,147.8,135.6,150.2,135.6,153.7"/>
<path class="st0" d="M64.3,154.6c-2,2.3-4.7,5.3-7.5,5.3c-1.1,0-1.4-0.5-1.4-1.4c0-2.4,5-10.8,5-13.8c0-1-0.3-1.5-1.4-1.5
	c-3.1,0-9.5,8.1-11.8,15.7c-0.1,0.5-0.5,0.6-1.7,0.6c-1.2,0-1.4-0.1-1.4-0.6c0-0.8,4.5-11.8,6.6-17.9c1.8-5.1,3.3-9,3.3-10.1
	c0-0.5-0.3-0.9-1.3-1c-0.4-0.1-1.1-0.1-1.3-0.1c0,0-0.1-0.1-0.1-0.1V129c0-0.1,0-0.1,0.1-0.1h5.9c0.5,0,0.6,0.1,0.6,0.5
	c0,0.3-1.3,4.4-4.2,11.8c-2,5.2-3,7.1-2.6,7.1c0.5,0,5.4-8.3,9.6-8.3c1.7,0,2.8,1.1,2.8,3.5c0,3.9-4,11.8-4,12.6
	c0,0.4,0.2,0.5,0.7,0.5c0.7,0,2.4-1.8,3.3-2.7c0.1-0.1,0.1,0,0.2,0l0.5,0.5C64.3,154.5,64.3,154.6,64.3,154.6"/>
<path class="st0" d="M43.3,155.4c-0.5,1-3.8,4.5-7.7,4.5c-4,0-5.3-3-5.4-5.6c-0.4-7.8,8.8-14.4,14.1-14.4c2.6,0,3.7,1.7,3.7,3
	c0,0.8-0.6,1.4-1.2,1.4c-1.6,0-2.1-3.2-4.2-3.2c-3,0-9.1,8.6-8.9,13.2c0.1,2.5,1.9,3.6,3.5,3.6c1.8,0,3.4-1.2,4.3-2
	c0.6-0.4,1.2-1.1,1.3-1.2c0,0,0.1,0,0.1,0l0.4,0.5C43.4,155.3,43.4,155.4,43.3,155.4"/>
<path class="st0" d="M86.7,145.5l0.4,0.4c0,0,0.1,0,0.2,0c0-0.1,0.1-0.1,0.2-0.2c0.7-0.8,2.3-2.9,3.1-2.9c0.4,0,0.7,0.4,0.7,1.2
	c0,2.8-4.7,14.3-4.7,15.1c0,0.4,0.2,0.5,0.4,0.5h1.7c0.3,0,0.4-0.2,0.7-0.7c0,0,0.9-2,1.3-3c3.6-7.3,5.4-10.8,6.8-12.1
	c3.1-3,2.7-0.1,4.1,0c1,0.1,1.6-1,1.6-2.2c0-1.3-0.9-1.7-1.6-1.7c-2.8,0-4.8,2.6-8.3,8.7c-0.3,0.5-0.4,0.8-0.6,0.8
	c-0.1,0-0.2,0-0.2-0.3c0-0.5,1.6-6.4,1.6-7.6c0-1-0.5-1.4-1.4-1.4c-1.7,0-5.1,3.7-6.2,5.4C86.6,145.4,86.6,145.4,86.7,145.5"/>
<path class="st0" d="M70.1,157.2c-0.9,0-1.4-0.4-1.4-2c0-5.5,4.6-13.8,9.2-13.8c1.7,0,2.4,1.2,2.4,2.6
	C80.2,146.3,73.9,157.2,70.1,157.2 M84.2,140.4l-1.1-0.7c-0.1-0.1-0.3-0.2-0.4-0.1c-0.6,0.2-0.6,1.1-1.3,1.1c-0.7,0-1.4-0.3-2.7-0.3
	c-8.8,0-13.3,11.9-13.3,15.8c0,2.6,1.4,3.8,3,3.8c2,0,4.4-1,7.5-5.6c0.8-1.1,0.8-1.4,1-1.4c0.1,0,0.2,0.1,0.2,0.3
	c0,0.4-1.4,2.8-1.4,4.8c0,1.2,0.5,1.8,1.5,1.8c2.5,0,5.4-3.7,6.5-5.3c0,0,0-0.1,0-0.1l-0.5-0.6c-0.1-0.1-0.1,0-0.2,0
	c-1,1-2.6,3.3-3.5,3.3c-0.4,0-0.6-0.1-0.6-0.8c0-1.7,5.4-14.6,5.5-15.6C84.5,140.7,84.4,140.5,84.2,140.4z"/>
<path class="st0" d="M116.6,147c0.6-1.1,3.7-6.1,6.3-6.1c1,0,1.7,0.9,1.7,1.9C124.6,145.5,121.2,147,116.6,147 M123.2,155.3
	l-0.4-0.5c0,0-0.1,0-0.1,0c-1,0.7-3.3,2.8-5.6,2.8c-2.1,0-3.3-1.4-3.3-3.4c0-2.6,1.2-4.7,2.1-6.1c0.6,0.1,1.1,0.1,2.2,0.1
	c3,0,9.3-1.3,9.3-5.1c0-1.6-1.4-3.1-3.9-3.1c-5.5,0-13.5,7.6-13.5,14.7c0,3.2,2.1,5.3,5.1,5.3c3.6,0,7.2-3.3,8.1-4.5
	C123.2,155.4,123.2,155.3,123.2,155.3z"/>
<path class="st0" d="M108.6,154.7c-1.6,2-4.2,5.3-6.5,5.3c-1.6,0-2.4-0.9-2.3-2.6c0.1-2.5,5.3-15.3,5.7-16.2c2-5.1,3.7-9.1,3.7-10.1
	c0-0.5-0.3-0.9-1.2-1c-0.4-0.1-1.1-0.1-1.3-0.1c0,0-0.1-0.1-0.1-0.1l0-0.8c0-0.1,0.1-0.1,0.1-0.1h5.9c0.5,0,0.6,0.1,0.6,0.4
	c0,0.3-1.7,4.4-4.6,11.9c-2.5,6.6-5.1,13.8-5.2,15.1c0,0.5,0.2,0.7,0.7,0.7c0.8,0,1.9-1.1,3.7-3.1c0-0.1,0.1,0,0.2,0l0.5,0.6
	C108.6,154.6,108.6,154.6,108.6,154.7"/>
<path d="M154.1,145.1c-0.5-1.7-1.4-3.7-3.9-3.7c-1.9,0-3,1.4-3,3.1c0,1.6,1.2,2.7,3.4,3.7l0.8,0.4c2.3,1,4.4,2.6,4.4,5.6
	c0,3.5-2.7,5.9-6.7,5.9c-1.1,0-2.2-0.2-2.9-0.5c-0.8-0.3-1.3-0.5-1.7-0.6c-0.2-0.8-0.6-2.7-0.9-4.5l0.9-0.3c0.6,1.5,2.2,4.8,5.2,4.8
	c1.9,0,3.1-1.5,3.1-3.3c0-1.6-0.8-2.8-3.1-3.9l-0.9-0.5c-1.9-1-4.4-2.5-4.4-5.4c0-3.1,2.3-5.6,6.2-5.6c0.8,0,1.8,0.1,2.7,0.4
	c0.5,0.2,0.9,0.2,1.2,0.4c0.1,1,0.3,2.3,0.6,3.9L154.1,145.1"/>
<path d="M174.2,145.6c-0.9-3.3-2.8-4.3-5.5-4.3c-4.8,0-6.9,4-6.9,8.3c0,5.4,2.7,9.2,6.9,9.2c3.2,0,4.6-1.6,6.1-4.7l0.8,0.2
	c-0.4,1.4-1,3.7-1.5,4.8c-0.8,0.2-3.4,0.9-5.5,0.9c-7.6,0-10.7-5-10.7-9.6c0-6.1,4.7-10.2,11.3-10.2c2.5,0,4.4,0.6,5.3,0.8
	c0.2,1.6,0.4,2.9,0.5,4.6L174.2,145.6"/>
<path d="M185.3,140.6v0.8c-2.2,0.2-2.4,0.4-2.4,3.6v3.9h8.9V145c0-3.2-0.2-3.4-2.5-3.6v-0.8h8.3v0.8c-2.3,0.2-2.6,0.4-2.6,3.6v10.2
	c0,3.2,0.2,3.4,2.5,3.6v0.8h-8.5v-0.8c2.5-0.2,2.7-0.4,2.7-3.6v-5h-8.9v5c0,3.2,0.2,3.4,2.5,3.6v0.8H177v-0.8
	c2.3-0.2,2.6-0.4,2.6-3.6V145c0-3.2-0.2-3.4-2.7-3.6v-0.8H185.3"/>
<path d="M213.6,140.8l5.1,13.9h0.1c1.1-3.6,2.5-9,2.9-10.9c0.5-1.8,0.2-2.2-1-2.3c-0.2,0-1-0.1-1-0.1v-0.8h6.7v0.8
	c-1.9,0.2-2.1,0.4-3.1,3c-0.4,1.2-2.5,7.3-4.9,15.4h-1.3l-5-13.7h-0.1l-4.6,13.7h-1.3l-4.8-15.5c-0.8-2.5-1.3-2.7-2.9-2.9v-0.8h7.9
	v0.8c0,0-0.7,0-0.9,0.1c-1.1,0.1-1.4,0.4-1,1.9l3.4,11.4h0.1l4.4-13.9H213.6"/>
<path d="M232.5,140.5l-5.9,15.3c-1,2.6-1.3,2.7-3.2,3v0.8h6.5v-0.8l-0.8-0.1c-1.3-0.1-1.5-0.5-1-2.1c0.4-1.2,0.9-2.9,1.3-3.7h5.4
	c0.6,1.5,1.3,3.3,1.6,4.2c0.4,1.1,0.3,1.4-0.8,1.6l-0.8,0.1v0.8h7.7v-0.8c-1.7-0.2-2.1-0.4-3.1-3c-1.1-2.9-2.4-6.5-3.7-10.1l-2-5.3
	L232.5,140.5 M232.1,145.1L232.1,145.1l2.4,6.4h-4.6L232.1,145.1z"/>
<path d="M250.2,149.9c3,0,5.1,1.4,5.1,4.4c0,3-2,4.1-3.9,4.1c-1.9,0.1-2.2-0.5-2.2-3.3v-5.2H250.2 M243.7,140.6v0.8
	c2.1,0.2,2.3,0.4,2.3,3.6v10.2c0,3.2-0.2,3.4-2.5,3.6v0.8h7.3c2.1,0,4.2-0.3,5.6-1.2c1.6-1,2.6-2.3,2.6-4.4c0-2.9-2.3-4.5-5.3-4.9
	v-0.1c1.7-0.3,4.1-1.7,4.1-4.2c0-1.5-0.6-2.6-1.6-3.3c-1-0.7-2.2-1-4.5-1H243.7z M249.2,143.2c0-0.7,0-1.2,0.2-1.3
	c0.2-0.1,0.6-0.1,1.3-0.1c1.8,0,3.7,0.9,3.7,3.6c0,2.5-1.6,3.6-4.1,3.6h-1.2V143.2z"/>
</svg>
