<?xml version="1.0" encoding="utf-8"?>
<!-- Generator: Adobe Illustrator 19.2.1, SVG Export Plug-In . SVG Version: 6.00 Build 0)  -->
<svg version="1.1" id="svg3358" xmlns="http://www.w3.org/2000/svg" xmlns:xlink="http://www.w3.org/1999/xlink" x="0px" y="0px"
	 viewBox="0 0 800 450" style="enable-background:new 0 0 800 450;" xml:space="preserve">
<style type="text/css">
	.st0{fill:#C4122E;}
	.st1{fill:#15495D;}
</style>
<path id="path268" class="st0" d="M271,418.8h-32.6V289.5H271V418.8z"/>
<g id="g272">
	<g id="g278" transform="translate(134.9958,727.2001)">
		<path id="path280" class="st0" d="M399.1-400.6c-1.3-0.7-11.8-6.9-27.5-6.9c-21.1,0-35.7,14.7-35.7,34.5c0,19.2,14,34.5,35.7,34.5
			c15.3,0,26-6.1,27.5-6.9v34.7c-4.1,1.1-15.2,4.6-29.7,4.6c-36.7,0-68.9-25.3-68.9-67c0-38.6,29.2-66.9,68.9-66.9
			c15.3,0,26.6,3.7,29.7,4.6V-400.6z"/>
	</g>
	<g id="g282" transform="translate(102.0426,727.2001)">
		<path id="path284" class="st0" d="M91.5-400.6c-1.3-0.7-11.8-6.9-27.4-6.9c-21.1,0-35.8,14.7-35.8,34.5c0,19.2,14,34.5,35.8,34.5
			c15.3,0,26-6.1,27.4-6.9v34.7c-4.1,1.1-15.2,4.6-29.8,4.6c-36.7,0-68.9-25.3-68.9-67c0-38.6,29.2-66.9,68.9-66.9
			c15.4,0,26.7,3.7,29.8,4.6V-400.6z"/>
	</g>
	<g id="g286" transform="translate(144.9274,727.8212)">
		<path id="path288" class="st0" d="M491.9-407.7c-19.4,0-33.7,15.2-33.7,34c0,18.8,14.4,34,33.7,34c19.3,0,33.8-15.2,33.8-34
			C525.6-392.4,511.2-407.7,491.9-407.7 M560.2-373.7c0,37-28.6,67-68.3,67s-68.3-30-68.3-67c0-36.9,28.5-66.9,68.3-66.9
			S560.2-410.6,560.2-373.7"/>
	</g>
	<g id="g290" transform="translate(121.5124,727.9413)">
		<path id="path292" class="st0" d="M273.2-409c-0.5-0.2-14.2-3.9-25.5-3.9c-13.1,0-20.2,4.4-20.2,10.6c0,7.9,9.6,10.6,15,12.3
			l9,2.9c21.2,6.7,30.8,21.2,30.8,37c0,32.5-28.6,43.4-53.5,43.4c-17.4,0-33.6-3.2-35.2-3.5v-29.8c2.9,0.7,16.6,4.8,30.8,4.8
			c16.2,0,23.7-4.7,23.7-12.1c0-6.6-6.5-10.3-14.6-12.9c-2-0.7-4.9-1.6-7-2.3c-18.2-5.7-33.3-16.4-33.3-37.8
			c0-24.2,18.1-40.4,48.2-40.4c15.9,0,30.8,3.9,31.8,4.1V-409z"/>
	</g>
	<g id="g294" transform="translate(89.154,744.2304)">
		<path id="path296" class="st1" d="M-28.9-593.7c0-8.9-7.3-16.1-16.2-16.1s-16.2,7.2-16.2,16.1v33.9c0,9,7.3,16.2,16.2,16.2
			s16.2-7.2,16.2-16.2V-593.7z"/>
	</g>
	<g id="g298" transform="translate(97.7633,748.5409)">
		<path id="path300" class="st1" d="M51.5-642.6c0-8.9-7.3-16.2-16.2-16.2c-8.9,0-16.2,7.2-16.2,16.2v78.5c0,9,7.3,16.2,16.2,16.2
			c8.9,0,16.2-7.2,16.2-16.2V-642.6z"/>
	</g>
	<g id="g302" transform="translate(106.3727,754.4384)">
		<path id="path304" class="st1" d="M131.9-709.4c0-8.9-7.3-16.1-16.2-16.1c-8.9,0-16.2,7.2-16.2,16.1v171.7c0,9,7.3,16.2,16.2,16.2
			c8.9,0,16.2-7.2,16.2-16.2V-709.4z"/>
	</g>
	<g id="g306" transform="translate(114.9821,748.5409)">
		<path id="path308" class="st1" d="M212.3-642.6c0-8.9-7.3-16.2-16.2-16.2c-8.9,0-16.2,7.2-16.2,16.2v78.5c0,9,7.3,16.2,16.2,16.2
			c8.9,0,16.2-7.2,16.2-16.2V-642.6z"/>
	</g>
	<g id="g310" transform="translate(123.5817,744.2304)">
		<path id="path312" class="st1" d="M292.6-593.7c0-8.9-7.2-16.1-16.1-16.1c-8.9,0-16.2,7.2-16.2,16.1v33.9c0,9,7.3,16.2,16.2,16.2
			c8.9,0,16.1-7.2,16.1-16.2V-593.7z"/>
	</g>
	<g id="g314" transform="translate(132.195,748.5409)">
		<path id="path316" class="st1" d="M373-642.6c0-8.9-7.2-16.2-16.1-16.2c-8.9,0-16.2,7.2-16.2,16.2v78.5c0,9,7.2,16.2,16.2,16.2
			c8.9,0,16.1-7.2,16.1-16.2V-642.6z"/>
	</g>
	<g id="g318" transform="translate(140.8102,754.4384)">
		<path id="path320" class="st1" d="M453.4-709.4c0-8.9-7.2-16.1-16.1-16.1c-8.9,0-16.2,7.2-16.2,16.1v171.7c0,9,7.2,16.2,16.2,16.2
			c8.9,0,16.1-7.2,16.1-16.2V-709.4z"/>
	</g>
	<g id="g322" transform="translate(149.4235,748.5409)">
		<path id="path324" class="st1" d="M533.9-642.6c0-8.9-7.2-16.2-16.4-16.2c-8.9,0-16.1,7.2-16.1,16.2v78.5c0,9,7.2,16.2,16.1,16.2
			c9.1,0,16.4-7.2,16.4-16.2V-642.6z"/>
	</g>
	<g id="g326" transform="translate(158.0192,744.2304)">
		<path id="path328" class="st1" d="M614.1-593.7c0-8.9-7.2-16.1-16.2-16.1c-8.9,0-16.2,7.2-16.2,16.1v33.9c0,9,7.2,16.2,16.2,16.2
			c8.9,0,16.2-7.2,16.2-16.2V-593.7z"/>
	</g>
	<g id="g330" transform="translate(156.2126,719.9218)">
		<path id="path332" class="st0" d="M597.3-318.1v2h-5.8v15h-2.4v-15h-5.8v-2H597.3z"/>
	</g>
	<g id="g334" transform="translate(156.3297,719.9218)">
		<path id="path336" class="st0" d="M598.3-318.1h3.7l5.1,14h0.1l4.9-14h3.6v17h-2.4v-14h-0.1l-5.2,14h-2.2l-5-14h-0.1v14h-2.4
			V-318.1z"/>
	</g>
</g>
</svg>
