<?xml version="1.0" encoding="utf-8"?>
<!-- Generator: Adobe Illustrator 19.2.1, SVG Export Plug-In . SVG Version: 6.00 Build 0)  -->
<svg version="1.1" id="VARG" xmlns="http://www.w3.org/2000/svg" xmlns:xlink="http://www.w3.org/1999/xlink" x="0px" y="0px"
	 viewBox="0 0 165.3 124.8" style="enable-background:new 0 0 165.3 124.8;" xml:space="preserve">
<style type="text/css">
	.st0{fill:#0093D1;}
	.st1{fill:#00539B;}
</style>
<g>
	<path class="st0" d="M87.1,44.9c0-22.9-25.7-37.1-79.9-41.6h0C5,3.3,3.3,4.8,3.3,6.8v77.1c0,1.9,1.8,3.5,3.9,3.5h3.6
		C43.1,83.2,66,74.8,77.8,64.2C84,58.6,87.1,52.2,87.1,44.9z"/>
	<path class="st1" d="M148.9,3.3h-31.5c6.8,2.3,12.5,6.1,16.9,9.9c4.6,4,7.6,8.5,9,13.5c2.4,9-1.1,18.4-9.7,25.8
		c-11.5,9.8-29.4,18-53.1,24.2c-13.6,3.6-29.2,7.8-46,10.8h114.3c2.2,0,3.9-1.6,3.9-3.5V6.8C152.8,4.8,151.1,3.3,148.9,3.3z"/>
	<path class="st1" d="M14.4,104.5c-0.9-1-2.2-1.5-3.8-1.5H6.5v16.2h4.1c1.6,0,2.8-0.5,3.8-1.5c1.2-1.3,1.2-3.7,1.2-6.8
		C15.6,107.9,15.5,105.8,14.4,104.5z M16.7,120.2c-1.4,1.4-3.4,2.1-5.8,2.1H3.1V100h7.8c2.3,0,4.4,0.7,5.8,2.1
		c2.4,2.4,2.3,5.7,2.3,8.9S19.1,117.8,16.7,120.2z"/>
	<rect x="28.3" y="100" class="st1" width="3.4" height="22.3"/>
	<path class="st1" d="M50,103h-5v7h5c2.3,0,3.8-1.3,3.8-3.5S52.3,103,50,103z M54,122.3l-4.7-9.4H45v9.4h-3.4V100h8.6
		c4.2,0,6.9,2.7,6.9,6.5c0,3.2-1.9,5.2-4.4,5.9l5.1,9.9H54z"/>
	<polygon class="st1" points="66.5,122.3 66.5,100 80.8,100 80.8,103 69.9,103 69.9,109.6 79.2,109.6 79.2,112.6 69.9,112.6 
		69.9,119.3 80.8,119.3 80.8,122.3 	"/>
	<path class="st1" d="M96.6,122.5c-2.3,0-4.3-0.8-5.9-2.4c-2.2-2.2-2.2-4.7-2.2-9c0-4.3,0-6.8,2.2-9c1.5-1.5,3.5-2.4,5.9-2.4
		c4.1,0,7.2,2.4,8,6.9h-3.4c-0.5-2.3-2-3.8-4.5-3.8c-1.3,0-2.5,0.5-3.3,1.3c-1.1,1.2-1.3,2.5-1.3,6.9c0,4.5,0.3,5.8,1.3,6.9
		c0.8,0.8,2,1.3,3.3,1.3c2.5,0,4-1.6,4.5-3.8h3.4C103.8,120.1,100.6,122.5,96.6,122.5z"/>
	<polygon class="st1" points="123.2,104.9 123.2,122.3 117.7,122.3 117.7,104.9 112.2,104.9 112.2,100 128.6,100 128.6,104.9 	"/>
	<polygon class="st1" points="146.6,122.3 142.6,122.3 135.2,100 140.9,100 144.6,112.5 148.3,100 154,100 	"/>
	<path class="st1" d="M159.1,102.3h0.4c0.4,0,0.9,0,0.9-0.5c0-0.4-0.4-0.5-0.7-0.5h-0.5L159.1,102.3L159.1,102.3z M158.5,100.9h1.2
		c0.7,0,1.1,0.3,1.1,1c0,0.6-0.4,0.9-0.8,0.9l0.9,1.3h-0.6l-0.9-1.3h-0.3v1.3h-0.6L158.5,100.9L158.5,100.9z M159.6,104.8
		c1.3,0,2.2-0.9,2.2-2.2s-0.9-2.2-2.2-2.2s-2.2,0.9-2.2,2.2S158.3,104.8,159.6,104.8z M159.6,99.8c1.5,0,2.8,1.2,2.8,2.8
		s-1.2,2.8-2.8,2.8c-1.5,0-2.8-1.2-2.8-2.8S158,99.8,159.6,99.8z"/>
</g>
</svg>
