<?xml version="1.0" encoding="utf-8"?>
<!DOCTYPE svg PUBLIC "-//W3C//DTD SVG 1.1//EN" "http://www.w3.org/Graphics/SVG/1.1/DTD/svg11.dtd">
<svg version="1.1" id="VARG" xmlns="http://www.w3.org/2000/svg" xmlns:xlink="http://www.w3.org/1999/xlink" x="0px" y="0px"
 width="165.346px" height="124.752px" viewBox="0 0 165.346 124.752" enable-background="new 0 0 165.346 124.752"
 xml:space="preserve">
<g>
<path fill="#0093D1" d="M87.093,44.854C87.064,21.912,61.435,7.782,7.173,3.251H7.168c-2.16,0-3.913,1.569-3.913,3.505v77.116
c0,1.936,1.753,3.506,3.913,3.506h3.552c32.403-4.137,55.264-12.59,67.116-23.215C83.987,58.643,87.103,52.153,87.093,44.854z"/>
<path fill="#00539B" d="M148.916,3.251h-31.453c6.796,2.261,12.492,6.085,16.928,9.876c4.613,3.951,7.631,8.482,8.986,13.479
c2.434,9-1.094,18.393-9.707,25.767c-11.477,9.848-29.355,17.999-53.134,24.243c-13.576,3.568-29.165,7.807-45.956,10.762h114.335
c2.162,0,3.913-1.57,3.913-3.506V6.756C152.829,4.821,151.078,3.251,148.916,3.251z"/>
<path fill="#00539B" d="M14.381,104.544c-0.938-1.031-2.19-1.502-3.787-1.502H6.493v16.215h4.101c1.597,0,2.849-0.469,3.787-1.5
c1.158-1.285,1.191-3.695,1.191-6.764C15.572,107.927,15.539,105.829,14.381,104.544z M16.699,120.198
c-1.41,1.406-3.444,2.096-5.762,2.096H3.112v-22.289h7.825c2.317,0,4.352,0.689,5.762,2.098c2.411,2.412,2.254,5.666,2.254,8.891
S19.11,117.786,16.699,120.198z"/>
<rect x="28.271" y="100.005" fill="#00539B" width="3.381" height="22.289"/>
<path fill="#00539B" d="M50.046,103.042h-5.008v6.98h5.008c2.254,0,3.787-1.283,3.787-3.475S52.3,103.042,50.046,103.042z
 M53.958,122.294l-4.695-9.391h-4.225v9.391h-3.381v-22.289h8.639c4.227,0,6.918,2.725,6.918,6.512
c0,3.193-1.938,5.229-4.445,5.918l5.137,9.859H53.958z"/>
<polygon fill="#00539B" points="66.517,122.294 66.517,100.005 80.759,100.005 80.759,103.042 69.896,103.042 69.896,109.554 
79.162,109.554 79.162,112.558 69.896,112.558 69.896,119.257 80.759,119.257 80.759,122.294 "/>
<path fill="#00539B" d="M96.573,122.483c-2.317,0-4.321-0.846-5.854-2.379c-2.192-2.193-2.161-4.666-2.161-8.955
c0-4.287-0.031-6.76,2.161-8.953c1.532-1.533,3.536-2.377,5.854-2.377c4.101,0,7.167,2.408,7.951,6.855h-3.444
c-0.531-2.256-2.033-3.82-4.507-3.82c-1.315,0-2.505,0.5-3.287,1.346c-1.095,1.191-1.347,2.475-1.347,6.949
c0,4.477,0.252,5.762,1.347,6.949c0.782,0.848,1.972,1.348,3.287,1.348c2.474,0,4.007-1.564,4.538-3.82h3.413
C103.773,120.071,100.613,122.483,96.573,122.483z"/>
<polygon fill="#00539B" points="123.166,104.89 123.166,122.294 117.687,122.294 117.687,104.89 112.21,104.89 112.21,100.005 
128.644,100.005 128.644,104.89 "/>
<polygon fill="#00539B" points="146.623,122.294 142.552,122.294 135.195,100.005 140.861,100.005 144.62,112.466 148.312,100.005 
154.009,100.005 "/>
<path fill="#00539B" d="M159.083,102.327h0.385c0.445,0,0.854-0.031,0.854-0.455c0-0.377-0.369-0.461-0.73-0.461h-0.508V102.327z
 M158.528,100.903h1.23c0.746,0,1.117,0.301,1.117,0.969c0,0.648-0.377,0.895-0.832,0.947l0.932,1.332h-0.646l-0.932-1.316h-0.314
v1.316h-0.555V100.903z M159.582,104.837c1.255,0,2.187-0.932,2.187-2.232s-0.932-2.232-2.187-2.232s-2.187,0.932-2.187,2.232
S158.327,104.837,159.582,104.837z M159.582,99.817c1.54,0,2.786,1.248,2.786,2.787s-1.246,2.787-2.786,2.787
c-1.538,0-2.786-1.248-2.786-2.787S158.043,99.817,159.582,99.817z"/>
</g>
</svg>
