<?xml version="1.0" encoding="utf-8"?>
<!-- Generator: Adobe Illustrator 19.2.1, SVG Export Plug-In . SVG Version: 6.00 Build 0)  -->
<svg version="1.1" id="Layer_1" xmlns="http://www.w3.org/2000/svg" xmlns:xlink="http://www.w3.org/1999/xlink" x="0px" y="0px"
	 viewBox="0 0 170 19" style="enable-background:new 0 0 170 19;" xml:space="preserve">
<style type="text/css">
	.st0{fill:#0079C1;}
</style>
<path d="M15.5,3.4h-5.2V14h3.1v-3.8h2.7c3.1,0,4.9-1.5,4.9-3.5C21.1,4.6,19.4,3.4,15.5,3.4 M17.9,6.8c0,0.7-0.4,1.7-2.2,1.7h-2.2
	V5.2h2.2C17.5,5.2,17.9,6.1,17.9,6.8z"/>
<path d="M111.8,5.6c-1.2,0-2.3,0.4-2.9,1h0V3.4h-2.6V14h2.6V8.4c0.6-0.7,1.5-1,2.1-1c1.9,0,1.9,1.2,1.9,2.8V14h2.6V9.4
	C115.5,7.5,115,5.6,111.8,5.6"/>
<path d="M87.6,5.6c-1.2,0-2.3,0.4-3,1h0V5.8H82V14h2.6V8.4c0.6-0.7,1.5-1,2.2-1c1.9,0,1.9,1.2,1.9,2.8V14h2.6V9.4
	C91.3,7.5,90.8,5.6,87.6,5.6"/>
<path d="M104.3,12c-0.7,0.2-1.9,0.4-3.4,0.4c-2.8,0-4.4-1.5-4.4-3.7c0-2.2,1.7-3.7,4.1-3.8c1.1,0,2.2,0.1,2.9,0.3l1.1-1.6
	c-1.2-0.3-2.8-0.4-4.2-0.4c-4.5,0-7.2,2.3-7.2,5.5c0,3.8,3.6,5.4,7.2,5.5c1.1,0,2.6-0.1,3.8-0.4V12"/>
<polyline points="30.7,11 28,3.4 23,3.4 23,14 26,14 26,5.6 26.2,5.6 29.3,14 32.1,14 35.2,5.6 35.4,5.6 35.4,14 38.4,14 38.4,3.4 
	33.4,3.4 30.7,11 "/>
<path d="M50.9,9.9c0-2.9-2.3-4.4-5.4-4.4c-3,0-5.4,1.5-5.4,4.4c0,2.9,2.3,4.4,5.4,4.4C48.5,14.3,50.9,12.8,50.9,9.9 M48.1,9.9
	c0,1.6-0.8,2.7-2.6,2.7c-1.7,0-2.6-1.1-2.6-2.7c0-1.6,0.8-2.7,2.6-2.7C47.2,7.2,48.1,8.3,48.1,9.9z"/>
<path d="M64.3,12.4c-1.5,0-2.3-1.2-2.3-2.5c0-1.3,0.6-2.6,2.4-2.6c1.5,0,2.2,1.1,2.2,2.5C66.6,11.1,66,12.4,64.3,12.4 M66.7,5.8v0.8
	h0c-0.6-0.6-1.5-1-3-1c-3.1,0-4.4,2.2-4.4,4.2c0,2.4,1.4,4.2,4.2,4.3c1.4,0.1,2.6-0.6,3.1-1.1h0c0,0,0,0.2,0,0.3
	c0,1.3-0.5,2.5-3.1,2.5c-1,0-2.2-0.2-3.3-0.7v1.9c1.1,0.4,2.3,0.5,3.7,0.5c4.3,0,5.3-2.3,5.3-4.5V5.8H66.7z"/>
<path d="M77.3,11.8c-0.8,0.6-1.7,0.8-2.4,0.9c-0.9,0-1.5-0.3-1.5-1.1c0-1,1.5-1.2,3.1-1.2h0.9L77.3,11.8 M79.9,8.9
	c0-2.1-1.3-3.2-4.3-3.2c-1,0-2.4,0.1-3.6,0.4v1.6c1-0.3,2.1-0.5,3-0.5c1.3,0,2.3,0.2,2.3,1.8h-1.3c-1.1,0-2.6,0.1-3.4,0.4
	c-1,0.3-1.9,1-1.9,2.2c0,1.9,1.7,2.6,3.6,2.6c1.4,0,2.4-0.3,3.1-1h0V14h2.4V8.9z"/>
<path d="M123.7,11.8c-0.8,0.6-1.7,0.8-2.5,0.9c-0.9,0-1.5-0.3-1.5-1.1c0-1,1.5-1.2,3.1-1.2h0.9L123.7,11.8 M126.2,8.9
	c0-2.1-1.3-3.2-4.3-3.2c-1,0-2.4,0.1-3.6,0.4v1.6c1-0.3,2.1-0.5,3-0.5c1.3,0,2.3,0.2,2.3,1.8h-1.3c-1.1,0-2.6,0.1-3.4,0.4
	c-0.9,0.3-1.9,1-1.9,2.2c0,1.9,1.7,2.6,3.6,2.6c1.4,0,2.4-0.3,3.1-1h0V14h2.4V8.9z"/>
<path d="M4.6,3.4v6.5c0,1.5-0.7,2.4-2.2,2.4c-0.5,0-1.5,0-2.4-0.2v2c0.9,0.1,2,0.2,2.9,0.2c3,0,4.8-1.6,4.8-4V3.4H4.6"/>
<path d="M145.1,12.2c-1,0.3-1.7,0.4-2.7,0.4c-1.7,0-2.9-0.6-3-2h6.7c0-0.4,0-0.9,0-1.3c-0.2-2.1-1.5-3.7-4.6-3.7
	c-3.2,0-4.6,2.1-4.6,4.4c0,3,2.3,4.2,5.2,4.2c1.2,0,2.1-0.2,3-0.4L145.1,12.2 M141.6,7.2c1.2,0,1.9,0.7,2,1.6c0,0.1,0,0.3,0,0.4
	h-4.4C139.4,8.1,140.2,7.2,141.6,7.2z"/>
<path d="M132.1,5.6c-2,0-4,0.6-4,2.5c0,1.6,1.4,2.1,2.9,2.5c1.6,0.4,2.2,0.5,2.2,1.1c0,0.6-0.6,0.9-2,0.9c-0.9,0-2.2-0.2-3-0.6v1.7
	c1.4,0.4,2.4,0.4,3.3,0.4c2.3,0,4.3-0.6,4.3-2.6c0-1.6-1.2-2.2-3-2.7c-1.4-0.3-2.1-0.5-2.1-1c0-0.6,0.7-0.8,1.8-0.8
	c0.8,0,1.7,0.2,2.2,0.4l1-1.4C134.8,5.9,133.6,5.6,132.1,5.6"/>
<path d="M57.8,5.6c-1.1,0-2.2,0.3-2.8,1.4h0V5.8h-2.5V14h2.7v-4c0-0.9,0.1-1.4,0.3-1.7c0.3-0.5,0.7-0.8,1.4-0.9c0.4,0,0.9,0,1.3,0.2
	l1.2-1.7C58.9,5.7,58.4,5.6,57.8,5.6"/>
<path class="st0" d="M157.6,0c-0.3,0-0.6,0.3-0.6,0.6v4.3h11.4L163.2,0H157.6"/>
<path class="st0" d="M168.8,6.2c0-0.3-0.3-0.6-0.6-0.6h-4.3V17l4.9-5.2L168.8,6.2"/>
<path class="st0" d="M162.6,17.5c0.3,0,0.6-0.3,0.6-0.6v-4.3h-11.4l5.2,4.9L162.6,17.5"/>
<path class="st0" d="M151.3,11.2c0,0.3,0.3,0.6,0.6,0.6h4.3V0.4l-4.9,5.2V11.2"/>
</svg>
