<?xml version="1.0" encoding="utf-8"?>
<!-- Generator: Adobe Illustrator 19.2.1, SVG Export Plug-In . SVG Version: 6.00 Build 0)  -->
<svg version="1.1" id="Layer_1" xmlns="http://www.w3.org/2000/svg" xmlns:xlink="http://www.w3.org/1999/xlink" x="0px" y="0px"
	 viewBox="0 0 1728 396" style="enable-background:new 0 0 1728 396;" xml:space="preserve">
<style type="text/css">
	.st0{fill:#005288;enable-background:new    ;}
	.st1{enable-background:new    ;}
	.st2{fill:#005288;}
</style>
<g>
	<path class="st0" d="M179.3,169.5c-9.4,30.8-18.2,47.9-53.8,47.9c-27.8,0-35.8-1.7-35.8-23.6V45.5c0-17.4,3.3-19,27.7-20.3v-5.7
		H24.3v5.7c20.9,1,24.8,3,24.8,20.3v153.4c0,17.2-5.2,19.8-24.8,21v6.3h157c0.2-3.4,3.7-52.8,3.9-56.7H179.3z"/>
	<path class="st0" d="M334,178.8C325.7,206.1,318,219,287,219c-28.5,0-32.8-2.8-32.8-21.4v-57.1h27.6c18.2,0,21.9,7.1,25.4,24.3h5.9
		v-55.7h-5.9c-3.4,16.4-7,23.2-25.4,23.2h-27.6V72c0-8.7,2.4-11.2,10.9-11.2h19.4c27.5,0,33.4,10.2,40.1,34.8h6V53.7H199V59
		c17.5,0.8,20.8,2.6,20.8,17.3v126.9c0,14.7-3.3,16.4-20.8,17.3v5.6h136.9c0.3-3.2,3.7-43.5,4-47.3H334z"/>
	<path class="st0" d="M522.3,153.7V148h-72.4v5.6c19.3,1.3,23,3.1,23,17v37.5c0,4.6-0.8,10.3-7.3,12.7c-4.7,1.7-10.3,2.5-16.6,2.5
		c-53.6,0-56.3-70.9-56.3-85.2c0-24.6,5.4-81.7,55.2-81.7c25,0,42,15.4,50.9,45.6h6v-42c-14.9-6.9-35.3-11-56.3-11
		c-85,0-94.2,64.7-94.2,92.5c0,35.1,10.8,60.4,32.1,75c18.7,12.3,43.9,13.7,61.3,13.7c20.4,0,44.4-5.6,59.9-11.3
		c0-2.7,0-48.8,0-48.8C507.5,157.3,510.4,155.1,522.3,153.7z"/>
	<path class="st0" d="M707.9,153.7V148h-72.4v5.6c19.3,1.3,23,3.1,23,17v37.5c0,4.6-0.8,10.3-7.3,12.7c-4.7,1.7-10.3,2.5-16.6,2.5
		c-53.6,0-56.3-70.9-56.3-85.2c0-24.6,5.4-81.7,55.2-81.7c25,0,42,15.4,50.9,45.6h6v-42c-14.9-6.9-35.3-11-56.3-11
		c-85,0-94.1,64.7-94.1,92.5c0,35.1,10.8,60.4,32.1,75c18.7,12.3,43.9,13.7,61.3,13.7c20.4,0,44.4-5.6,59.9-11.3
		c0-2.7,0-48.8,0-48.8C693,157.3,696,155.1,707.9,153.7z"/>
	<path class="st0" d="M1269.8,230.4c57.7,0,63.9-36.8,63.9-52.6c0-33.2-23.2-42.9-47.7-53.3l-1.6-0.7c-18.4-8.3-37.4-16.8-37.4-37.3
		c0-18,12-30.1,29.8-30.1c14,0,32.3,7.3,40.4,41h5.7V59.7c-11.1-6.4-28.8-10.6-45.5-10.6c-38.2,0-60.1,18.6-60.1,51
		c0,30.7,21.2,42.1,49,53.8c18.6,7.7,35.8,17.6,35.8,38c0,19.7-12.1,31.4-32.2,31.4c-21.5,0-39.1-17.9-48.7-49.2h-5.6
		c0.3,3.8,3.3,40.5,3.4,42.2C1234.2,229.4,1261.7,230.4,1269.8,230.4z"/>
	<path class="st0" d="M1437.6,49.1h-0.3c-54.1,0-83.8,32.3-83.8,90.9c0,58.3,29.8,90.4,83.8,90.4c53.9,0,83.6-32.1,83.6-90.4
		C1520.9,81.4,1491.3,49.1,1437.6,49.1z M1437.3,223.3c-46,0-46-62.7-46-83.3c0-55.4,15.4-83.6,45.7-83.6h0.3
		c30.3,0,45.7,28.1,45.7,83.6C1483,160.7,1483,223.3,1437.3,223.3z"/>
	<path class="st0" d="M1703.9,59.3c0,0,1-0.1,1.9-0.2v-5.4h-58.1v5.3c1.8,0.1,4.5,0.3,4.5,0.3c11.2,0.6,19.3,1.1,20.9,15.6
		c1,8.6,1.4,17.8,1.4,38l0,70l-0.9-0.3l-14.1-20.5c-24.6-36-50.1-73.2-73.4-108.5h-54.7V59c17.5,0.8,20.8,2.6,20.8,17.3v89.9
		c0,20.8-0.3,29.7-1.4,38.3c-1.6,14.2-8.1,14.8-18.7,15.7c0,0-1,0.1-2,0.2v5.7h58.4v-5.6c-1.8-0.1-4.4-0.3-4.4-0.3
		c-11.1-0.7-19.1-1.1-20.7-15.6c-1-8.8-1.4-18.1-1.4-38.3V76.7h0.8l3.6,5.3c28.1,41.6,57.6,86.1,95.6,144.2h22.6
		c0-3.8,0-113.1,0-113.1c0-20.3,0.3-29.5,1.4-38C1687.4,60.8,1693.3,60.2,1703.9,59.3z"/>
	<path class="st0" d="M978.3,35.7l1,0v164.5c0,17.1-3.6,19-24.8,20v6h133.1v-5.7c-3.9-0.3-13-1.2-13-1.2c-3.2-0.3-5.2-1.2-6.4-2.9
		c-0.8-1.1-1.1-2.5-1.1-3.9c0-1.6,0.4-3.4,0.9-5.1c2.6-10.1,6-20.8,9.6-32.1l4.1-13.2l55.3,0l2.2,6.3c0,0,12.9,38.6,12.9,38.5
		c0.8,2.1,1.2,3.9,1.2,5.4c0,1.4-0.3,2.6-1,3.6c-1.2,1.9-3.4,3-6.7,3.3c0,0-9.5,0.9-12.2,1.2v5.7h75.7v-5.6
		c-12.5-0.7-16.8-2.7-20.9-13.8l0,0c-13.1-35.5-39-112.8-52.5-154h-27.1c-11,33.2-37.2,111.3-53,152.4c-5,13-13.9,14.9-18.7,14.9
		c-11.7,0-18.9-3.3-18.9-19.8V45.3c0-17.1,4-19.2,24.8-20.2v-5.7h-68.7c-1,2.5-43.1,112.6-43.1,112.6l-12.3,31.9h-1l-22.4-55.3
		c0,0-35-86.8-35.9-89.3h-71.7v5.7c21.2,1.3,24.8,3.2,24.8,20.1c0,0-0.4,110.6-0.4,110.6c0,0,0,7.7,0,9.1c0,17-0.1,27-1.2,36.2
		c-2,17.1-10,17.7-23.3,18.6c0,0-0.9,0.1-1.8,0.1v6.1h70.2v-6c-1.8-0.1-4.3-0.3-4.3-0.3c-13.5-0.8-23.2-1.4-25.1-18.5
		c-1.2-10.2-2.1-21.9-2.1-45.3l0.5-120.3l0.6,0l4.1,10.4c15.8,39.6,47.4,123.5,68,179.4h11.4c0.9-2.5,14.9-40.9,14.9-40.9
		L978.3,35.7z M1108.7,75.9h0.8l8.7,27.5l16.2,51.1h-47.6l-2.7,0L1108.7,75.9z"/>
	<g class="st1">
		<path class="st2" d="M94.6,371.3c-5.8,2.3-14.1,3.9-20.4,3.9c-6.4,0-14.3-0.7-20.6-5c-6.4-4.5-11.2-12.7-11.2-25.3
			c0-7.3,1.5-15,6.4-21.2c4.6-6,12.7-10.5,25.8-10.5c6.8,0,14.3,1.1,19.2,3.7v14.9h-3c-2.2-8.2-6.8-14.9-16.3-14.9
			c-15.5,0-19,16.4-19,26.6c0,7.8,1.9,28.2,18.9,28.2c2.7,0,4.6-0.3,6.2-0.9c1.5-0.6,2.1-1.5,2.1-3.8v-11.9c0-4.3-0.6-4.6-8-5.2V347
			H100v2.9c-4.7,0.5-5.3,0.9-5.3,5.1V371.3z"/>
		<path class="st2" d="M124,371c6.6-0.3,7.1-0.6,7.1-5.2v-43.1c0-4.6-0.5-4.8-7.1-5.2v-3h26.6v3c-7.1,0.3-7.6,0.6-7.6,5.2v40.9
			c0,3.8,0.7,5.6,2.5,6.2c1.9,0.5,4.4,0.6,7.6,0.6c9.6,0,12-3.4,14.6-13h3.1l-1,16.6H124V371z"/>
		<path class="st2" d="M193.6,367.1c-4.9-5.2-7.5-13-7.5-22.8c0-9.8,2.6-17.6,7.5-22.8c4.8-5.3,12-8.2,21.6-8.2
			c9.7,0,16.8,2.8,21.7,8.2c4.9,5.2,7.4,13,7.4,22.8c0,9.8-2.5,17.6-7.4,22.8c-4.9,5.3-12,8.2-21.7,8.2
			C205.6,375.3,198.4,372.4,193.6,367.1z M231.1,344.3c-0.2-11.6-2.4-27.4-15.9-27.4c-13.5,0-15.7,15.8-15.9,27.4
			c0.2,12,2.4,27.4,15.9,27.4C228.7,371.7,230.9,356.3,231.1,344.3z"/>
		<path class="st2" d="M265.7,371c6.6-0.3,7.1-0.6,7.1-5.2v-43.1c0-4.6-0.5-4.8-7.1-5.2v-3h27c6.8-0.1,12.2,0.9,15.8,3.2
			c3.7,2.3,5.7,5.8,5.7,10.9c0,6.9-4.5,11.5-12.7,13.2v0.2c8.1,1.2,15.2,5.8,15.2,15.5c0,5.2-1.6,9.3-5.2,12.1
			c-3.6,2.7-9.3,4.3-17.7,4.3h-28V371z M289.4,340.6c8.5,0,12.5-4.2,12.6-11.3c0.1-7.2-4.4-11.1-11.7-11.1c-4.5,0.1-5.7,0.4-5.7,3.6
			v18.8H289.4z M284.6,364.5c0,4.6,1.7,5.9,7,5.9c6.4,0,11.9-2.7,12-12.4c0-7.9-4.6-13.7-14-13.7h-5V364.5z"/>
		<path class="st2" d="M334.5,371c5-0.2,5.8-0.9,7.4-5c2.4-6.2,5.5-15.5,8.4-23.8l9.6-27.6h9.2l17.4,51.9c1.3,3.9,2.3,4.3,7,4.5v3
			h-25.2v-3l4.6-0.3c2.1-0.2,2.5-1.3,1.8-3.4l-5-15H352c-1.6,5.5-3.3,10.4-4.5,15.2c-0.5,2.1-0.4,3.1,1.7,3.3l4.9,0.3v3h-19.7V371z
			 M368.4,348.4l-7.4-23.1h-0.3c-0.9,2.8-6.4,20-7.5,23.1H368.4z"/>
		<path class="st2" d="M412.9,371c6.6-0.3,7.1-0.6,7.1-5.2v-43.1c0-4.6-0.5-4.8-7.1-5.2v-3h26.6v3c-7.1,0.3-7.6,0.6-7.6,5.2v40.9
			c0,3.8,0.7,5.6,2.5,6.2c1.9,0.5,4.4,0.6,7.6,0.6c9.6,0,12-3.4,14.6-13h3.1l-1,16.6h-45.7V371z"/>
		<path class="st2" d="M509.3,371c5-0.2,5.8-0.9,7.4-5c2.4-6.2,5.5-15.5,8.4-23.8l9.6-27.6h9.2l17.4,51.9c1.3,3.9,2.3,4.3,7,4.5v3
			H543v-3l4.6-0.3c2.1-0.2,2.5-1.3,1.8-3.4l-5-15h-17.6c-1.6,5.5-3.3,10.4-4.5,15.2c-0.5,2.1-0.4,3.1,1.7,3.3l4.9,0.3v3h-19.7V371z
			 M543.2,348.4l-7.4-23.1h-0.3c-0.9,2.8-6.4,20-7.5,23.1H543.2z"/>
		<path class="st2" d="M622,330.5c-2.1-9.6-7-13.6-12.8-13.6c-6.1,0-9.9,3.9-9.9,9.5c0,6.3,6.4,9.4,11.9,11.6l2.6,1
			c8.1,3.3,14.9,8.1,14.9,17.9c0,9.3-5.4,18.2-22,18.3c-5.8,0-13.7-1.4-17.9-5.2l-1.1-14.8h3c2.9,10.3,9,16.4,16.1,16.4
			c6.4,0,10.6-3.5,10.6-10.2c0-6.2-4.3-9.8-10.2-12.2l-1.9-0.8c-8.2-3.2-16.7-8.1-16.7-18c0-9.9,6.8-17.2,20.9-17.2
			c5.2,0,11.5,1.2,15.5,3.8v13.4H622z"/>
		<path class="st2" d="M687.7,330.5c-2.1-9.6-7-13.6-12.8-13.6c-6.1,0-9.9,3.9-9.9,9.5c0,6.3,6.4,9.4,11.9,11.6l2.6,1
			c8.1,3.3,14.9,8.1,14.9,17.9c0,9.3-5.4,18.2-22,18.3c-5.7,0-13.7-1.4-17.9-5.2l-1.1-14.8h3c2.9,10.3,9,16.4,16.1,16.4
			c6.4,0,10.7-3.5,10.7-10.2c0-6.2-4.3-9.8-10.2-12.2l-1.9-0.8c-8.2-3.2-16.7-8.1-16.7-18c0-9.9,6.8-17.2,20.9-17.2
			c5.2,0,11.5,1.2,15.5,3.8v13.4H687.7z"/>
		<path class="st2" d="M718.4,371c6.6-0.3,7.1-0.6,7.1-5.2v-43.1c0-4.6-0.5-4.8-7.1-5.2v-3h45.2v15.2h-3.1
			c-2.1-8.6-3.8-11.6-13-11.6h-7.1c-2.6,0-3.1,0.6-3.1,3.1v19.7h9.5c6.1,0,7-1.7,8.1-7.6h3v19.2h-3c-1.1-5.9-2-7.6-8.1-7.6h-9.5
			v18.6c0,3.8,0.7,5.6,2.5,6.2c1.9,0.5,4.4,0.6,8.2,0.6c10.3,0,12.7-3.5,15.4-13.1h3l-1,16.7h-47.1V371z"/>
		<path class="st2" d="M800.7,371l5.2-0.4c3.1-0.3,3.5-1.4,3.5-4.6v-47.7h-4c-8.7,0-10,3-12.3,11.8h-3v-15.5h50.5V330h-3
			c-2.2-8.8-3.6-11.8-12.3-11.8h-4v47.7c0,3.3,0.4,4.4,3.5,4.6l5.2,0.4v3h-29.2V371z"/>
		<path class="st2" d="M902.6,371l3.1-0.3c2.1-0.3,3.1-1.5,3.4-4.4c0.3-2.9,0.4-6.3,0.4-12.4v-31.2c0-4.6-0.5-4.8-7.1-5.2v-3h20.9
			l16.7,41.4h0.2l16.6-41.4h20.2v3c-6.6,0.3-7.1,0.6-7.1,5.2v43.1c0,4.5,0.5,4.8,7.1,5.2v3h-25.7v-3c6.6-0.3,7.1-0.6,7.1-5.2v-43
			h-0.3l-19.5,49.8h-4.2l-19.7-49.8h-0.3v31.1c0,6,0.2,9.4,0.5,12.4c0.3,2.8,1.3,4,3.7,4.3l4.5,0.4v3h-20.5V371z"/>
		<path class="st2" d="M995.3,371c5-0.2,5.8-0.9,7.4-5c2.4-6.2,5.5-15.5,8.4-23.8l9.6-27.6h9.2l17.4,51.9c1.3,3.9,2.3,4.3,7,4.5v3
			h-25.2v-3l4.6-0.3c2.1-0.2,2.5-1.3,1.8-3.4l-5-15h-17.6c-1.6,5.5-3.3,10.4-4.5,15.2c-0.5,2.1-0.4,3.1,1.7,3.3l4.9,0.3v3h-19.7V371
			z M1029.2,348.4l-7.4-23.1h-0.3c-0.9,2.8-6.4,20-7.5,23.1H1029.2z"/>
		<path class="st2" d="M1092.1,314.6c9.6,14.4,19.5,28.8,29.4,43.3l0.3,0.1v-23.3c0-6-0.2-9.4-0.5-12.4c-0.3-2.8-1.3-4-3.7-4.3
			l-4.6-0.4v-3h20.5v3l-3.1,0.3c-2.1,0.3-3.1,1.5-3.4,4.4c-0.3,2.9-0.4,6.3-0.4,12.4V374h-8.2c-10.9-16.4-21.9-32.8-33.1-49.3h-0.3
			v29.2c0,6,0.2,9.4,0.5,12.4c0.3,2.8,1.3,4,3.7,4.3l4.6,0.4v3h-20.5v-3l3.1-0.3c2.1-0.3,3.1-1.5,3.4-4.4c0.3-2.9,0.4-6.3,0.4-12.4
			v-31.2c0-4.6-0.5-4.8-7.1-5.2v-3H1092.1z"/>
		<path class="st2" d="M1149.2,371c5-0.2,5.8-0.9,7.4-5c2.4-6.2,5.5-15.5,8.4-23.8l9.6-27.6h9.2l17.4,51.9c1.3,3.9,2.3,4.3,7,4.5v3
			h-25.2v-3l4.6-0.3c2.1-0.2,2.5-1.3,1.8-3.4l-5-15h-17.6c-1.6,5.5-3.3,10.4-4.5,15.2c-0.5,2.1-0.4,3.1,1.7,3.3l4.9,0.3v3h-19.7V371
			z M1183.1,348.4l-7.4-23.1h-0.3c-0.9,2.8-6.4,20-7.5,23.1H1183.1z"/>
		<path class="st2" d="M1275.6,371.3c-5.8,2.3-14.1,3.9-20.4,3.9c-6.4,0-14.3-0.7-20.6-5c-6.4-4.5-11.2-12.7-11.2-25.3
			c0-7.3,1.5-15,6.4-21.2c4.6-6,12.7-10.5,25.8-10.5c6.8,0,14.3,1.1,19.2,3.7v14.9h-3c-2.2-8.2-6.8-14.9-16.3-14.9
			c-15.5,0-19,16.4-19,26.6c0,7.8,1.9,28.2,18.9,28.2c2.7,0,4.6-0.3,6.2-0.9c1.5-0.6,2.1-1.5,2.1-3.8v-11.9c0-4.3-0.6-4.6-8-5.2V347
			h25.2v2.9c-4.7,0.5-5.3,0.9-5.3,5.1V371.3z"/>
		<path class="st2" d="M1304.9,371c6.6-0.3,7.1-0.6,7.1-5.2v-43.1c0-4.6-0.5-4.8-7.1-5.2v-3h45.2v15.2h-3.1
			c-2.1-8.6-3.8-11.6-13-11.6h-7.1c-2.6,0-3.1,0.6-3.1,3.1v19.7h9.5c6.1,0,7-1.7,8.1-7.6h3v19.2h-3c-1.1-5.9-2-7.6-8.1-7.6h-9.5
			v18.6c0,3.8,0.7,5.6,2.5,6.2c1.9,0.5,4.4,0.6,8.2,0.6c10.3,0,12.7-3.5,15.4-13.1h3l-1,16.7h-47V371z"/>
		<path class="st2" d="M1377.7,371l3.1-0.3c2.1-0.3,3.1-1.5,3.4-4.4c0.3-2.9,0.4-6.3,0.4-12.4v-31.2c0-4.6-0.5-4.8-7.1-5.2v-3h20.9
			L1415,356h0.2l16.6-41.4h20.2v3c-6.6,0.3-7.1,0.6-7.1,5.2v43.1c0,4.5,0.5,4.8,7.1,5.2v3h-25.7v-3c6.6-0.3,7.1-0.6,7.1-5.2v-43
			h-0.3l-19.5,49.8h-4.2l-19.7-49.8h-0.3v31.1c0,6,0.2,9.4,0.5,12.4c0.3,2.8,1.3,4,3.7,4.3l4.6,0.4v3h-20.5V371z"/>
		<path class="st2" d="M1477.6,371c6.6-0.3,7.1-0.6,7.1-5.2v-43.1c0-4.6-0.5-4.8-7.1-5.2v-3h45.2v15.2h-3.1
			c-2.1-8.6-3.8-11.6-13-11.6h-7.1c-2.6,0-3.1,0.6-3.1,3.1v19.7h9.5c6.1,0,7-1.7,8.1-7.6h3v19.2h-3c-1.1-5.9-2-7.6-8.1-7.6h-9.5
			v18.6c0,3.8,0.7,5.6,2.5,6.2c1.9,0.5,4.4,0.6,8.2,0.6c10.3,0,12.7-3.5,15.4-13.1h3l-1,16.7h-47V371z"/>
		<path class="st2" d="M1569.1,314.6c9.6,14.4,19.5,28.8,29.4,43.3l0.3,0.1v-23.3c0-6-0.2-9.4-0.5-12.4c-0.3-2.8-1.3-4-3.7-4.3
			l-4.5-0.4v-3h20.5v3l-3.1,0.3c-2.1,0.3-3.1,1.5-3.4,4.4c-0.3,2.9-0.4,6.3-0.4,12.4V374h-8.2c-10.9-16.4-21.9-32.8-33.1-49.3h-0.3
			v29.2c0,6,0.2,9.4,0.5,12.4c0.3,2.8,1.3,4,3.7,4.3l4.5,0.4v3h-20.5v-3l3.1-0.3c2.1-0.3,3.1-1.5,3.4-4.4c0.3-2.9,0.4-6.3,0.4-12.4
			v-31.2c0-4.6-0.5-4.8-7.1-5.2v-3H1569.1z"/>
		<path class="st2" d="M1644.3,371l5.2-0.4c3.1-0.3,3.5-1.4,3.5-4.6v-47.7h-4c-8.7,0-10,3-12.3,11.8h-3v-15.5h50.5V330h-3
			c-2.2-8.8-3.6-11.8-12.3-11.8h-4v47.7c0,3.3,0.4,4.4,3.5,4.6l5.2,0.4v3h-29.2V371z"/>
	</g>
</g>
</svg>
