<?xml version="1.0" encoding="utf-8"?>
<!-- Generator: Adobe Illustrator 19.2.1, SVG Export Plug-In . SVG Version: 6.00 Build 0)  -->
<svg version="1.1" id="svg2985" xmlns="http://www.w3.org/2000/svg" xmlns:xlink="http://www.w3.org/1999/xlink" x="0px" y="0px"
	 viewBox="0 0 320 246.9" style="enable-background:new 0 0 320 246.9;" xml:space="preserve">
<style type="text/css">
	.st0{fill:none;stroke:#000000;stroke-width:8.0876;}
	.st1{fill:#4D4D4D;}
</style>
<g id="g3005" transform="translate(1.368041,0.15197169)">
	<path id="path4010" d="M189,31.2c10.7,3.8,18.2,10.5,24.2,15.9c-5,3.1-10.7,6.1-15.9,8.1c-4.5-8.1-9.1-17.5-12.5-24.3L189,31.2z"/>
	<path id="path4012" d="M164.2,27.2l4.4,0.1c9.6,9.9,14.3,19,20,31.5c-10.9,3.4-17.6,4.9-24.2,5.4L164.2,27.2z"/>
	<path id="path4022" d="M164,73.5c10.6-0.8,19.2-3.3,27.2-5.9c4.7,11.3,6.9,22.4,7.2,33.4c-10.8-0.1-21.7-0.3-34.5,0.2V73.5z"/>
	<path id="path4024" d="M200.6,64.1c5.3-2.5,11.1-5.4,18.7-10.3c11.3,13.1,19.6,29.4,18.6,47.7l-28.8-0.5
		C207.9,87.9,204.6,75.9,200.6,64.1L200.6,64.1z"/>
	<path id="path4026" d="M189.5,182.1c10.7-3.8,18.2-10.5,24.2-15.9c-5-3.1-10.7-6.1-15.9-8.1c-4.5,8.1-9.1,17.5-12.5,24.3
		L189.5,182.1z"/>
	<path id="path4028" d="M164.7,186.1l4.4-0.1c9.6-9.9,14.3-19,20-31.5c-10.9-3.4-17.6-4.9-24.2-5.4L164.7,186.1z"/>
	<path id="path4030" d="M164.5,139.7c10.6,0.8,19.2,3.3,27.2,5.9c4.7-11.3,6.9-22.4,7.2-33.4c-10.8,0.1-21.7,0.3-34.5-0.2V139.7z"/>
	<path id="path4032" d="M201.1,149.2c5.3,2.5,11.1,5.4,18.7,10.3c11.3-13.1,19.6-29.4,18.6-47.7l-28.8,0.5
		C208.4,125.4,205.1,137.4,201.1,149.2L201.1,149.2z"/>
	<path id="path4034" d="M129.5,31.7c-10.7,3.8-18.2,10.5-24.2,15.9c5,3.1,10.7,6.1,15.9,8.1c4.5-8.1,9.1-17.5,12.5-24.3L129.5,31.7z
		"/>
	<path id="path4036" d="M154.4,27.7l-4.4,0.1c-9.6,9.9-14.3,19-20,31.5c10.9,3.4,17.6,4.9,24.2,5.4L154.4,27.7z"/>
	<path id="path4038" d="M154.5,74c-10.6-0.8-19.2-3.3-27.2-5.9c-4.7,11.3-6.9,22.4-7.2,33.4c10.8-0.1,21.7-0.3,34.5,0.2V74z"/>
	<path id="path4040" d="M117.9,64.6c-5.3-2.5-11.1-5.4-18.7-10.3c-11.3,13.1-19.6,29.4-18.6,47.7l28.8-0.5
		C110.6,88.4,114,76.4,117.9,64.6z"/>
	<path id="path4042" d="M129,182.6c-10.7-3.8-18.2-10.5-24.2-15.9c5-3.1,10.7-6.1,15.9-8.1c4.5,8.1,9.1,17.5,12.5,24.3L129,182.6z"
		/>
	<path id="path4044" d="M153.9,186.6l-4.4-0.1c-9.6-9.9-14.3-19-20-31.5c10.9-3.4,17.6-4.9,24.2-5.4L153.9,186.6z"/>
	<path id="path4046" d="M154,140.2c-10.6,0.8-19.2,3.3-27.2,5.9c-4.7-11.3-6.9-22.4-7.2-33.4c10.8,0.1,21.7,0.3,34.5-0.2V140.2z"/>
	<path id="path4048" d="M117.4,149.7c-5.3,2.5-11.1,5.4-18.7,10.3c-11.3-13.1-19.6-29.4-18.6-47.7l28.8,0.5
		C110.1,125.9,113.5,137.9,117.4,149.7z"/>
	<path id="path4052" class="st0" d="M251.7,107.2c0.7,51.3-40.5,92.8-91.9,92.8s-93.6-41.6-94.3-92.8c-0.7-51.3,40.5-92.8,91.9-92.8
		S251.1,55.9,251.7,107.2z"/>
</g>
<g id="layer5" transform="translate(-1.2614707,0.15197169)">
	<g id="text4055" transform="translate(-4.8979036,0)">
		<path id="path3025" class="st1" d="M14.7,214.3h19.8v4.2h-7.1v17.3h-5.5v-17.3h-7.1L14.7,214.3"/>
		<path id="path3027" class="st1" d="M37.4,214.3h5.5v8.2h8.2v-8.2h5.5v21.5h-5.5v-9.1h-8.2v9.1h-5.5V214.3"/>
		<path id="path3029" class="st1" d="M62.1,214.3h15v4.2h-9.4v4h8.9v4.2h-8.9v4.9h9.7v4.2H62.1V214.3"/>
		<path id="path3031" class="st1" d="M90.7,214.3h5.3l3.7,15.6l3.7-15.6h5.3l3.7,15.6l3.7-15.6h5.3l-5.1,21.5H110l-3.9-16.4
			l-3.9,16.4h-6.4L90.7,214.3"/>
		<path id="path3033" class="st1" d="M135,217.9c-1.7,0-3,0.6-3.9,1.9c-0.9,1.2-1.4,3-1.4,5.3c0,2.3,0.5,4,1.4,5.3
			c0.9,1.2,2.2,1.9,3.9,1.9c1.7,0,3-0.6,3.9-1.9c0.9-1.2,1.4-3,1.4-5.3c0-2.3-0.5-4-1.4-5.3C138,218.5,136.7,217.9,135,217.9
			 M135,213.9c3.5,0,6.2,1,8.1,3c2,2,2.9,4.7,2.9,8.2c0,3.5-1,6.2-2.9,8.2c-2,2-4.7,3-8.1,3c-3.4,0-6.2-1-8.1-3
			c-2-2-2.9-4.7-2.9-8.2c0-3.5,1-6.2,2.9-8.2C128.8,214.9,131.5,213.9,135,213.9"/>
		<path id="path3035" class="st1" d="M158.1,223.8c1.2,0,2-0.2,2.5-0.6c0.5-0.4,0.8-1.1,0.8-2.1c0-1-0.3-1.7-0.8-2.1
			c-0.5-0.4-1.3-0.6-2.5-0.6h-2.3v5.5H158.1 M155.8,227.6v8.1h-5.5v-21.5h8.5c2.8,0,4.9,0.5,6.2,1.4c1.3,1,2,2.5,2,4.5
			c0,1.4-0.3,2.6-1,3.5c-0.7,0.9-1.7,1.6-3.1,2c0.8,0.2,1.4,0.6,2,1.2c0.6,0.6,1.2,1.5,1.8,2.8l3,6.1h-5.9l-2.6-5.3
			c-0.5-1.1-1.1-1.8-1.6-2.2c-0.5-0.4-1.3-0.6-2.2-0.6H155.8"/>
		<path id="path3037" class="st1" d="M172.9,214.3h5.5v17.3h9.7v4.2h-15.3V214.3"/>
		<path id="path3039" class="st1" d="M197.3,218.5v13.1h2c2.3,0,4-0.6,5.2-1.7c1.2-1.1,1.8-2.8,1.8-4.9c0-2.1-0.6-3.8-1.8-4.9
			c-1.2-1.1-2.9-1.7-5.2-1.7H197.3 M191.7,214.3h5.9c3.3,0,5.7,0.2,7.3,0.7c1.6,0.5,3,1.2,4.1,2.4c1,1,1.8,2.1,2.2,3.4
			c0.5,1.3,0.7,2.7,0.7,4.3c0,1.6-0.2,3.1-0.7,4.4c-0.5,1.3-1.2,2.4-2.2,3.4c-1.2,1.1-2.5,1.9-4.2,2.4c-1.6,0.5-4,0.7-7.3,0.7h-5.9
			L191.7,214.3"/>
		<path id="path3041" class="st1" d="M235.1,222.6c0.9,0,1.5-0.2,2-0.6c0.5-0.4,0.7-1,0.7-1.7c0-0.7-0.2-1.3-0.7-1.7
			c-0.5-0.4-1.1-0.6-2-0.6h-3.1v4.6H235.1 M235.3,232c1.1,0,2-0.2,2.5-0.7c0.6-0.5,0.9-1.2,0.9-2.1c0-0.9-0.3-1.6-0.8-2.1
			c-0.6-0.5-1.4-0.7-2.5-0.7h-3.3v5.6H235.3 M240.5,224.3c1.2,0.3,2.1,1,2.8,1.9c0.7,0.9,1,2.1,1,3.4c0,2.1-0.7,3.6-2.1,4.6
			c-1.4,1-3.5,1.5-6.4,1.5h-9.2v-21.5h8.3c3,0,5.2,0.5,6.5,1.4c1.3,0.9,2,2.3,2,4.3c0,1-0.2,1.9-0.7,2.7
			C242.1,223.4,241.4,223.9,240.5,224.3"/>
		<path id="path3043" class="st1" d="M262.1,231.9h-8.7l-1.4,3.9h-5.6l8-21.5h6.6l8,21.5h-5.6L262.1,231.9 M254.8,227.9h5.9
			l-2.9-8.6L254.8,227.9"/>
		<path id="path3045" class="st1" d="M271.8,214.3h6.2l7.8,14.8v-14.8h5.3v21.5h-6.2l-7.8-14.8v14.8h-5.3V214.3"/>
		<path id="path3047" class="st1" d="M296.6,214.3h5.5v7.9l8-7.9h6.4l-10.4,10.2l11.4,11.3h-6.9l-8.6-8.5v8.5h-5.5L296.6,214.3"/>
	</g>
</g>
</svg>
