<?xml version="1.0" encoding="UTF-8" standalone="no"?>
<!-- Created with Inkscape (http://www.inkscape.org/) -->

<svg
   xmlns:dc="http://purl.org/dc/elements/1.1/"
   xmlns:cc="http://creativecommons.org/ns#"
   xmlns:rdf="http://www.w3.org/1999/02/22-rdf-syntax-ns#"
   xmlns:svg="http://www.w3.org/2000/svg"
   xmlns="http://www.w3.org/2000/svg"
   version="1.1"
   width="320"
   height="246.85753"
   id="svg2985"
   style="display:inline">
  <metadata
     id="metadata2991">
    <rdf:RDF>
      <cc:Work
         rdf:about="">
        <dc:format>image/svg+xml</dc:format>
        <dc:type
           rdf:resource="http://purl.org/dc/dcmitype/StillImage" />
        <dc:title></dc:title>
      </cc:Work>
    </rdf:RDF>
  </metadata>
  <defs
     id="defs2989" />
  <path
     d="M 0,123.42877 0,0 l 160,0 160,0 0,123.42877 0,123.42876 -160,0 -160,0 0,-123.42876 z"
     id="path3114"
     style="fill:#fdfdfd" />
  <g
     transform="translate(-1.2614707,0.15197169)"
     id="layer4"
     style="display:inline" />
  <path
     d="m 931.67424,188.75208 c 1.44699,-0.0251 3.81478,-0.0251 5.26177,0 1.44698,0.0251 0.26309,0.0456 -2.63089,0.0456 -2.89397,0 -4.07787,-0.0205 -2.63088,-0.0456 z"
     id="path3164"
     style="fill:#000000;fill-opacity:1" />
  <path
     d="m 936.09718,188.76522 c 0.10485,-0.0423 0.27643,-0.0423 0.38128,0 0.10486,0.0423 0.0191,0.0769 -0.19064,0.0769 -0.20971,0 -0.2955,-0.0346 -0.19064,-0.0769 z"
     id="path3166"
     style="fill:#000000;fill-opacity:1" />
  <g
     transform="translate(1.368041,0.15197169)"
     id="g3005">
    <path
       d="m 188.99051,31.165809 c 10.71676,3.799253 18.20529,10.489973 24.16789,15.883883 -5.04357,3.06662 -10.71592,6.08416 -15.85355,8.125 -4.5042,-8.09501 -9.08421,-17.4641 -12.5,-24.28033 z"
       id="path4010"
       style="fill:#000000;fill-opacity:1;stroke:none" />
    <path
       d="m 164.1584,27.174692 4.375,0.125 c 9.63373,9.93774 14.30401,19.0168 20,31.5 -10.86908,3.37098 -17.64457,4.85977 -24.25,5.375 z"
       id="path4012"
       style="fill:#000000;fill-opacity:1;stroke:none" />
    <path
       d="m 164.0334,73.549692 c 10.63261,-0.84841 19.24789,-3.27919 27.25,-5.875 4.71274,11.30162 6.86729,22.40646 7.25,33.374998 -10.81441,-0.1452 -21.7246,-0.25847 -34.5,0.25 z"
       id="path4022"
       style="fill:#000000;fill-opacity:1;stroke:none" />
    <path
       d="m 200.60855,64.121242 c 5.31925,-2.49083 11.08354,-5.42669 18.73832,-10.25305 11.26154,13.11794 19.61209,29.39334 18.56155,47.729698 l -28.8146,-0.53032 c -1.15525,-13.152028 -4.52403,-25.197298 -8.48527,-36.946328 z"
       id="path4024"
       style="fill:#000000;fill-opacity:1;stroke:none" />
    <path
       d="m 189.49051,182.10677 c 10.71676,-3.79925 18.20529,-10.48997 24.16789,-15.88388 -5.04357,-3.06662 -10.71592,-6.08416 -15.85355,-8.125 -4.5042,8.09501 -9.08421,17.4641 -12.5,24.28033 z"
       id="path4026"
       style="fill:#000000;fill-opacity:1;stroke:none" />
    <path
       d="m 164.6584,186.09789 4.375,-0.125 c 9.63373,-9.93774 14.30401,-19.0168 20,-31.5 -10.86908,-3.37098 -17.64457,-4.85977 -24.25,-5.375 z"
       id="path4028"
       style="fill:#000000;fill-opacity:1;stroke:none" />
    <path
       d="m 164.5334,139.72289 c 10.63261,0.84841 19.24789,3.27919 27.25,5.875 4.71274,-11.30162 6.86729,-22.40646 7.25,-33.375 -10.81441,0.1452 -21.7246,0.25847 -34.5,-0.25 z"
       id="path4030"
       style="fill:#000000;fill-opacity:1;stroke:none" />
    <path
       d="m 201.10855,149.15134 c 5.31925,2.49083 11.08354,5.42669 18.73832,10.25305 11.26154,-13.11794 19.61209,-29.39334 18.56155,-47.7297 l -28.8146,0.53032 c -1.15525,13.15203 -4.52403,25.1973 -8.48527,36.94633 z"
       id="path4032"
       style="fill:#000000;fill-opacity:1;stroke:none" />
    <path
       d="m 129.54052,31.665812 c -10.71676,3.79925 -18.20529,10.48997 -24.16789,15.88388 5.04357,3.06662 10.71592,6.08416 15.85355,8.125 4.5042,-8.09501 9.08421,-17.4641 12.5,-24.28033 z"
       id="path4034"
       style="fill:#000000;fill-opacity:1;stroke:none" />
    <path
       d="m 154.37263,27.674692 -4.375,0.125 c -9.63373,9.93774 -14.30401,19.0168 -20,31.5 10.86908,3.37098 17.64457,4.85977 24.25,5.375 z"
       id="path4036"
       style="fill:#000000;fill-opacity:1;stroke:none" />
    <path
       d="m 154.49763,74.049692 c -10.63261,-0.84841 -19.24789,-3.27919 -27.25,-5.875 -4.71274,11.30162 -6.86729,22.40646 -7.25,33.374998 10.81441,-0.1452 21.7246,-0.25847 34.5,0.25 z"
       id="path4038"
       style="fill:#000000;fill-opacity:1;stroke:none" />
    <path
       d="m 117.92248,64.621242 c -5.31925,-2.49083 -11.08354,-5.42669 -18.738324,-10.25305 -11.26154,13.11794 -19.61209,29.39334 -18.56155,47.729698 l 28.814604,-0.53032 c 1.15525,-13.152028 4.52403,-25.197298 8.48527,-36.946328 z"
       id="path4040"
       style="fill:#000000;fill-opacity:1;stroke:none" />
    <path
       d="m 129.04052,182.60677 c -10.71676,-3.79925 -18.20529,-10.48997 -24.16789,-15.88388 5.04357,-3.06662 10.71592,-6.08416 15.85355,-8.125 4.5042,8.09501 9.08421,17.4641 12.5,24.28033 z"
       id="path4042"
       style="fill:#000000;fill-opacity:1;stroke:none" />
    <path
       d="m 153.87263,186.59789 -4.375,-0.125 c -9.63373,-9.93774 -14.30401,-19.0168 -20,-31.5 10.86908,-3.37098 17.64457,-4.85977 24.25,-5.375 z"
       id="path4044"
       style="fill:#000000;fill-opacity:1;stroke:none" />
    <path
       d="m 153.99763,140.22289 c -10.63261,0.84841 -19.24789,3.27919 -27.25,5.875 -4.71274,-11.30162 -6.86729,-22.40646 -7.25,-33.375 10.81441,0.1452 21.7246,0.25847 34.5,-0.25 z"
       id="path4046"
       style="fill:#000000;fill-opacity:1;stroke:none" />
    <path
       d="m 117.42248,149.65134 c -5.31925,2.49083 -11.08354,5.42669 -18.738324,10.25305 -11.26154,-13.11794 -19.61209,-29.39334 -18.56155,-47.7297 l 28.814604,0.53032 c 1.15525,13.15203 4.52403,25.1973 8.48527,36.94633 z"
       id="path4048"
       style="fill:#000000;fill-opacity:1;stroke:none" />
    <path
       d="m 613.5,178 a 99.5,101 0 1 1 -199,0 99.5,101 0 1 1 199,0 z"
       transform="matrix(0.93570941,0,0.01206164,0.91904942,-324.46965,-56.420209)"
       id="path4052"
       style="fill:none;stroke:#000000;stroke-width:8.08763123;stroke-miterlimit:4;stroke-opacity:1;stroke-dasharray:none" />
  </g>
  <g
     transform="translate(-1.2614707,0.15197169)"
     id="layer5">
    <g
       transform="translate(-4.8979036,0)"
       id="text4055"
       style="font-size:27.56266975px;font-style:normal;font-weight:normal;line-height:125%;letter-spacing:0px;word-spacing:0px;fill:#4d4d4d;fill-opacity:1;stroke:none;font-family:Sans">
      <path
         d="m 14.699728,214.27022 19.834259,0 0,4.1946 -7.135144,0 0,17.32615 -5.549556,0 0,-17.32615 -7.149559,0 0,-4.1946"
         id="path3025"
         style="font-size:29.52075768px;font-variant:normal;font-weight:bold;font-stretch:normal;fill:#4d4d4d;font-family:Myriad Pro;-inkscape-font-specification:Myriad Pro Bold" />
      <path
         d="m 37.388044,214.27022 5.549557,0 0,8.20181 8.187398,0 0,-8.20181 5.549556,0 0,21.52075 -5.549556,0 0,-9.12434 -8.187398,0 0,9.12434 -5.549557,0 0,-21.52075"
         id="path3027"
         style="font-size:29.52075768px;font-variant:normal;font-weight:bold;font-stretch:normal;fill:#4d4d4d;font-family:Myriad Pro;-inkscape-font-specification:Myriad Pro Bold" />
      <path
         d="m 62.123209,214.27022 14.976595,0 0,4.1946 -9.427038,0 0,4.00721 8.864876,0 0,4.1946 -8.864876,0 0,4.92974 9.744156,0 0,4.1946 -15.293713,0 0,-21.52075"
         id="path3029"
         style="font-size:29.52075768px;font-variant:normal;font-weight:bold;font-stretch:normal;fill:#4d4d4d;font-family:Myriad Pro;-inkscape-font-specification:Myriad Pro Bold" />
      <path
         d="m 90.735859,214.27022 5.318926,0 3.718923,15.63966 3.690092,-15.63966 5.34776,0 3.69009,15.63966 3.71893,-15.63966 5.27568,0 -5.07388,21.52075 -6.40001,0 -3.90631,-16.36038 -3.86307,16.36038 -6.400007,0 -5.117124,-21.52075"
         id="path3031"
         style="font-size:29.52075768px;font-variant:normal;font-weight:bold;font-stretch:normal;fill:#4d4d4d;font-family:Myriad Pro;-inkscape-font-specification:Myriad Pro Bold" />
      <path
         d="m 134.97376,217.90266 c -1.69131,2e-5 -3.00302,0.62464 -3.93514,1.87388 -0.93214,1.24926 -1.39821,3.00782 -1.3982,5.27568 -1e-5,2.25827 0.46606,4.01202 1.3982,5.26127 0.93212,1.24925 2.24383,1.87388 3.93514,1.87387 1.70089,10e-6 3.0174,-0.62462 3.94955,-1.87387 0.93212,-1.24925 1.39818,-3.003 1.3982,-5.26127 -2e-5,-2.26786 -0.46608,-4.02642 -1.3982,-5.27568 -0.93215,-1.24924 -2.24866,-1.87386 -3.94955,-1.87388 m 0,-4.02163 c 3.45944,2e-5 6.16936,0.98981 8.12974,2.96938 1.96034,1.97959 2.94052,4.71353 2.94054,8.20181 -2e-5,3.47869 -0.9802,6.20782 -2.94054,8.1874 -1.96038,1.97958 -4.6703,2.96937 -8.12974,2.96937 -3.44987,0 -6.15978,-0.98979 -8.12974,-2.96937 -1.96037,-1.97958 -2.94055,-4.70871 -2.94055,-8.1874 0,-3.48828 0.98018,-6.22222 2.94055,-8.20181 1.96996,-1.97957 4.67987,-2.96936 8.12974,-2.96938"
         id="path3033"
         style="font-size:29.52075768px;font-variant:normal;font-weight:bold;font-stretch:normal;fill:#4d4d4d;font-family:Myriad Pro;-inkscape-font-specification:Myriad Pro Bold" />
      <path
         d="m 158.10892,223.81258 c 1.16275,1e-5 1.99398,-0.21621 2.49369,-0.64865 0.5093,-0.43242 0.76395,-1.14353 0.76397,-2.13334 -2e-5,-0.98016 -0.25467,-1.68167 -0.76397,-2.10451 -0.49971,-0.4228 -1.33094,-0.63421 -2.49369,-0.63423 l -2.33514,0 0,5.52073 2.33514,0 m -2.33514,3.83424 0,8.14415 -5.54956,0 0,-21.52075 8.47569,0 c 2.83482,2e-5 4.9105,0.4757 6.22703,1.42703 1.32611,0.95137 1.98918,2.45528 1.9892,4.51172 -2e-5,1.42224 -0.34597,2.5898 -1.03784,3.50271 -0.6823,0.91292 -1.71534,1.58559 -3.09911,2.01802 0.75915,0.17298 1.43662,0.56697 2.03244,1.18198 0.60539,0.60541 1.2156,1.52794 1.83063,2.76757 l 3.01262,6.11172 -5.90992,0 -2.62343,-5.34775 c -0.52854,-1.07628 -1.06668,-1.81141 -1.61441,-2.20541 -0.53815,-0.39399 -1.25887,-0.59099 -2.16217,-0.59099 l -1.57117,0"
         id="path3035"
         style="font-size:29.52075768px;font-variant:normal;font-weight:bold;font-stretch:normal;fill:#4d4d4d;font-family:Myriad Pro;-inkscape-font-specification:Myriad Pro Bold" />
      <path
         d="m 172.94137,214.27022 5.54956,0 0,17.32615 9.74415,0 0,4.1946 -15.29371,0 0,-21.52075"
         id="path3037"
         style="font-size:29.52075768px;font-variant:normal;font-weight:bold;font-stretch:normal;fill:#4d4d4d;font-family:Myriad Pro;-inkscape-font-specification:Myriad Pro Bold" />
      <path
         d="m 197.28734,218.46482 0,13.13155 1.9892,0 c 2.26785,0 3.99758,-0.56216 5.18919,-1.68649 1.20119,-1.12432 1.80179,-2.75795 1.80181,-4.90091 -2e-5,-2.13332 -0.59582,-3.75734 -1.78739,-4.87207 -1.19161,-1.1147 -2.92615,-1.67206 -5.20361,-1.67208 l -1.9892,0 m -5.54955,-4.1946 5.85226,0 c 3.26726,2e-5 5.69849,0.23546 7.2937,0.70631 1.60479,0.46128 2.97896,1.24927 4.12253,2.36397 1.00899,0.97059 1.75854,2.09011 2.24865,3.35856 0.49007,1.26848 0.73511,2.70512 0.73513,4.30991 -2e-5,1.62404 -0.24506,3.07509 -0.73513,4.35316 -0.49011,1.26848 -1.23966,2.388 -2.24865,3.35857 -1.15318,1.11471 -2.53696,1.90751 -4.15136,2.37838 -1.61443,0.46126 -4.03605,0.69189 -7.26487,0.69189 l -5.85226,0 0,-21.52075"
         id="path3039"
         style="font-size:29.52075768px;font-variant:normal;font-weight:bold;font-stretch:normal;fill:#4d4d4d;font-family:Myriad Pro;-inkscape-font-specification:Myriad Pro Bold" />
      <path
         d="m 235.12523,222.60176 c 0.87446,2e-5 1.53752,-0.19217 1.98919,-0.57657 0.45164,-0.38437 0.67746,-0.95134 0.67748,-1.70091 -2e-5,-0.73992 -0.22584,-1.30208 -0.67748,-1.68648 -0.45167,-0.39398 -1.11473,-0.59098 -1.98919,-0.591 l -3.07028,0 0,4.55496 3.07028,0 m 0.18738,9.41263 c 1.11471,0 1.95074,-0.23543 2.50812,-0.70631 0.56695,-0.47087 0.85043,-1.18198 0.85045,-2.13333 -2e-5,-0.93213 -0.2787,-1.62883 -0.83604,-2.0901 -0.55737,-0.47086 -1.39821,-0.7063 -2.52253,-0.7063 l -3.25766,0 0,5.63604 3.25766,0 m 5.16037,-7.74055 c 1.19158,0.34596 2.1141,0.985 2.76757,1.91712 0.65344,0.93214 0.98016,2.07568 0.98018,3.43063 -2e-5,2.07569 -0.70152,3.62283 -2.1045,4.64145 -1.40303,1.01862 -3.53636,1.52793 -6.40001,1.52793 l -9.21082,0 0,-21.52075 8.33154,0 c 2.98858,2e-5 5.15074,0.45168 6.48649,1.35496 1.34533,0.90332 2.018,2.34957 2.01802,4.33874 -2e-5,1.04747 -0.24506,1.94116 -0.73513,2.68109 -0.49011,0.73034 -1.20122,1.27328 -2.13334,1.62883"
         id="path3041"
         style="font-size:29.52075768px;font-variant:normal;font-weight:bold;font-stretch:normal;fill:#4d4d4d;font-family:Myriad Pro;-inkscape-font-specification:Myriad Pro Bold" />
      <path
         d="m 262.05138,231.87024 -8.67749,0 -1.36937,3.92073 -5.57838,0 7.97118,-21.52075 6.61622,0 7.97118,21.52075 -5.57838,0 -1.35496,-3.92073 m -7.2937,-3.99279 5.8955,0 -2.94054,-8.56218 -2.95496,8.56218"
         id="path3043"
         style="font-size:29.52075768px;font-variant:normal;font-weight:bold;font-stretch:normal;fill:#4d4d4d;font-family:Myriad Pro;-inkscape-font-specification:Myriad Pro Bold" />
      <path
         d="m 271.82438,214.27022 6.19821,0 7.82703,14.76038 0,-14.76038 5.26127,0 0,21.52075 -6.1982,0 -7.82704,-14.76038 0,14.76038 -5.26127,0 0,-21.52075"
         id="path3045"
         style="font-size:29.52075768px;font-variant:normal;font-weight:bold;font-stretch:normal;fill:#4d4d4d;font-family:Myriad Pro;-inkscape-font-specification:Myriad Pro Bold" />
      <path
         d="m 296.55953,214.27022 5.54956,0 0,7.85587 8.00001,-7.85587 6.44325,0 -10.36397,10.19101 11.43064,11.32974 -6.94776,0 -8.56217,-8.47569 0,8.47569 -5.54956,0 0,-21.52075"
         id="path3047"
         style="font-size:29.52075768px;font-variant:normal;font-weight:bold;font-stretch:normal;fill:#4d4d4d;font-family:Myriad Pro;-inkscape-font-specification:Myriad Pro Bold" />
    </g>
  </g>
</svg>
