<?xml version="1.0" encoding="utf-8"?>
<!-- Generator: Adobe Illustrator 19.2.1, SVG Export Plug-In . SVG Version: 6.00 Build 0)  -->
<svg version="1.1"
	 id="svg2" inkscape:version="0.48.4 r9939" sodipodi:docname="ar2013_en_01.pdf" xmlns:cc="http://creativecommons.org/ns#" xmlns:dc="http://purl.org/dc/elements/1.1/" xmlns:inkscape="http://www.inkscape.org/namespaces/inkscape" xmlns:rdf="http://www.w3.org/1999/02/22-rdf-syntax-ns#" xmlns:sodipodi="http://sodipodi.sourceforge.net/DTD/sodipodi-0.dtd" xmlns:svg="http://www.w3.org/2000/svg"
	 xmlns="http://www.w3.org/2000/svg" xmlns:xlink="http://www.w3.org/1999/xlink" x="0px" y="0px" viewBox="0 0 150 72.5"
	 style="enable-background:new 0 0 150 72.5;" xml:space="preserve">
<style type="text/css">
	.st0{fill:#ED1C24;}
</style>
<sodipodi:namedview  bordercolor="#666666" borderopacity="1" fit-margin-bottom="0" fit-margin-left="0" fit-margin-right="0" fit-margin-top="0" gridtolerance="10" guidetolerance="10" id="namedview4" inkscape:current-layer="g10" inkscape:cx="98.48233" inkscape:cy="102.1036" inkscape:pageopacity="0" inkscape:pageshadow="2" inkscape:window-height="1003" inkscape:window-maximized="1" inkscape:window-width="1920" inkscape:window-x="-9" inkscape:window-y="-9" inkscape:zoom="1.2413435" objecttolerance="10" pagecolor="#ffffff" showgrid="false">
	</sodipodi:namedview>
<g id="g10" transform="matrix(1.25,0,0,-1.25,-94.8979,914.17266)" inkscape:groupmode="layer" inkscape:label="ar2013_en_01">
	<g id="g3249" transform="matrix(0.83175127,0,0,0.83175127,12.773161,113.28842)">
		<g id="g3232">
			<g id="g3215">
				<path id="path28" inkscape:connector-curvature="0" class="st0" d="M85.2,687.4v-2.8h-6.5v-2.8h5.1v-2.8h-5.1v-5.6h-2.8v14
					C75.9,687.4,85.2,687.4,85.2,687.4z"/>
				<path id="path32" inkscape:connector-curvature="0" class="st0" d="M91.3,683.6l-1.4-4.6h2.8L91.3,683.6z M89,676.3l-0.9-2.8
					h-2.8l4.7,14h2.8l4.7-14h-2.8l-0.9,2.8C93.6,676.3,89,676.3,89,676.3z"/>
				<path id="path44" inkscape:connector-curvature="0" class="st0" d="M101.3,677.3c0.3-0.7,0.9-1.1,1.6-1.1c0.8,0,1.4,0.6,1.4,1.3
					c0,0.6-0.3,0.9-0.7,1.1l-2.4,1.2c-1.6,0.8-2.4,2.1-2.4,3.7c0,2.3,1.9,4.2,4.2,4.2c1.8,0,3.4-1.1,4.2-2.8l-2.6-1.1
					c-0.3,0.7-0.9,1.1-1.6,1.1c-0.8,0-1.4-0.6-1.4-1.3c0-0.5,0.3-0.9,0.7-1.1l2.4-1.2c1.6-0.8,2.4-2,2.4-3.7c0-2.3-1.9-4.2-4.2-4.2
					c-1.8,0-3.4,1-4.2,2.8C98.7,676.2,101.3,677.3,101.3,677.3z"/>
				<path id="path48" inkscape:connector-curvature="0" class="st0" d="M114.6,673.5h-2.8v11.2h-3.3v2.8h9.3v-2.8h-3.3
					C114.6,684.7,114.6,673.5,114.6,673.5z"/>
			</g>
			<g id="g3221">
				<path id="path52" inkscape:connector-curvature="0" class="st0" d="M129.9,680.9h1.9c1,0,1.9,0.8,1.9,1.9c0,1-0.8,1.9-1.9,1.9
					h-1.9V680.9z M136.4,673.5h-2.8l-1.6,4.7h-0.3h-1.9v-4.7h-2.8v14h4.7c2.6,0,4.7-2.1,4.7-4.7c0-1.5-0.6-2.7-1.8-3.7L136.4,673.5
					L136.4,673.5z"/>
				<path id="path56" inkscape:connector-curvature="0" class="st0" d="M148.5,687.4v-2.8H142v-2.8h5.1v-2.8H142v-2.8h6.5v-2.8h-9.3
					v14H148.5z"/>
				<path id="path60" inkscape:connector-curvature="0" class="st0" d="M157.4,673.5h-2.8v11.2h-3.3v2.8h9.3v-2.8h-3.3L157.4,673.5
					L157.4,673.5z"/>
				<path id="path64" inkscape:connector-curvature="0" class="st0" d="M166.7,683.6l-1.4-4.6h2.8L166.7,683.6z M164.4,676.3
					l-0.9-2.8h-2.8l4.7,14h2.8l4.7-14h-2.8l-0.9,2.8H164.4z"/>
				<path id="path66" inkscape:connector-curvature="0" class="st0" d="M175.5,687.4h2.8v-14h-2.8V687.4z"/>
				<path id="path70" inkscape:connector-curvature="0" class="st0" d="M183.9,676.3h6.5v-2.8h-9.3v14h2.8V676.3L183.9,676.3z"/>
				<path id="path72" inkscape:connector-curvature="0" class="st0" d="M193.2,687.4h2.8v-14h-2.8V687.4z"/>
				<path id="path76" inkscape:connector-curvature="0" class="st0" d="M201.6,673.5h-2.8v14h2.8l3.7-8.3v8.3h2.8v-14h-2.8l-3.7,8.3
					V673.5z"/>
				<path id="path80" inkscape:connector-curvature="0" class="st0" d="M217.4,682.9c0,1.1-0.8,1.9-1.9,1.9c-1,0-1.9-0.8-1.9-1.9
					V678c0-1,0.8-1.9,1.9-1.9c1.1,0,1.9,0.8,1.9,1.9h-1.9v2.7h4.7V678c0-2.6-2.1-4.7-4.7-4.7c-2.6,0-4.6,2.1-4.6,4.7v4.9
					c0,2.6,2.1,4.7,4.6,4.7c2.6,0,4.7-2.1,4.7-4.7H217.4z"/>
			</g>
		</g>
		<g id="g3210">
			<path id="path84" inkscape:connector-curvature="0" class="st0" d="M75.9,695l43.3,14.4H75.9V695z"/>
			<path id="path88" inkscape:connector-curvature="0" class="st0" d="M220.2,743.1H75.9v-12h108.2L220.2,743.1z"/>
			<path id="path92" inkscape:connector-curvature="0" class="st0" d="M75.9,714.2h57.7l36.1,12H75.9
				C75.9,726.2,75.9,714.2,75.9,714.2z"/>
		</g>
	</g>
</g>
</svg>
