<?xml version="1.0" encoding="utf-8"?>
<!-- Generator: Adobe Illustrator 19.2.1, SVG Export Plug-In . SVG Version: 6.00 Build 0)  -->
<svg version="1.1" id="svg4568" xmlns="http://www.w3.org/2000/svg" xmlns:xlink="http://www.w3.org/1999/xlink" x="0px" y="0px"
	 viewBox="0 0 1024 258" style="enable-background:new 0 0 1024 258;" xml:space="preserve">
<style type="text/css">
	.st0{fill:#065FA3;stroke:#1465AF;stroke-width:0.2625;}
	.st1{fill:#FFFFFF;}
</style>
<path id="path2454" d="M343.5,87.7h-15.8c-11.8-14.3-27.7-33-35.3-46.1h-0.2v46.1h-18.6V9.1h17.2c11.3,13.9,28.3,34.4,33.9,45h0.2
	v-45h18.6V87.7"/>
<path id="path2456" d="M398.5,9.1l29.9,78.6h-25.2L397,69h-24.4l-7.5,18.8h-18.5l32-78.6H398.5z M393.2,56.5
	c-2.6-9.3-4.8-16.9-7.6-28.1h-0.2c-3,11.2-5.7,18.8-8.6,28.1H393.2"/>
<path id="path2458" d="M435.9,87.7V23.8h-22.7V9.1h69.1v14.7h-22.7v63.9H435.9"/>
<path id="path2460" d="M489.9,87.7V9.1h23.7v78.6H489.9z"/>
<path id="path2462" d="M519.3,47.5c0-22,16.5-39.8,39.1-39.8c22.6,0,39.1,17.8,39.1,39.8c0,23.5-14.9,41.6-39.1,41.6
	C534.3,89.1,519.3,71,519.3,47.5z M572.8,47.5c0-13.9-4.3-23.4-14.4-23.4c-10.1,0-14.4,9.4-14.4,23.4c0,14.8,3.8,25.2,14.4,25.2
	C569,72.7,572.8,62.3,572.8,47.5"/>
<path id="path2464" d="M673.2,87.7h-15.8c-11.8-14.3-27.7-33-35.3-46.1h-0.2v46.1h-18.6V9.1h17.2c11.3,13.9,28.3,34.4,33.9,45h0.2
	v-45h18.6V87.7"/>
<path id="path2466" d="M727,9.1l29.9,78.6h-25.2L725.5,69h-24.4l-7.5,18.8h-18.5l32-78.6H727z M721.7,56.5
	c-2.6-9.3-4.8-16.9-7.6-28.1h-0.2c-3,11.2-5.7,18.8-8.7,28.1H721.7"/>
<path id="path2468" d="M762.2,9.1h23.7V73h28.8v14.7h-52.5V9.1"/>
<path id="path2470" d="M238.2,190.7v-78.6h23.7v78.6H238.2z"/>
<path id="path2472" d="M342,190.7h-15.8c-11.8-14.3-27.7-33-35.3-46.1h-0.2v46.1H272v-78.6h17.2c11.3,13.9,28.3,34.4,33.9,45h0.2
	v-45H342V190.7"/>
<path id="path2474" d="M391.9,128.4c-3.1-1.9-7.2-2.9-11.6-2.9c-4.6,0-7,2.2-7,4.8c0,4.4,6.6,8,14.3,15.1
	c10.1,9.4,12.6,15.4,12.6,23.6c0,7-5.7,23.1-29.3,23.1c-9.2,0-18.4-2.1-24.7-7.2l7.2-13c3.4,2.6,7.9,5.5,13.5,5.5
	c4.7,0,9.9-2.4,9.9-8.2c0-6.3-7.6-10.9-13.8-16.3c-8.2-7.2-13-11.3-13-21c0-12.6,12.7-21.1,27.5-21.1c10,0,17.9,3.6,20.6,5.3
	L391.9,128.4"/>
<path id="path2476" d="M423.6,190.7v-63.9h-22.7v-14.7H470v14.7h-22.7v63.9H423.6"/>
<path id="path2478" d="M477.6,112.1h35c18.5,0,28.5,8.1,28.5,21c0,12-6,19.1-13.3,22.7l17.4,33.7l-25.4,2.6l-12.5-31.1h-6.2v29.8
	h-23.7V112.1z M501.3,146.1h6.7c6.3,0,9.4-5.4,9.4-9.7c0-7.7-4.8-9.7-9.9-9.7h-6.3V146.1"/>
<path id="path2480" d="M572,112.1v41.1c0,14.2,2.1,22.5,12.1,22.5c7.9,0,12.4-7.9,12.4-22.8v-40.8h20.4v47.5
	c0,23.5-16,32.5-33.9,32.5c-20.1,0-34.7-8.4-34.7-31.9v-48.1H572"/>
<path id="path2482" d="M722.9,190.7h-23.7v-55h-0.2c-6.1,20.6-12.4,37.9-18.6,55h-14.9c-6.4-17.2-12.8-34.5-19-55h-0.2v55h-18.6
	v-78.6h32.1c5.4,15.1,10.8,30,16.1,48.4h0.2c5.1-18.4,10.3-33.4,15.5-48.4h31.5V190.7"/>
<path id="path2484" d="M780.7,126.8h-24v15.5h23.5V157h-23.5v19h28.9v14.7H733v-78.6h47.7V126.8"/>
<path id="path2486" d="M859.8,190.7H844c-11.8-14.3-27.7-33-35.3-46.1h-0.2v46.1h-18.6v-78.6H807c11.3,13.9,28.3,34.4,33.9,45h0.2
	v-45h18.6V190.7"/>
<path id="path2488" d="M886.8,190.7v-63.9h-22.7v-14.7h69.1v14.7h-22.7v63.9H886.8"/>
<path id="path2490" d="M979.5,128.4c-3.1-1.9-7.2-2.9-11.6-2.9c-4.6,0-7,2.2-7,4.8c0,4.4,6.6,8,14.3,15.1
	c10.1,9.4,12.6,15.4,12.6,23.6c0,7-5.7,23.1-29.3,23.1c-9.2,0-18.4-2.1-24.7-7.2l7.2-13c3.4,2.6,7.9,5.5,13.5,5.5
	c4.7,0,9.9-2.4,9.9-8.2c0-6.3-7.6-10.9-13.8-16.3c-8.2-7.2-13-11.3-13-21c0-12.6,12.7-21.1,27.5-21.1c10,0,17.9,3.6,20.6,5.3
	L979.5,128.4"/>
<path id="path2492" d="M992.1,125.6v-11.1h-4.2v-1.4h10.6v1.4h-4.2v11.1H992.1z M1015,125.6h-2.2v-9.3h-0.1l-5,9.3h-1l-4.6-9.3h0
	h-0.1v9.3h-1.8v-12.5h2.5l4.7,9.4l5.1-9.4h2.3V125.6"/>
<path id="path2494" class="st0" d="M152.2,38.8c0.7-12,11-22.1,21.7-25.2c26.5-7.5,40.7-6.2,88.3-6.5
	c-28.5,25.5-51.3,65.8-46.2,105.1c-10.3-8.4-17.2-20.4-26.1-30c3.3-6.4,6.7-12.7,8.6-20c3.1-11.9,11.7-14.7,22.6-14.4
	c0.8,0-0.6-9.2-3.6-10c-8.1-2.2-15,0.4-24.4-3.2c-3-1.2-6.4,0.4-9,1.7c-7.7,3.9-12.6,12.4-21.3,15L152.2,38.8z"/>
<path id="path2496" class="st0" d="M6.7,31.1C23,20,38.7,12.3,58,8.8c24.3-4.4,50.6-4.8,68.7,12.7c34.3,33,62,67.6,92.1,105.3
	c1.2,1.5,1.1,5.5,0,6.1c-21.3,12.2-42.5,22.2-65.3,30.5c-3.6,1.3-8.2-0.3-10.5-2.3c-34.3-31.1-57.7-68.4-90.6-100.8
	C39.8,48,24.6,39,7.6,33.7C6.2,33.3,6,31.6,6.7,31.1z"/>
<path id="path2498" class="st0" d="M126.4,183c-24.7,17.6-45.8,39.5-61.5,65.5c-6-25.5-6.4-52.4,2.5-77.1
	c8.6-24.1,10.2-47.5,11.4-72.5c15.6,18,33.4,37.9,48,56L126.4,183z"/>
<path id="path2500" class="st1" d="M189.9,82.2c3.3-6.4,6.7-12.7,8.6-20c3.1-11.9,11.7-14.7,22.6-14.4c0.8,0-0.6-9.2-3.6-10
	c-8.1-2.2-15,0.4-24.4-3.2c-3-1.2-6.4,0.4-9,1.7c-7.7,3.9-12.6,12.4-21.3,15L189.9,82.2"/>
</svg>
