<?xml version="1.0" encoding="utf-8"?>
<!-- Generator: Adobe Illustrator 12.0.0, SVG Export Plug-In  -->
<!DOCTYPE svg PUBLIC "-//W3C//DTD SVG 1.1//EN" "http://www.w3.org/Graphics/SVG/1.1/DTD/svg11.dtd" [
	<!ENTITY ns_flows "http://ns.adobe.com/Flows/1.0/">
	<!ENTITY ns_svg "http://www.w3.org/2000/svg">
	<!ENTITY ns_xlink "http://www.w3.org/1999/xlink">
]>
<svg  version="1.1" xmlns="&ns_svg;" xmlns:xlink="&ns_xlink;" xmlns:a="http://ns.adobe.com/AdobeSVGViewerExtensions/3.0/"
	 width="118" height="46" viewBox="-0.225 -0.624 118 46" enable-background="new -0.225 -0.624 118 46" xml:space="preserve">
<defs>
</defs>
<path fill="#FFFFFF" d="M40.846,24.029c0.077,0.587-0.173,1.772-1.527,1.772h-9.883c-1.129,0-1.871-0.915-1.546-2.009
	c0.176-0.588,0.866-1.165,1.669-1.031l0.025,0.004l-0.021-0.015c-1.019-0.751-0.619-1.928-0.139-2.358
	c0.563-0.499,1.477-0.511,2.063,0.048l0.022,0.02l-0.012-0.027c-0.298-0.743,0.077-1.813,1.082-2.021
	c0.781-0.167,1.53,0.245,1.771,0.928h0.001c0.15-0.437,0.495-0.805,1.124-0.939c0.881-0.192,2.146,0.583,1.698,2.025l-0.009,0.023
	l0.02-0.018c0.534-0.525,1.322-0.612,1.974-0.09c0.554,0.453,0.936,1.699-0.002,2.373l-0.02,0.016l0.025-0.004
	C40.011,22.597,40.743,23.241,40.846,24.029"/>
<path fill="#FDB813" d="M33.855,25.645l-3.729-2.484c-0.948-0.635-1.886,0.012-2.086,0.68c-0.293,0.984,0.363,1.805,1.396,1.805
	H33.855"/>
<path fill="#0089CF" d="M39.06,20.463c-0.761-0.609-1.734-0.304-2.145,0.646l-1.747,4.114l3.868-2.614
	C39.894,22.022,39.576,20.885,39.06,20.463"/>
<path fill="#635FAA" d="M36.996,20.463c0.482-1.36-0.68-2.087-1.487-1.911c-0.822,0.176-1.092,0.798-1.092,1.407h0.363
	c0,0,0.224,0,0.306,0.095c0,0-0.586,0.21-0.564,0.574c0.025,0.468,0.107,0.656,0.248,1.523c0.199,1.23,0.421,2.591,0.421,2.591
	C35.309,24.496,36.996,20.475,36.996,20.463"/>
<path fill="#04B14B" d="M40.69,24.05c-0.118-0.901-1.138-1.581-2.134-0.914c0,0-3.715,2.509-3.753,2.509c0.07,0,4.515,0,4.515,0
	C40.527,25.645,40.762,24.602,40.69,24.05"/>
<path fill="#C9234A" d="M34.253,20.054c0.152-0.963-0.702-1.689-1.641-1.491c-0.902,0.189-1.243,1.161-0.961,1.83l1.852,4.396
	L34.253,20.054"/>
<path fill="#F36F21" d="M33.527,25.247l-1.805-4.198c-0.423-0.973-1.561-1.102-2.194-0.539c-0.445,0.398-0.797,1.488,0.188,2.159
	L33.527,25.247"/>
<path fill="#7A8682" d="M79.99,28.707c-2.858,8.487-11.379,14.646-21.226,14.646c-9.849,0-18.339-6.158-21.189-14.646h-0.194
	c2.651,9.313,11.219,16.138,21.384,16.138s18.732-6.824,21.385-16.138H79.99 M58.765,1.221c9.948,0,18.522,6.295,21.296,14.917
	h0.072C77.479,6.826,68.929,0,58.765,0C48.6,0,40.032,6.824,37.381,16.138h0.104C40.243,7.512,48.813,1.221,58.765,1.221z"/>
<path fill="#7A8682" d="M48.801,19.554c0-0.109-0.037-0.2-0.351-0.225V19.18h2.576v0.149c-0.312,0.024-0.351,0.115-0.351,0.225v3.35
	c0,2.198-1.536,2.927-3.449,2.927c-1.912,0-3.45-0.729-3.45-2.927v-3.35c0-0.109-0.036-0.2-0.349-0.225V19.18h2.574v0.149
	c-0.313,0.024-0.35,0.115-0.35,0.225v3.35c0,0.963,0.574,1.351,1.574,1.351s1.574-0.388,1.574-1.351V19.554"/>
<path fill="#7A8682" d="M60.356,25.273c0,0.209,0.179,0.253,0.416,0.267v0.178h-2.749V25.54c0.148,0,0.429-0.014,0.429-0.193
	c0-0.342-1.902-2.036-3.583-4.001l-0.029,0.031v3.896c0,0.209,0.179,0.253,0.388,0.267v0.178h-2.544V25.54
	c0.193-0.014,0.373-0.058,0.373-0.267v-5.651c0-0.208-0.18-0.253-0.402-0.269v-0.177h3.538v0.177
	c-0.133,0.016-0.311,0.061-0.311,0.269c0,0.104,1.441,1.577,2.69,2.929v-2.929c0-0.208-0.179-0.253-0.416-0.269v-0.177h2.616v0.177
	c-0.237,0.016-0.416,0.061-0.416,0.269V25.273"/>
<path fill="#7A8682" d="M65.916,19.177v0.177c-0.298,0.016-0.474,0.061-0.474,0.269v5.651c0,0.209,0.176,0.253,0.474,0.267v0.178
	h-2.942V25.54c0.297-0.014,0.475-0.058,0.475-0.267v-5.651c0-0.208-0.178-0.253-0.475-0.269v-0.177H65.916"/>
<path fill="#7A8682" d="M67.553,19.177h2.81v0.177c-0.119,0-0.371,0-0.371,0.151c0,0.162,1.235,3.344,1.34,3.791h0.027
	c0.521-1.263,1.546-3.659,1.546-3.791c0-0.151-0.251-0.151-0.339-0.151v-0.177h2.482v0.177c-0.164,0.016-0.269,0.061-0.312,0.209
	c-0.194,0.624-2.305,5.622-2.305,5.739c0,0.163,0.176,0.255,0.311,0.238v0.178h-3.137V25.54c0.134,0.017,0.313-0.075,0.313-0.238
	c0-0.06-1.904-5.739-2.112-5.871c-0.119-0.077-0.18-0.077-0.253-0.077V19.177"/>
<path fill="#7A8682" d="M82.719,24.378c0.177,0,0.328-0.104,0.388-0.372h0.18v1.991h-0.152c-0.102-0.269-0.178-0.312-0.415-0.312
	h-6.633v-0.178c0.208-0.015,0.417-0.059,0.417-0.268v-5.65c0-0.209-0.209-0.254-0.417-0.269v-0.18h6.752
	c0.118,0,0.269-0.057,0.269-0.326h0.18v1.993h-0.18c0-0.298-0.15-0.358-0.269-0.358h-4.343v1.206h2.796
	c0.119,0,0.27-0.058,0.27-0.341h0.177v1.934h-0.177c0-0.285-0.15-0.343-0.27-0.343h-2.796v1.472H82.719"/>
<path fill="#7A8682" d="M85.2,19.565c0-0.207-0.178-0.251-0.328-0.267V19.12h4.774c1.46,0,2.439,0.713,2.439,2.067
	c0,1.069-0.729,1.651-1.651,2.009l1.324,1.989c0.104,0.165,0.311,0.3,0.52,0.3v0.177h-3.002v-0.177c0.131,0,0.357-0.045,0.357-0.193
	c0-0.195-1.014-1.813-1.132-2.064h-1.428v1.99c0,0.208,0.18,0.252,0.389,0.268v0.177h-2.558v-0.177
	c0.117-0.016,0.295-0.06,0.295-0.268V19.565 M87.074,21.976h2.113c0.623,0,1.023-0.266,1.023-0.805c0-0.46-0.253-0.8-1.131-0.8
	h-2.006V21.976z"/>
<path fill="#7A8682" d="M94.096,23.466l0.192,0.089c0,0.045-0.015,0.088-0.015,0.162c0,0.386,1.711,0.774,2.916,0.774
	c0.37,0,1.352-0.06,1.352-0.641c0-1.16-4.863-0.03-4.863-2.525c0-0.924,0.879-2.219,3.302-2.219c1.414,0,2.633,0.387,2.958,0.387
	c0.166,0,0.254-0.118,0.328-0.177l0.165,0.059l-0.894,1.874l-0.19-0.089c0-0.044,0.012-0.104,0.012-0.164
	c0-0.148-1.054-0.548-2.052-0.548c-0.371,0-1.693,0-1.693,0.651c0,1.056,4.861-0.03,4.861,2.559c0,1.161-0.995,2.172-3.271,2.172
	c-1.426,0-3.093-0.535-3.212-0.535c-0.134,0-0.238,0.103-0.341,0.208l-0.163-0.046L94.096,23.466"/>
<path fill="#7A8682" d="M107.263,25.718V25.54c0.058,0,0.19,0,0.19-0.133c0-0.165-0.326-0.743-0.431-1.014h-3.45
	c-0.088,0.271-0.431,0.849-0.431,1.014c0,0.133,0.132,0.133,0.193,0.133v0.178h-2.23V25.54c0.119,0,0.252-0.045,0.299-0.148
	c1.188-2.779,2.57-5.681,2.57-5.887c0-0.105-0.043-0.136-0.191-0.151v-0.177h3.106v0.177c-0.148,0.016-0.193,0.046-0.193,0.151
	c0,0.177,2.083,4.354,2.736,5.887c0.045,0.104,0.178,0.148,0.296,0.148v0.178H107.263 M106.518,23.325l-1.25-2.602l-1.218,2.602
	H106.518z"/>
<path fill="#7A8682" d="M111.166,19.584c0-0.206-0.178-0.252-0.401-0.266v-0.18h2.782v0.18c-0.212,0.014-0.389,0.06-0.389,0.266
	v4.583h4.075c0.121,0,0.266-0.06,0.266-0.374h0.18v2.26h-0.18c0-0.312-0.145-0.373-0.266-0.373h-6.469v-0.177
	c0.224-0.012,0.401-0.058,0.401-0.266V19.584"/>
<path fill="#7A8682" d="M0.348,19.544c0-0.11-0.038-0.199-0.348-0.224v-0.148h2.996v0.148c-0.288,0.014-0.349,0.089-0.349,0.159
	c0,0.141,2.149,2.424,3.019,3.382v-3.317c0-0.148-0.101-0.21-0.262-0.224v-0.148h2.274v0.148c-0.311,0.024-0.348,0.113-0.348,0.224
	v5.79c0,0.112,0.037,0.199,0.348,0.223v0.15H5.317v-0.15c0.224,0,0.287-0.048,0.287-0.135c0-0.163-0.312-0.325-3.592-3.989v3.901
	c0,0.112,0.038,0.199,0.348,0.223v0.15H0v-0.15c0.31-0.023,0.348-0.11,0.348-0.223V19.544"/>
<path fill="#7A8682" d="M9.622,19.544c0-0.11-0.038-0.199-0.35-0.224v-0.148h4.735c1.34,0,2.322,0.496,2.322,1.727
	c0,0.745-0.497,1.203-1.193,1.355v0.022c0.833,0.227,1.44,0.671,1.44,1.591c0,0.994-0.744,1.84-2.508,1.84H9.272v-0.15
	c0.312-0.023,0.35-0.11,0.35-0.223V19.544 M11.485,21.63h1.69c1.066,0,1.342-0.073,1.342-0.573c0-0.495-0.275-0.568-1.342-0.568
	h-1.69V21.63z M11.485,24.389h2.112c0.869,0,1.217-0.197,1.217-0.745c0-0.544-0.348-0.745-1.217-0.745h-2.112V24.389z"/>
<path fill="#7A8682" d="M23.914,21.581l-0.126-0.086c0.014-0.05,0.027-0.098,0.027-0.188c0-0.251-0.958-0.57-2.013-0.57
	c-1.008,0-2.313,0.436-2.313,1.7c0,1.27,1.305,1.705,2.313,1.705c0.435,0,2.087-0.339,2.087-0.697c0-0.075-0.049-0.125-0.074-0.187
	l0.136-0.089l1.28,1.953l-0.15,0.085c-0.037-0.085-0.086-0.098-0.173-0.098c-0.249,0-1.405,0.673-3.255,0.673
	c-1.989,0-4.1-1.12-4.1-3.346c0-2.224,2.11-3.342,4.1-3.342c0.992,0,1.702,0.124,2.198,0.263c0.484,0.137,0.732,0.236,0.857,0.236
	c0.074,0,0.138-0.039,0.188-0.1l0.136,0.038L23.914,21.581"/>
</svg>
