<?xml version="1.0" encoding="utf-8"?>
<!-- Generator: Adobe Illustrator 19.2.1, SVG Export Plug-In . SVG Version: 6.00 Build 0)  -->
<svg version="1.1" id="Layer_1" xmlns="http://www.w3.org/2000/svg" xmlns:xlink="http://www.w3.org/1999/xlink" x="0px" y="0px"
	 viewBox="0 0 118 46" style="enable-background:new 0 0 118 46;" xml:space="preserve">
<style type="text/css">
	.st0{fill:#FFFFFF;}
	.st1{fill:#FDB813;}
	.st2{fill:#0089CF;}
	.st3{fill:#635FAA;}
	.st4{fill:#04B14B;}
	.st5{fill:#C9234A;}
	.st6{fill:#F36F21;}
	.st7{fill:#7A8682;}
</style>
<path class="st0" d="M40.8,24c0.1,0.6-0.2,1.8-1.5,1.8h-9.9c-1.1,0-1.9-0.9-1.5-2c0.2-0.6,0.9-1.2,1.7-1l0,0l0,0
	c-1-0.8-0.6-1.9-0.1-2.4c0.6-0.5,1.5-0.5,2.1,0l0,0l0,0c-0.3-0.7,0.1-1.8,1.1-2c0.8-0.2,1.5,0.2,1.8,0.9h0c0.2-0.4,0.5-0.8,1.1-0.9
	c0.9-0.2,2.1,0.6,1.7,2l0,0l0,0c0.5-0.5,1.3-0.6,2-0.1c0.6,0.5,0.9,1.7,0,2.4l0,0l0,0C40,22.6,40.7,23.2,40.8,24"/>
<path class="st1" d="M33.9,25.6l-3.7-2.5c-0.9-0.6-1.9,0-2.1,0.7c-0.3,1,0.4,1.8,1.4,1.8L33.9,25.6"/>
<path class="st2" d="M39.1,20.5c-0.8-0.6-1.7-0.3-2.1,0.6l-1.7,4.1l3.9-2.6C39.9,22,39.6,20.9,39.1,20.5"/>
<path class="st3" d="M37,20.5c0.5-1.4-0.7-2.1-1.5-1.9c-0.8,0.2-1.1,0.8-1.1,1.4h0.4c0,0,0.2,0,0.3,0.1c0,0-0.6,0.2-0.6,0.6
	c0,0.5,0.1,0.7,0.2,1.5c0.2,1.2,0.4,2.6,0.4,2.6C35.3,24.5,37,20.5,37,20.5"/>
<path class="st4" d="M40.7,24c-0.1-0.9-1.1-1.6-2.1-0.9c0,0-3.7,2.5-3.8,2.5c0.1,0,4.5,0,4.5,0C40.5,25.6,40.8,24.6,40.7,24"/>
<path class="st5" d="M34.3,20.1c0.2-1-0.7-1.7-1.6-1.5c-0.9,0.2-1.2,1.2-1,1.8l1.9,4.4L34.3,20.1"/>
<path class="st6" d="M33.5,25.2L31.7,21c-0.4-1-1.6-1.1-2.2-0.5c-0.4,0.4-0.8,1.5,0.2,2.2L33.5,25.2"/>
<path class="st7" d="M80,28.7c-2.9,8.5-11.4,14.6-21.2,14.6c-9.8,0-18.3-6.2-21.2-14.6h-0.2C40,38,48.6,44.8,58.8,44.8
	S77.5,38,80.2,28.7H80 M58.8,1.2c9.9,0,18.5,6.3,21.3,14.9h0.1C77.5,6.8,68.9,0,58.8,0C48.6,0,40,6.8,37.4,16.1h0.1
	C40.2,7.5,48.8,1.2,58.8,1.2z"/>
<path class="st7" d="M48.8,19.6c0-0.1,0-0.2-0.4-0.2v-0.1H51v0.1c-0.3,0-0.4,0.1-0.4,0.2v3.4c0,2.2-1.5,2.9-3.4,2.9
	c-1.9,0-3.5-0.7-3.5-2.9v-3.4c0-0.1,0-0.2-0.3-0.2v-0.1H46v0.1c-0.3,0-0.3,0.1-0.3,0.2v3.4c0,1,0.6,1.4,1.6,1.4s1.6-0.4,1.6-1.4
	L48.8,19.6"/>
<path class="st7" d="M60.4,25.3c0,0.2,0.2,0.3,0.4,0.3v0.2H58v-0.2c0.1,0,0.4,0,0.4-0.2c0-0.3-1.9-2-3.6-4l0,0v3.9
	c0,0.2,0.2,0.3,0.4,0.3v0.2h-2.5v-0.2c0.2,0,0.4-0.1,0.4-0.3v-5.7c0-0.2-0.2-0.3-0.4-0.3v-0.2h3.5v0.2c-0.1,0-0.3,0.1-0.3,0.3
	c0,0.1,1.4,1.6,2.7,2.9v-2.9c0-0.2-0.2-0.3-0.4-0.3v-0.2h2.6v0.2c-0.2,0-0.4,0.1-0.4,0.3V25.3"/>
<path class="st7" d="M65.9,19.2v0.2c-0.3,0-0.5,0.1-0.5,0.3v5.7c0,0.2,0.2,0.3,0.5,0.3v0.2H63v-0.2c0.3,0,0.5-0.1,0.5-0.3v-5.7
	c0-0.2-0.2-0.3-0.5-0.3v-0.2L65.9,19.2"/>
<path class="st7" d="M67.6,19.2h2.8v0.2c-0.1,0-0.4,0-0.4,0.2c0,0.2,1.2,3.3,1.3,3.8h0c0.5-1.3,1.5-3.7,1.5-3.8
	c0-0.2-0.3-0.2-0.3-0.2v-0.2H75v0.2c-0.2,0-0.3,0.1-0.3,0.2c-0.2,0.6-2.3,5.6-2.3,5.7c0,0.2,0.2,0.3,0.3,0.2v0.2h-3.1v-0.2
	c0.1,0,0.3-0.1,0.3-0.2c0-0.1-1.9-5.7-2.1-5.9c-0.1-0.1-0.2-0.1-0.3-0.1V19.2"/>
<path class="st7" d="M82.7,24.4c0.2,0,0.3-0.1,0.4-0.4h0.2v2h-0.2c-0.1-0.3-0.2-0.3-0.4-0.3h-6.6v-0.2c0.2,0,0.4-0.1,0.4-0.3v-5.6
	c0-0.2-0.2-0.3-0.4-0.3v-0.2h6.8c0.1,0,0.3-0.1,0.3-0.3h0.2v2h-0.2c0-0.3-0.2-0.4-0.3-0.4h-4.3v1.2h2.8c0.1,0,0.3-0.1,0.3-0.3h0.2
	v1.9h-0.2c0-0.3-0.2-0.3-0.3-0.3h-2.8v1.5L82.7,24.4"/>
<path class="st7" d="M85.2,19.6c0-0.2-0.2-0.3-0.3-0.3v-0.2h4.8c1.5,0,2.4,0.7,2.4,2.1c0,1.1-0.7,1.7-1.7,2l1.3,2
	c0.1,0.2,0.3,0.3,0.5,0.3v0.2h-3v-0.2c0.1,0,0.4,0,0.4-0.2c0-0.2-1-1.8-1.1-2.1h-1.4v2c0,0.2,0.2,0.3,0.4,0.3v0.2h-2.6v-0.2
	c0.1,0,0.3-0.1,0.3-0.3L85.2,19.6 M87.1,22h2.1c0.6,0,1-0.3,1-0.8c0-0.5-0.3-0.8-1.1-0.8h-2L87.1,22L87.1,22z"/>
<path class="st7" d="M94.1,23.5l0.2,0.1c0,0,0,0.1,0,0.2c0,0.4,1.7,0.8,2.9,0.8c0.4,0,1.4-0.1,1.4-0.6c0-1.2-4.9,0-4.9-2.5
	c0-0.9,0.9-2.2,3.3-2.2c1.4,0,2.6,0.4,3,0.4c0.2,0,0.3-0.1,0.3-0.2l0.2,0.1l-0.9,1.9l-0.2-0.1c0,0,0-0.1,0-0.2
	c0-0.1-1.1-0.5-2.1-0.5c-0.4,0-1.7,0-1.7,0.7c0,1.1,4.9,0,4.9,2.6c0,1.2-1,2.2-3.3,2.2c-1.4,0-3.1-0.5-3.2-0.5
	c-0.1,0-0.2,0.1-0.3,0.2l-0.2,0L94.1,23.5"/>
<path class="st7" d="M107.3,25.7v-0.2c0.1,0,0.2,0,0.2-0.1c0-0.2-0.3-0.7-0.4-1h-3.4c-0.1,0.3-0.4,0.8-0.4,1c0,0.1,0.1,0.1,0.2,0.1
	v0.2h-2.2v-0.2c0.1,0,0.3,0,0.3-0.1c1.2-2.8,2.6-5.7,2.6-5.9c0-0.1,0-0.1-0.2-0.2v-0.2h3.1v0.2c-0.1,0-0.2,0-0.2,0.2
	c0,0.2,2.1,4.4,2.7,5.9c0,0.1,0.2,0.1,0.3,0.1v0.2L107.3,25.7 M106.5,23.3l-1.2-2.6l-1.2,2.6H106.5z"/>
<path class="st7" d="M111.2,19.6c0-0.2-0.2-0.3-0.4-0.3v-0.2h2.8v0.2c-0.2,0-0.4,0.1-0.4,0.3v4.6h4.1c0.1,0,0.3-0.1,0.3-0.4h0.2v2.3
	h-0.2c0-0.3-0.1-0.4-0.3-0.4h-6.5v-0.2c0.2,0,0.4-0.1,0.4-0.3L111.2,19.6"/>
<path class="st7" d="M0.3,19.5c0-0.1,0-0.2-0.3-0.2v-0.1h3v0.1c-0.3,0-0.3,0.1-0.3,0.2c0,0.1,2.1,2.4,3,3.4v-3.3
	c0-0.1-0.1-0.2-0.3-0.2v-0.1h2.3v0.1c-0.3,0-0.3,0.1-0.3,0.2v5.8c0,0.1,0,0.2,0.3,0.2v0.1H5.3v-0.1c0.2,0,0.3,0,0.3-0.1
	c0-0.2-0.3-0.3-3.6-4v3.9c0,0.1,0,0.2,0.3,0.2v0.1H0v-0.1c0.3,0,0.3-0.1,0.3-0.2V19.5"/>
<path class="st7" d="M9.6,19.5c0-0.1,0-0.2-0.4-0.2v-0.1H14c1.3,0,2.3,0.5,2.3,1.7c0,0.7-0.5,1.2-1.2,1.4v0c0.8,0.2,1.4,0.7,1.4,1.6
	c0,1-0.7,1.8-2.5,1.8H9.3v-0.1c0.3,0,0.4-0.1,0.4-0.2L9.6,19.5 M11.5,21.6h1.7c1.1,0,1.3-0.1,1.3-0.6c0-0.5-0.3-0.6-1.3-0.6h-1.7
	L11.5,21.6z M11.5,24.4h2.1c0.9,0,1.2-0.2,1.2-0.7c0-0.5-0.3-0.7-1.2-0.7h-2.1L11.5,24.4z"/>
<path class="st7" d="M23.9,21.6l-0.1-0.1c0,0,0-0.1,0-0.2c0-0.3-1-0.6-2-0.6c-1,0-2.3,0.4-2.3,1.7c0,1.3,1.3,1.7,2.3,1.7
	c0.4,0,2.1-0.3,2.1-0.7c0-0.1,0-0.1-0.1-0.2l0.1-0.1l1.3,2l-0.1,0.1c0-0.1-0.1-0.1-0.2-0.1c-0.2,0-1.4,0.7-3.3,0.7
	c-2,0-4.1-1.1-4.1-3.3c0-2.2,2.1-3.3,4.1-3.3c1,0,1.7,0.1,2.2,0.3c0.5,0.1,0.7,0.2,0.9,0.2c0.1,0,0.1,0,0.2-0.1l0.1,0L23.9,21.6"/>
</svg>
