<?xml version="1.0" encoding="utf-8"?>
<!-- Generator: Adobe Illustrator 19.2.1, SVG Export Plug-In . SVG Version: 6.00 Build 0)  -->
<svg version="1.1" id="Isolation_Mode" xmlns="http://www.w3.org/2000/svg" xmlns:xlink="http://www.w3.org/1999/xlink" x="0px"
	 y="0px" viewBox="0 0 134.2 102" style="enable-background:new 0 0 134.2 102;" xml:space="preserve">
<style type="text/css">
	.st0{fill:#DE0029;}
	.st1{fill:#F3C202;}
	.st2{fill:#326DB3;}
	.st3{fill:#00AA9E;}
</style>
<g id="g3" transform="translate(-61.68556,-312.8684)">
	<path id="path7" class="st0" d="M133.8,334.9l-0.1,78.1l-20.9-6.8v-91.8l26.7,7.1c17.1,4.6,27.6,13.5,27.4,29.2
		c-0.2,18.2-8.6,25.5-25,20.8v-35.9C141.9,331.2,133.8,331,133.8,334.9L133.8,334.9z"/>
	<path id="path9" class="st1" d="M103.2,391.1l-9.9,3.3c-6.4,2.2-11.8-3-6-5.1l4.8-1.7l-17.9-5.7c-5.5,1.9-10.7,5.9-10.4,11.5
		c0.3,5.7,13.4,7.1,23.4,8.7c9.4,1.5,17.9,0.7,25.6-2v-5.9L103.2,391.1L103.2,391.1z M133.9,413l18.3-6.4l-18.5-5.9v11.8L133.9,413
		L133.9,413z"/>
	<path id="path11" class="st2" d="M182.5,395.9l0.3-0.1c8-2.8,11.4-6.7,10.5-10.4c-1.4-6.1-11.1-9.4-26.2-10.5
		c-10.8-0.8-21.4,1.6-31.8,5.2l-1.7,0.6l18.6,5.8l10.9-3.7c11.4-2.1,16,1.6,5,5.1l-5.4,1.9L182.5,395.9L182.5,395.9z M112.8,368.9
		l-8.3,2.8l8.3,2.6V368.9L112.8,368.9z"/>
	<path id="path13" class="st3" d="M152.2,406.7l30.4-10.7l-19.7-6.1l-29.1,10v1L152.2,406.7L152.2,406.7z M112.8,387.9l-9.6,3.2
		l9.6,3.1V387.9L112.8,387.9z M133.7,392.9v-12.2l18.6,5.8L133.7,392.9L133.7,392.9z M92.1,387.6l20.7-7.4v-6l-8.3-2.6l-29.9,10.1
		c-0.1,0-0.3,0.1-0.4,0.1L92.1,387.6L92.1,387.6z"/>
</g>
</svg>
