<?xml version="1.0" encoding="utf-8"?>
<!-- Generator: Adobe Illustrator 19.2.1, SVG Export Plug-In . SVG Version: 6.00 Build 0)  -->
<svg version="1.1" id="Isolation_Mode" xmlns="http://www.w3.org/2000/svg" xmlns:xlink="http://www.w3.org/1999/xlink" x="0px"
	 y="0px" viewBox="0 0 1773 300" style="enable-background:new 0 0 1773 300;" xml:space="preserve">
<g transform="translate(677.75822,-316.64792)">
	<path d="M-366.5,330.1h34.1v90.1h-34.1c-17-55.9-101.4-64.2-154.2-64.2c-46.3,0-80.8,12.2-80.8,35.7c0,27.2,65.1,27.9,117.7,35.1
		c67.8,9.2,166.6,7.6,166.6,96.2c0,69.9-92.9,93.6-151,93.8c-104.1,0.2-136.4-29.8-160.2-29.8c-6.6,0-10,6.4-10,19.2h-34V505h34
		c12.8,60.9,106.5,74.2,146,74.2c28,0,100-5.5,100-38.8c0-31.5-46.2-29.9-102.3-37.9c-61.5-8.8-182.9-10.7-182.9-92.5
		c0-63.1,70.7-93.3,150.1-93.3c92.2,0,137.8,29.9,151.4,29.9C-369.8,346.6-366.6,340.7-366.5,330.1L-366.5,330.1z"/>
	<path d="M-47.1,316.6c-124.8,0-207.5,64.3-207.5,150s82.7,150,207.5,150s207.5-64.3,207.5-150S77.7,316.7-47.1,316.6L-47.1,316.6z
		 M-47.1,356.6c71.6,0,119,47.1,119,110c0,62.9-47.4,110-119,110c-71.6,0-119-47.1-119-110C-166.1,403.8-118.7,356.7-47.1,356.6
		L-47.1,356.6z"/>
	<path d="M578.5,600h-54.9L304.5,412.6V552c0,9.3,4.7,14,14,14h40.1v34H194.8v-34h40.1c9.3,0,14-4.7,14-14V381.3c0-9.3-4.7-14-14-14
		h-40.1v-34h137.4l190.7,163v-115c0-9.3-4.7-14-14-14h-40.1v-34h163.8v34h-40c-9.3,0-14,4.7-14,14L578.5,600L578.5,600z"/>
	<path d="M934.2,333.3h161v34h-31.6c-13.4,0-24.6,4.7-33.6,14L922.2,496.3V552c0,9.3,4.7,14,14,14h40v34H782v-34h40
		c9.3,0,14-4.7,14-14v-52.1L725.5,381.3c-9.1-9.3-20.3-14-33.6-14h-31.7v-34h197.9v34h-19.6c-4.8,0-7.9,1.7-9.2,5
		c-1.3,3.3-0.8,6.3,1.6,9l65.3,69.7l65.3-69.7c2.4-2.7,2.9-5.7,1.6-9c-1.3-3.3-4.4-5-9.2-5h-19.6V333.3L934.2,333.3z"/>
</g>
</svg>
