<?xml version="1.0" encoding="utf-8"?>
<!-- Generator: Adobe Illustrator 19.2.1, SVG Export Plug-In . SVG Version: 6.00 Build 0)  -->
<svg version="1.1" id="svg2008" xmlns="http://www.w3.org/2000/svg" xmlns:xlink="http://www.w3.org/1999/xlink" x="0px" y="0px"
	 viewBox="0 0 523 123" style="enable-background:new 0 0 523 123;" xml:space="preserve">
<style type="text/css">
	.st0{fill:#999B9E;}
	.st1{fill:#ED008C;}
</style>
<g>
	<path id="path18" class="st0" d="M19.2,58.2h16.1v16.4H19.2V58.2z"/>
	<path id="path20" class="st1" d="M57.9,25.4h1.9c12.3,0,18.1,6.6,20.5,24.2l3.8-0.2l-0.5-27.9H20.8l-0.6,27.9l3.7,0.2
		c0.6-6.6,1.4-10.2,3.1-13.7c2.9-6.6,9-10.5,16.6-10.5h2.7v60.8c0,6.4-0.4,8.5-1.9,10c-1.3,1.2-3.8,1.7-6.8,1.7h-2.9v4.1h34.9v-4.1
		h-2.9c-2.9,0-5.5-0.5-6.7-1.7c-1.5-1.5-1.9-3.6-1.9-10L57.9,25.4"/>
	<path id="path22" class="st0" d="M68.5,58.2h16.1v16.4H68.5V58.2z"/>
	<path id="path24" class="st0" d="M116.1,58.2h16.1v16.4h-16.1V58.2z"/>
	<path id="path26" class="st0" d="M164.4,58.2h16.1v16.4h-16.1V58.2z"/>
	<path id="path28" class="st0" d="M224.1,101.9l20.4-71v55.7c0,6.1-0.3,8.2-1.7,9.7c-1,1.1-3.4,1.6-6.1,1.6h-1v3.9h28.8v-3.9h-1.5
		c-2.6,0-5.1-0.5-6.1-1.6c-1.4-1.5-1.7-3.6-1.7-9.7V39.1c0-6.1,0.3-8.4,1.7-9.9c1.1-1,3.5-1.6,6.1-1.6h1.5v-3.8H242l-16.8,57.4
		l-16.4-57.4h-22.2v3.8h2.1c6.1,0,7.2,1.3,7.2,9.2V82c0,7.2-0.3,10.2-1.4,12.3c-1.1,2.1-3.6,3.6-6.1,3.6h-1.8v3.9h23.7v-3.9h-1.5
		c-3,0-5.4-1.2-6.8-3.5c-1.4-2.3-1.7-4.4-1.7-12.5V30.9l20.2,71L224.1,101.9"/>
	<path id="path30" class="st0" d="M289,46.3c-14.3,0-23.6,11.2-23.6,28.8c0,16.9,9.3,28.4,23.2,28.4c14,0,23.4-11.5,23.4-28.6
		C312,58,302.7,46.3,289,46.3 M288.6,50.1c4.1,0,7.7,2.6,9.6,7.1c1.8,4.1,2.6,9.7,2.6,17.8c0,16.6-4,24.8-12.2,24.8
		c-8.2,0-12.1-8.2-12.1-25c0-7.9,0.8-13.5,2.7-17.6C281.1,52.9,284.8,50.1,288.6,50.1"/>
	<path id="path32" class="st0" d="M331.2,23l-16.3,0.8v3.6h0.8c4.8,0,5.9,1.6,5.9,9.4v53.4c0,6.9-0.2,8.7-1.1,11.7h3.8
		c2.9-4.8,3.6-5.6,4.7-5.6c0.6,0,1.1,0.2,1.9,1c5.7,4.6,8.1,5.6,13.2,5.6c12.4,0,21.4-12,21.4-29.1c0-16.1-8.3-27-20.7-27
		c-6.4,0-11.1,3.1-13.6,8.7L331.2,23 M343.1,50.9c7.4,0,11.2,7.9,11.2,23.3c0,16.3-3.9,24.7-11.4,24.7c-8.3,0-12.6-8.5-12.6-24.2
		c0-7.9,1-13.3,3.5-17.4C335.9,53.4,339.6,50.9,343.1,50.9"/>
	<path id="path34" class="st0" d="M386.7,47.2l-16.8,1v3.6h1.3c4.8,0,5.9,1.6,5.9,9.2v27.8c0,7.6-1,9.4-5.9,9.4h-1.8v3.8h25.1v-3.8
		h-1.8c-4.8,0-5.9-1.6-5.9-9.4L386.7,47.2 M381.2,23.2c-3.6,0-6.4,2.8-6.4,6.6c0,3.5,2.9,6.4,6.3,6.4c3.6,0,6.3-2.8,6.3-6.4
		S384.7,23.2,381.2,23.2"/>
	<path id="path36" class="st0" d="M415.8,23L399,23.8v3.6h1.3c4.8,0,5.9,1.6,5.9,9.4v51.9c0,7.7-1,9.4-5.9,9.4h-1.8v3.8h25.1v-3.8
		h-1.8c-4.8,0-5.9-1.6-5.9-9.4L415.8,23"/>
	<path id="path38" class="st0" d="M469.3,74.6c-0.6-17.4-8.8-28.3-21.4-28.3c-12.1,0-20.8,11.8-20.8,28.3c0,17.6,8.6,28.9,22,28.9
		c8.6,0,14.6-4.6,19.6-14.8l-3.5-1.8c-4,8.5-8.1,12-14.3,12c-9.1,0-13-7.2-13.1-24.3L469.3,74.6 M437.9,70.5
		c0.1-12.3,4.1-20.1,10.6-20.1c6.4,0,10.2,7.6,10.1,20.1H437.9"/>
	<path id="path40" class="st0" d="M483.8,58.2h16.1v16.4h-16.1V58.2z"/>
	<g>
		<g>
			<path class="st0" d="M506,45c1,0,1.9,0.2,2.8,0.7c0.9,0.5,1.6,1.2,2.2,2.1c0.5,0.9,0.8,1.9,0.8,2.9c0,1-0.3,2-0.8,2.9
				c-0.5,0.9-1.2,1.6-2.1,2.1c-0.9,0.5-1.9,0.8-2.9,0.8s-2-0.3-2.9-0.8c-0.9-0.5-1.6-1.2-2.1-2.1c-0.5-0.9-0.8-1.9-0.8-2.9
				c0-1,0.3-2,0.8-2.9c0.5-0.9,1.2-1.6,2.2-2.1C504.1,45.2,505,45,506,45z M506,46c-0.8,0-1.6,0.2-2.4,0.6c-0.8,0.4-1.4,1-1.8,1.8
				c-0.4,0.8-0.7,1.6-0.7,2.4c0,0.8,0.2,1.6,0.6,2.4c0.4,0.8,1,1.4,1.8,1.8c0.8,0.4,1.6,0.6,2.4,0.6c0.8,0,1.6-0.2,2.4-0.6
				c0.8-0.4,1.4-1,1.8-1.8c0.4-0.8,0.6-1.6,0.6-2.4c0-0.8-0.2-1.6-0.6-2.4c-0.4-0.8-1-1.4-1.8-1.8C507.6,46.2,506.8,46,506,46z
				 M503.4,54v-6.2h2.1c0.7,0,1.3,0.1,1.6,0.2c0.3,0.1,0.6,0.3,0.8,0.6c0.2,0.3,0.3,0.6,0.3,0.9c0,0.5-0.2,0.9-0.5,1.2
				c-0.3,0.3-0.8,0.5-1.3,0.6c0.2,0.1,0.4,0.2,0.5,0.3c0.3,0.2,0.6,0.7,0.9,1.2l0.8,1.2h-1.2l-0.6-1c-0.4-0.8-0.8-1.3-1-1.4
				c-0.2-0.1-0.5-0.2-0.8-0.2h-0.6V54L503.4,54L503.4,54z M504.5,50.5h1.2c0.6,0,1-0.1,1.2-0.3c0.2-0.2,0.3-0.4,0.3-0.7
				c0-0.2-0.1-0.4-0.2-0.5c-0.1-0.1-0.2-0.3-0.4-0.3c-0.2-0.1-0.5-0.1-1-0.1h-1.1L504.5,50.5L504.5,50.5z"/>
		</g>
	</g>
</g>
</svg>
