<?xml version="1.0" encoding="utf-8"?>
<!-- Generator: Adobe Illustrator 19.2.1, SVG Export Plug-In . SVG Version: 6.00 Build 0)  -->
<svg version="1.1" id="Layer_1" xmlns="http://www.w3.org/2000/svg" xmlns:xlink="http://www.w3.org/1999/xlink" x="0px" y="0px"
	 viewBox="0 0 595.3 841.9" style="enable-background:new 0 0 595.3 841.9;" xml:space="preserve">
<style type="text/css">
	.st0{clip-path:url(#SVGID_2_);fill:url(#SVGID_3_);}
	.st1{clip-path:url(#SVGID_5_);fill:url(#SVGID_6_);}
	.st2{clip-path:url(#SVGID_8_);fill:url(#SVGID_9_);}
	.st3{fill:#0574AF;}
</style>
<g>
	<defs>
		<path id="SVGID_1_" d="M156,349c-9.3,0-16.8,7.5-16.8,16.8c0,9.3,7.5,16.8,16.8,16.8h114.4c9.3,0,16.8-7.5,16.8-16.8
			c0-9.3-7.5-16.8-16.8-16.8H156z"/>
	</defs>
	<clipPath id="SVGID_2_">
		<use xlink:href="#SVGID_1_"  style="overflow:visible;"/>
	</clipPath>
	
		<linearGradient id="SVGID_3_" gradientUnits="userSpaceOnUse" x1="-12.8247" y1="824.4904" x2="-9.7868" y2="824.4904" gradientTransform="matrix(48.6924 0 0 -48.6924 763.6392 40512.2148)">
		<stop  offset="0" style="stop-color:#FFF9F3"/>
		<stop  offset="0.85" style="stop-color:#F89921"/>
		<stop  offset="1" style="stop-color:#F89921"/>
	</linearGradient>
	<rect x="139.2" y="349" class="st0" width="147.9" height="33.5"/>
</g>
<g>
	<defs>
		<path id="SVGID_4_" d="M133.5,433c-9.3,0-16.8,7.5-16.8,16.8c0,9.3,7.5,16.8,16.8,16.8h114.4c9.3,0,16.8-7.5,16.8-16.8
			c0-9.3-7.5-16.8-16.8-16.8H133.5z"/>
	</defs>
	<clipPath id="SVGID_5_">
		<use xlink:href="#SVGID_4_"  style="overflow:visible;"/>
	</clipPath>
	
		<linearGradient id="SVGID_6_" gradientUnits="userSpaceOnUse" x1="-13.1367" y1="823.3302" x2="-10.0988" y2="823.3302" gradientTransform="matrix(48.6932 0 0 -48.6932 756.4126 40540.3828)">
		<stop  offset="0" style="stop-color:#FFF9F3"/>
		<stop  offset="0.85" style="stop-color:#F89921"/>
		<stop  offset="1" style="stop-color:#F89921"/>
	</linearGradient>
	<rect x="116.7" y="433" class="st1" width="147.9" height="33.5"/>
</g>
<g>
	<defs>
		<path id="SVGID_7_" d="M99.9,390.9c-9.3,0-16.8,7.5-16.8,16.8c0,9.3,7.5,16.8,16.8,16.8h114.4c9.3,0,16.8-7.5,16.8-16.8
			c0-9.3-7.5-16.8-16.8-16.8H99.9z"/>
	</defs>
	<clipPath id="SVGID_8_">
		<use xlink:href="#SVGID_7_"  style="overflow:visible;"/>
	</clipPath>
	
		<linearGradient id="SVGID_9_" gradientUnits="userSpaceOnUse" x1="-2.4357" y1="810.0916" x2="0.6023" y2="810.0916" gradientTransform="matrix(-48.6924 0 0 48.6924 112.4018 -39037.6289)">
		<stop  offset="0" style="stop-color:#F0F5FA"/>
		<stop  offset="0.85" style="stop-color:#0574AF"/>
		<stop  offset="1" style="stop-color:#0574AF"/>
	</linearGradient>
	<rect x="83.1" y="390.9" class="st2" width="147.9" height="33.5"/>
</g>
<polygon class="st3" points="318.6,350 311.5,376.3 346.9,376.3 322.8,465.6 353.2,465.6 377.1,376.3 412.5,376.3 419.5,350 "/>
<polygon class="st3" points="428.3,350 397.3,465.6 490.2,465.6 497,440.1 434,440.1 439.7,419.1 495.9,419.1 502.2,395.6 
	446,395.6 451.5,375.5 514.3,375.5 521.2,350 "/>
<g>
	<path class="st3" d="M289.5,500.9c0-5.7,4.7-10.3,10.3-10.3c3.9,0,6,1.8,7.2,3.9l-3.8,2.7c-0.9-1.3-1.8-2.3-3.8-2.3
		c-2.6,0-5,2.8-5,6.1c0,2.3,1.5,3.7,3.4,3.7c1.5,0,2.7-0.6,4-1.7l2.6,3.2c-1.8,1.6-3.7,2.7-6.7,2.7
		C292.9,508.8,289.5,505.7,289.5,500.9"/>
	<path class="st3" d="M307.4,500.7c0-5.2,4.5-10.1,10.2-10.1c5.2,0,8.4,3.4,8.4,8.1c0,5.2-4.5,10.2-10.1,10.2
		C310.6,508.8,307.4,505.4,307.4,500.7 M321.1,498.8c0-2.6-1.5-4-3.8-4c-3,0-5,3.3-5,5.8c0,2.6,1.5,4,3.8,4
		C319.1,504.6,321.1,501.3,321.1,498.8"/>
	<path class="st3" d="M331.3,490.9h5l-0.5,1.8c1.3-1.1,2.8-2.2,4.8-2.2c3.1,0,5.2,1.9,5.2,5.1c0,1-0.3,2.2-0.6,3.3l-2.5,9.4h-5
		l2.6-9.6c0.1-0.5,0.2-1.1,0.2-1.6c0-1.4-0.9-2.2-2.4-2.2c-2,0-3.2,1.4-3.8,3.5l-2.7,9.9h-5L331.3,490.9z"/>
	<path class="st3" d="M351.6,490.9h5l-0.5,1.8c1.3-1.1,2.8-2.2,4.8-2.2c3.1,0,5.2,1.9,5.2,5.1c0,1-0.3,2.2-0.6,3.3l-2.5,9.4h-5
		l2.6-9.6c0.1-0.5,0.2-1.1,0.2-1.6c0-1.4-0.9-2.2-2.4-2.2c-2,0-3.2,1.4-3.8,3.5l-2.7,9.9h-5L351.6,490.9z"/>
	<path class="st3" d="M377,504.8c1.3,0,2.5-0.4,3.9-1.4l2.3,3.1c-1.6,1.3-3.8,2.3-6.7,2.3c-5,0-8.1-2.9-8.1-7.8
		c0-5.1,4.1-10.5,10.4-10.5c4.6,0,7.2,2.9,7.2,6.8c0,1.2-0.3,2.7-0.9,4h-12C373.2,503.4,374.4,504.8,377,504.8 M381.1,498.3
		c0.1-0.3,0.2-0.7,0.2-1.1c0-1.4-0.8-2.6-2.9-2.6c-2.3,0-4.1,1.5-4.9,3.7H381.1z"/>
	<path class="st3" d="M388.2,500.9c0-5.7,4.8-10.3,10.4-10.3c3.9,0,6,1.8,7.2,3.9l-3.8,2.7c-0.9-1.3-1.8-2.3-3.8-2.3
		c-2.6,0-5,2.8-5,6.1c0,2.3,1.5,3.7,3.4,3.7c1.5,0,2.7-0.6,4-1.7l2.6,3.2c-1.8,1.6-3.7,2.7-6.7,2.7
		C391.6,508.8,388.2,505.7,388.2,500.9"/>
	<path class="st3" d="M407,505.3c0-0.7,0.1-1.4,0.3-2.2l2.1-8h-2.1l1.1-4.3h2.1l1.2-4.5h5l-1.2,4.5h4.1l-1.1,4.3h-4.1l-2,7.4
		c-0.1,0.3-0.1,0.6-0.1,0.8c0,0.7,0.4,1,1.4,1c0.8,0,1.7-0.2,2.5-0.6l-1.1,4.2c-1,0.5-2.3,0.7-3.6,0.7
		C408.5,508.7,407,507.2,407,505.3"/>
	<path class="st3" d="M423.6,490.9h5l-4.7,17.6h-5L423.6,490.9z M425.2,484.5h5.2l-1.2,4.4H424L425.2,484.5z"/>
	<polygon class="st3" points="431.5,490.9 436.6,490.9 437.3,502.6 444.3,490.9 449.7,490.9 438.1,508.5 433.6,508.5 	"/>
	<path class="st3" d="M452.9,490.9h5l-4.7,17.6h-5L452.9,490.9z M454.5,484.5h5.2l-1.2,4.4h-5.2L454.5,484.5z"/>
	<path class="st3" d="M459.7,505.3c0-0.7,0.1-1.4,0.3-2.2l2.1-8h-2.1l1.2-4.3h2.1l1.2-4.5h5l-1.2,4.5h4.1l-1.1,4.3h-4.1l-2,7.4
		c-0.1,0.3-0.1,0.6-0.1,0.8c0,0.7,0.4,1,1.3,1c0.8,0,1.7-0.2,2.6-0.6l-1.2,4.2c-1,0.5-2.3,0.7-3.6,0.7
		C461.2,508.7,459.7,507.2,459.7,505.3"/>
	<path class="st3" d="M470.2,512.5l2.7-3.6c0.5,0.4,1.3,0.7,1.9,0.7c0.7,0,1.2-0.2,1.9-1.1l-2.1-17.7h5.1l0.8,11.9l6.6-11.9h5.4
		l-10.9,18c-2.3,3.6-4.3,4.9-7.2,4.9C472.5,513.8,471.3,513.3,470.2,512.5"/>
</g>
</svg>
