<?xml version="1.0" encoding="utf-8"?>
<!-- Generator: Adobe Illustrator 19.2.1, SVG Export Plug-In . SVG Version: 6.00 Build 0)  -->
<svg version="1.1" id="svg2" xmlns="http://www.w3.org/2000/svg" xmlns:xlink="http://www.w3.org/1999/xlink" x="0px" y="0px"
	 viewBox="0 0 300 120" style="enable-background:new 0 0 300 120;" xml:space="preserve">
<style type="text/css">
	.st0{opacity:0.7;fill:url(#path3844_1_);enable-background:new    ;}
	.st1{fill:url(#path74_1_);}
	.st2{fill:#FFFFFF;}
	.st3{fill:url(#path3251_1_);}
	.st4{fill:url(#path3840_1_);}
</style>
<radialGradient id="path3844_1_" cx="151.7829" cy="-1086.0635" r="54.3561" gradientTransform="matrix(0.7446 -4.964161e-03 -1.560272e-03 -0.234 -38.4033 -147.8052)" gradientUnits="userSpaceOnUse">
	<stop  offset="0" style="stop-color:#000000;stop-opacity:0.7732"/>
	<stop  offset="1" style="stop-color:#000000;stop-opacity:0"/>
</radialGradient>
<path id="path3844" class="st0" d="M75.9,92.2c22.6,0,40.9,5.7,40.9,12.7c0,7-18.3,12.8-40.9,12.8c-22.4,0-40.7-5.7-40.7-12.8
	C35.2,97.9,53.5,92.2,75.9,92.2z M61.2,99.3h51.6H61.2z"/>
<polygon id="polygon4" points="131.6,37.3 151.8,37.3 151.8,41.3 144.4,41.3 144.4,62 139.2,62 139.2,41.3 131.6,41.3 "/>
<path id="path6" d="M162.3,41.3h6.7c2.4,0,3.8,1,3.8,3.1c0,2.1-1.4,3.3-3.8,3.3h-6.7V41.3z M162.3,52.3h5.7c0,0,3.3,7.4,3.8,9.8h6.7
	l-5-10.2c3.6-1,4.5-5.2,4.5-8.6c0-5-5.7-6.2-10.5-5.9h-10.7V62h5.5V52.3z"/>
<polygon id="polygon8" points="185.6,37.3 203.4,37.3 203.4,41.3 191,41.3 191,47 202.5,47 202.5,51.3 191,51.3 191,57.8 
	203.9,57.8 203.9,62 185.6,62 "/>
<polygon id="polygon10" points="225.3,62 216.3,45.4 216.3,45.6 216.3,62 211,62 211,37.3 217.7,37.3 227,53.2 227,53.2 227,37.3 
	232,37.3 232,62 "/>
<path id="path12" d="M245.1,41.3h2.9c6.2,0,7.1,4.3,7.1,8.1c0,4-1,8.3-7.1,8.3h-2.9V41.3z M239.6,62h8.6c7.9,0,12.6-3.8,12.6-12.6
	c0-8.3-4.8-12.4-12.6-12.1h-8.6V62z"/>
<polygon id="polygon14" points="148.5,82.3 145.6,82.3 145.6,71.3 143,82.3 140.4,82.3 137.7,71.3 137.5,82.3 134.9,82.3 
	134.9,68.5 139.2,68.5 141.6,78 144.2,68.5 148.5,68.5 "/>
<polygon id="polygon16" points="166.5,68.5 169.4,68.5 169.4,82.3 166.5,82.3 "/>
<path id="path18" d="M226.3,73.7c-0.2,0.2-0.5,0.5-0.7,0.7c-0.5,0-0.5,0-1,0.2c-0.2,0-0.7,0-1.4,0c0,0,0,0-0.2,0h-2.1v-3.6h2.4
	c1,0,1.4,0,1.9,0c0.2,0,0.5,0.2,0.7,0.2c0.2,0.2,0.5,0.5,0.5,0.5c0.2,0.5,0.2,0.7,0.2,1C226.5,73,226.5,73.2,226.3,73.7z
	 M226.5,76.8c0,0,0.7-0.2,1-0.2c0.7-0.2,1.2-1,1.4-1.4c0.5-0.5,0.5-1.7,0.5-2.4c0-1,0-1.7-0.5-2.4c-0.5-0.5-1-1-1.9-1.4
	c-0.2,0-0.5,0-1,0c-0.5-0.2-1.2-0.2-2.1-0.2h-5.7v13.8h2.6V77h2.9l2.9,5.5h3.3L226.5,76.8z"/>
<path id="path20" d="M253.6,79.4c-0.7,0.5-1.4,0.7-2.6,0.7c-0.7,0-1.4-0.2-1.9-0.5c-0.5-0.2-1-0.7-1.2-1.2c-0.2-0.5-0.2-1-0.5-1.2
	c0-0.5-0.2-1.2-0.2-1.9c0-1.2,0.5-2.4,0.7-3.1c0.7-1,1.7-1.7,3.1-1.7c1.7,0,2.6,0.7,3.3,1.7c0.2,1,0.7,1.9,0.7,3.1
	C255.1,77,254.6,78.5,253.6,79.4z M256,70.4c-1-1.4-2.9-2.1-5-2.1s-3.8,0.7-4.8,1.9c-1.2,1.2-1.9,3.1-1.9,5.5c0,1.9,0.5,3.3,1.4,4.8
	c1.2,1.2,2.9,2.1,5.5,2.1c2.1,0,3.8-0.7,5-2.1c1.2-1.4,1.7-2.9,1.7-5C257.9,73.2,257.2,71.6,256,70.4z"/>
<path id="path22" d="M197.9,73.2c-0.2-1-0.7-2.4-3.1-2.4c-1.4,0-3.3,1-3.3,4.8c0,2.4,1,4.8,3.3,4.8c1.7,0,2.6-1,3.1-2.6h2.9
	c-0.5,3.1-2.4,5-5.9,5c-3.6,0-6.2-2.4-6.2-7.1s2.6-7.1,6.2-7.1c4,0,5.9,2.9,5.9,4.8H197.9z"/>
<polygon id="polygon24" points="262.9,62.3 261.2,62.3 261.2,67.5 260.3,67.5 260.3,62.3 258.4,62.3 258.4,61.6 262.9,61.6 "/>
<path id="path26" d="M269.6,67.5h-0.7v-5l-1.7,5h-1l-1.7-5v5h-0.7v-5.9h1.2l1.4,4.3c0,0,0,0,0.2,0.5c0,0.2,0,0.2,0,0.5l0.5-1
	l1.4-4.3h1V67.5z"/>
<linearGradient id="path74_1_" gradientUnits="userSpaceOnUse" x1="152.6374" y1="27.1168" x2="152.6374" y2="-94.2628" gradientTransform="matrix(0.7509 0 0 -0.7509 -38.6162 34.7913)">
	<stop  offset="0" style="stop-color:#E80000"/>
	<stop  offset="1" style="stop-color:#FF7B7B"/>
</linearGradient>
<path id="path74" class="st1" d="M75.9,14.4c25.2,0,45.7,20.5,45.7,45.5c0,25.2-20.5,45.7-45.7,45.7c-25,0-45.5-20.5-45.5-45.7
	C30.4,34.9,50.9,14.4,75.9,14.4z M59.5,39.9H117H59.5z"/>
<path id="path332" class="st2" d="M110.4,29.9c1.4,1.4,2.9,2.9,3.8,4.8c3.8,7.4,1.2,18.8-7.6,30.5c-13.8,19-38.8,31.9-55.7,29
	c-3.8-0.7-7.1-1.9-9.3-4c-1.2-1.2-2.4-2.6-3.1-4c-3.6-6.4-2.4-15.9,3.8-26.2l-5,0.2l1.4-3.3c3.6-1,15.7-5.9,19.3-10.9h4l-4.5,10.9
	h7.6l-1.7,3.1h-7.4l-5.5,12.4c-1.9,6.7,1,14.8,12.6,12.6C75.6,82.5,89.9,73.4,99,61.3c11.2-15.2,9.3-29.7-4.3-32.1
	c-6.9-1-15.5,1-24.3,5.2c10.2-6.7,21.4-10.2,30.9-8.6C105.1,26.6,108.2,27.8,110.4,29.9z"/>
<linearGradient id="path3251_1_" gradientUnits="userSpaceOnUse" x1="156.0804" y1="38.272" x2="150.8263" y2="-40.7924" gradientTransform="matrix(0.7509 0 0 -0.7509 -38.6162 34.7913)">
	<stop  offset="0" style="stop-color:#FFFFFF"/>
	<stop  offset="1" style="stop-color:#FFFFFF;stop-opacity:0"/>
</linearGradient>
<path id="path3251" class="st3" d="M75.9,16.4c19.3,0,35,12.9,35,28.6c0,15.9-15.7,28.7-35,28.7c-19.2,0-34.9-12.9-34.9-28.7
	C41.1,29.2,56.7,16.4,75.9,16.4z M63.3,32.4h44.2H63.3z"/>
<linearGradient id="path3840_1_" gradientUnits="userSpaceOnUse" x1="153.2963" y1="1089.1522" x2="152.5611" y2="854.3867" gradientTransform="matrix(0.7509 0 0 0.7509 -38.6162 -584.6758)">
	<stop  offset="0" style="stop-color:#FFFFFF"/>
	<stop  offset="1" style="stop-color:#FFFFFF;stop-opacity:0"/>
</linearGradient>
<path id="path3840" class="st4" d="M75.9,103.8c19.3,0,35-12.9,35-28.6c0-15.9-15.7-28.7-35-28.7c-19.2,0-34.9,12.9-34.9,28.7
	C41.1,90.9,56.7,103.8,75.9,103.8z M63.3,87.7h44.2H63.3z"/>
</svg>
