<?xml version="1.0" encoding="utf-8"?>
<!-- Generator: Adobe Illustrator 19.2.1, SVG Export Plug-In . SVG Version: 6.00 Build 0)  -->
<svg version="1.1" id="svg2" xmlns="http://www.w3.org/2000/svg" xmlns:xlink="http://www.w3.org/1999/xlink" x="0px" y="0px"
	 viewBox="0 0 448 221" style="enable-background:new 0 0 448 221;" xml:space="preserve">
<style type="text/css">
	.st0{fill:#382D9A;}
	.st1{fill:url(#path71_1_);}
</style>
<g id="g6">
	<g id="g8">
		<path id="path10" class="st0" d="M440.2,176.9h0.9c0.9,0,1.3-0.2,1.3-0.9c0-0.4-0.4-1.1-1.3-1.1c-0.4,0-0.4,0-0.9,0V176.9
			 M440.2,180.2h-0.9v-5.7c0.4-0.2,0.9-0.2,1.8-0.2c0.9,0,1.3,0.2,1.8,0.4c0.4,0.2,0.4,0.7,0.4,1.1c0,0.9-0.4,1.3-0.9,1.5
			c0.4,0.2,0.9,0.7,0.9,1.5c0,0.9,0,1.1,0.4,1.3h-1.3c0-0.2,0-0.7,0-1.5c-0.4-0.7-0.9-0.9-1.3-0.9h-0.9L440.2,180.2L440.2,180.2z
			 M441.6,172.8c-2.7,0-4.5,2-4.5,4.4c0,2.6,1.8,4.4,4.5,4.4c2.2,0.2,4-1.8,4-4.4C445.6,174.7,443.8,172.8,441.6,172.8z
			 M441.6,172.1c2.7,0,4.9,2.2,4.9,5c0,3.1-2.2,5.3-4.9,5.3c-3.1,0-5.4-2.2-5.4-5.3C436.2,174.3,438.4,172.1,441.6,172.1z"/>
		<path id="path12" class="st0" d="M0,166.9h14.7v1.8c-4,0.4-4.5,1.1-4.5,4.2v26.3c0,5.7,3.1,8.5,7.6,8.5c5.4,0,8.5-3.3,8.5-8.8
			v-25.4c0-3.1-0.9-4.4-4.5-4.8v-1.8h11.6v1.8c-4,0.4-4.9,1.8-4.9,4.8v24.1c0,7.7-3.1,12-11.6,12S4.5,205,4.5,197.3v-24.5
			c0-3.1-0.4-3.7-4.5-4.2L0,166.9"/>
		<path id="path14" class="st0" d="M32.6,208.7v-2c2.7-0.2,4-1.3,4-3.1v-19.1c0-2.6-0.9-3.1-4-3.1v-2l8.5-0.4l0.4,5.9
			c1.3-3.5,4-6.4,8-6.4c4.9,0,7.6,3.3,7.6,8.8v16.2c0,2,0.9,2.8,3.6,3.1v2h-8.9V187c0-4.2-1.3-5.5-3.6-5.5c-3.1,0-6.7,4.4-6.7,10.3
			v11.8c0,1.8,0.9,2.8,4,3.1v2H32.6"/>
		<path id="path16" class="st0" d="M71,170.1c0,2.2-0.9,3.9-2.7,3.9c-2.2,0-3.1-1.8-3.1-3.9c0-2.4,0.9-3.9,3.1-3.9
			C70.1,166.2,71,167.7,71,170.1 M62.1,208.7v-2c3.1-0.2,4-1.3,4-3.1v-19.5c0-2.6-0.9-3.1-4-3.1v-2l8.9-0.4v25c0,1.8,1.3,2.8,4,3.1
			v2H62.1z"/>
		<path id="path18" class="st0" d="M84.4,168.4v11.2H92v2.2h-7.6v21.5c0,2.6,0.9,3.7,2.7,3.7c2.2,0,3.6-1.1,3.6-7.7v-1.8h1.8v2.8
			c0,6.4-2.2,9-6.7,9c-4,0-6.3-2.6-6.3-7.4v-20.2h-4V180c4.5-1.8,6.7-3.9,7.1-11.6L84.4,168.4"/>
		<path id="path20" class="st0" d="M117.4,193.8c0-8.8-4.5-15.1-11.2-15.1c-6.7,0-11.6,6.4-11.6,15.3c0,7.7,4.9,15.3,12.5,15.3
			c7.1,0,9.8-5.3,10.3-10.7l-1.8-0.4c-0.4,4.2-2.7,8.8-7.6,8.8c-4.5,0-7.6-4.6-7.6-13.1H117.4 M100.5,191.6c0-7.9,2.7-11,5.8-11
			c3.6,0,5.4,3.1,5.4,11H100.5z"/>
		<path id="path22" class="st0" d="M133.9,168.6c3.1,0.2,4,0.7,4,3.3v11c-1.3-2.4-3.6-4.2-6.3-4.2c-6.2,0-11.2,6.6-11.2,15.6
			c0,9.4,4.9,15.1,10.3,15.1c4,0,5.8-2.2,7.1-5v4.4l8.9-0.4v-2c-2.7,0-3.6-0.9-3.6-4.2v-35.7l-9.4,0.4L133.9,168.6 M126.3,194.2
			c0-9.4,2.2-13.1,5.8-13.1s5.8,4.4,5.8,13.1c0,10.5-3.1,13.1-6.7,13.1C128.6,207.4,126.3,203.7,126.3,194.2z"/>
		<path id="path24" class="st0" d="M149.6,208.7v-2c3.6-0.2,4-1.1,4-4.2v-29.8c0-3.1-0.4-3.7-4-4.2v-1.8h14.7v1.8
			c-4,0.4-4.5,1.1-4.5,4.2v12.7h12.9v-12.7c0-3.1-0.9-3.7-4.5-4.2v-1.8h14.7v1.8c-3.6,0.4-4.5,1.1-4.5,4.2v29.8
			c0,3.1,0.9,3.9,4.5,4.2v2h-14.7v-2c3.6-0.2,4.5-1.1,4.5-4.2v-14.9h-12.9v14.9c0,3.1,0.4,3.9,4.5,4.2v2L149.6,208.7"/>
		<path id="path26" class="st0" d="M206.3,193.8c0-8.8-4.5-15.1-11.2-15.1c-7.1,0-11.6,6.4-11.6,15.3c0,7.7,4.9,15.3,12.5,15.3
			c6.7,0,9.8-5.3,10.3-10.7l-1.8-0.4c-0.9,4.2-2.7,8.8-8,8.8c-4,0-7.1-4.6-7.1-13.1H206.3 M189.3,191.6c0-7.9,2.2-11,5.8-11
			c3.1,0,4.9,3.1,4.9,11H189.3z"/>
		<path id="path28" class="st0" d="M231.7,200.2c0,4.4-0.4,5.7-1.8,5.7c-0.9,0-0.9-0.7-0.9-2.4v-17.1c0-4.6-2.7-7.7-9.8-7.7
			c-4.9,0-8.9,3.3-8.9,7.4c0,2.4,1.3,3.7,2.7,3.7c1.8,0,3.1-1.3,3.1-3.5c0-1.8-0.4-3.3-2.7-3.5c1.3-1.5,3.1-2.2,5.4-2.2
			c3.1,0,4.9,1.5,4.9,5v5c-5.4,2-14.7,4.8-14.7,11.8c0,3.9,2.7,6.8,7.1,6.8c4.5,0,6.2-2,7.6-4.8c0.4,3.3,2.2,4.8,4.9,4.8
			c4,0,5.4-2.6,5.4-9.2H231.7 M223.7,196.4c0,7-2.7,10.5-5.8,10.5c-2.2,0-3.6-1.5-3.6-4.8c0-5,4.5-7.4,9.4-9.2V196.4z"/>
		<path id="path30" class="st0" d="M234.4,208.7v-2c2.7-0.2,4-1.3,4-3.1v-31.8c0-2-1.3-3.1-4-3.3v-1.8l8.9-0.4v37.2
			c0,1.8,1.3,2.8,4,3.1v2L234.4,208.7"/>
		<path id="path32" class="st0" d="M257.2,168.4v11.2h7.1v2.2h-7.1v21.5c0,2.6,0.9,3.7,2.7,3.7c1.8,0,3.6-1.1,3.6-7.7v-1.8h1.8v2.8
			c0,6.4-2.2,9-6.7,9c-4,0-6.7-2.6-6.7-7.4v-20.2h-3.6V180c4.5-1.8,6.7-3.9,7.1-11.6L257.2,168.4"/>
		<path id="path34" class="st0" d="M267,208.7v-2c2.7-0.2,3.6-1.3,3.6-3.1v-31.8c0-2.6-0.4-3.1-4-3.3v-1.8l9.4-0.4v17.7
			c1.3-2.6,3.6-5.5,8-5.5c4.5,0,7.6,3.3,7.6,8.8v16.2c0,1.8,0.9,2.8,3.6,3.1v2h-8.9v-21.5c0-4.2-1.8-5.7-3.6-5.7
			c-3.1,0-6.7,4.2-6.7,9.9v12.3c0,1.8,0.9,2.8,4,3.1v2L267,208.7"/>
		<path id="path36" class="st0" d="M333.1,166.9v16h-1.8c-1.8-10.1-4.5-14.7-10.3-14.7c-4.5,0-8.9,3.9-8.9,19.5
			c0,14.9,4,19.5,8.9,19.5c4.5,0,6.7-2.6,6.7-9.9c0-6.4-0.9-7.2-5.8-7.4v-2H338v2c-3.6,0.2-4.5,0.9-4.5,4.2v14.7h-1.8
			c-0.9-1.5-1.3-2.4-2.2-2.4c-0.4,0-0.9,0.9-3.1,2c-1.3,0.9-3.6,1.3-5.4,1.3c-8,0-16.1-7.7-16.1-21.9c0-12.3,7.6-21.9,16.1-21.9
			c2.2,0,4.5,0.7,6.2,1.8c1.3,0.9,1.8,1.3,2.2,1.3c0.9,0,0.9-0.7,1.8-2L333.1,166.9"/>
		<path id="path38" class="st0" d="M339.3,208.7v-2c2.7-0.2,3.6-1.3,3.6-3.1V187c0-4.2-0.4-5.5-3.6-5.5v-2l8.5-0.4v7
			c0.9-3.1,3.1-7.4,6.7-7.4c2.2,0,4.5,2,4.5,5.5c0,2.4-1.3,3.9-3.1,3.9c-1.3,0-2.7-0.9-2.7-3.7c0-1.5,0.9-2.8,2.7-2.8
			c-0.4-0.7-0.9-0.9-1.8-0.9c-4,0-5.8,9-5.8,14.2v8.8c0,1.8,0.9,2.8,4.9,3.1v2L339.3,208.7"/>
		<path id="path40" class="st0" d="M359.9,194c0,9.2,5.8,15.3,11.6,15.3c5.8,0,11.6-6.1,11.6-15.3c0-9.2-5.8-15.3-11.6-15.3
			C365.7,178.7,359.9,184.8,359.9,194 M365.7,194c0-10.5,2.2-13.4,5.8-13.4c3.6,0,5.8,2.8,5.8,13.4s-2.2,13.4-5.8,13.4
			C367.9,207.4,365.7,204.5,365.7,194z"/>
		<path id="path42" class="st0" d="M411.6,208.3l-8.5,0.4v-5.5c-1.3,3.5-3.6,6.1-8,6.1c-4.9,0-7.6-2.6-7.6-8.8v-16
			c0-2.6-0.9-3.1-3.6-3.1v-2l8.9-0.4v22.6c0,3.7,1.3,4.8,3.6,4.8c3.1,0,6.3-4.8,6.3-9.9v-12c0-2.6-0.9-3.1-4-3.1v-2l8.9-0.4v24.1
			c0,2.4,1.3,3.1,4,3.1L411.6,208.3"/>
		<path id="path44" class="st0" d="M425.5,219.6v-2c-3.6,0-4.5-1.1-4.5-3.1v-9.2c1.3,2.2,3.1,3.9,6.3,3.9c6.7,0,11.2-6.8,11.2-15.3
			c0-6.1-3.6-15.3-10.3-15.3c-4,0-6.7,2.8-7.6,5.7v-5.7l-8.9,0.4v2c3.1,0,4,0.4,4,3.1v30.4c0,2-0.9,3.1-4,3.1v2H425.5 M421,195.1
			c0-10.3,3.1-14,6.3-14c3.1,0,4.9,3.7,4.9,13.1c0,9.2-1.8,13.1-5.4,13.1C424.6,207.4,421,204.5,421,195.1z"/>
		<path id="path46" class="st0" d="M250,134.7c0,0.4,0.4,0.9,0.4,1.3c0.4,0.4,1.3,0.9,2.2,0.9c0.4,0,0.9-0.2,0.9-0.2
			c0.9-0.2,1.3-0.9,1.3-1.5c0-0.4-0.4-0.7-0.4-0.9c-0.4-0.2-0.9-0.4-1.3-0.7l-1.3-0.2c-0.9-0.2-1.3-0.4-1.8-0.7
			c-0.4-0.2-0.9-0.9-0.9-1.8c0-0.7,0.4-1.3,0.9-2c0.4-0.4,1.3-0.7,2.2-0.7c1.3,0,1.8,0.2,2.7,0.7c0.4,0.4,0.9,1.1,0.9,2.2h-1.3
			c0-0.4,0-0.9-0.4-1.1c0-0.4-0.9-0.7-1.8-0.7c-0.4,0-0.9,0-1.3,0.4c-0.4,0.2-0.4,0.7-0.4,1.1s0,0.7,0.4,0.9s0.9,0.2,1.8,0.4
			l1.3,0.4c0.4,0,0.9,0.2,1.3,0.4c0.4,0.4,0.9,1.1,0.9,2s-0.4,1.5-1.3,2c-0.4,0.4-1.3,0.7-2.2,0.7c-1.3,0-2.2-0.2-2.7-0.9
			c-0.9-0.4-0.9-1.3-0.9-2.2L250,134.7"/>
		<path id="path48" class="st0" d="M257.6,128.5h1.8l2.7,7.7l2.7-7.7h1.8v9h-1.3v-5.3c0-0.2,0-0.4,0-0.9c0-0.4,0-0.9,0-1.5l-2.7,7.7
			h-0.9l-2.7-7.7v0.4c0,0.2,0,0.4,0,0.9s0,0.9,0,1.1v5.3h-1.3L257.6,128.5"/>
	</g>
	<path id="path50" class="st0" d="M212.1,104.7c-3.9,14.7-11.6,16.3-14.7,16.3c-5.4,0-10.9-3.9-10.9-28.7c0-24.8,0-58.2,0-58.2
		l27.9-14.7V76C214.4,84.6,213.7,98.5,212.1,104.7L212.1,104.7z"/>
	
		<linearGradient id="path71_1_" gradientUnits="userSpaceOnUse" x1="222.977" y1="83.7407" x2="222.977" y2="222" gradientTransform="matrix(1 0 0 -1 0 222)">
		<stop  offset="6.740000e-02" style="stop-color:#382D9A"/>
		<stop  offset="0.1467" style="stop-color:#624D81"/>
		<stop  offset="0.237" style="stop-color:#8A6C69"/>
		<stop  offset="0.3331" style="stop-color:#AD8655"/>
		<stop  offset="0.4346" style="stop-color:#C99C44"/>
		<stop  offset="0.5433" style="stop-color:#DFAC37"/>
		<stop  offset="0.6625" style="stop-color:#EEB82E"/>
		<stop  offset="0.8004" style="stop-color:#F7BF29"/>
		<stop  offset="1" style="stop-color:#FAC127"/>
	</linearGradient>
	<path id="path71" class="st1" d="M214.4,19.4l6.2,0.8v52c0,14-0.8,25.6-2.3,33.4c-3.1,10.9-9.3,15.5-13.2,17.1l-7.8-1.6l0,0
		c-0.8,0-1.5,0-1.5,0c0.8,3.1,3.1,5.4,6.2,6.2c0.8,2.3,3.1,4.7,6.2,5.4c2.3,3.9,5.4,5.4,10.1,5.4c5.4,0.8,9.3-1.6,14-4.7
		c13.2-9.3,17.8-30.3,17.8-58.2V0L214.4,19.4L214.4,19.4z M204.4,127.2c10.9-1.6,17.1-14,18.6-19.4c2.3-8.5,3.1-18.6,3.1-30.3V13.2
		l6.2,0.8v60.5c0,14.7-0.8,27.9-3.9,37.2c-3.9,8.5-9.3,14.7-16.3,16.3L204.4,127.2L204.4,127.2z M244.7,74.5c0,20.2-2.3,34.1-7,43.4
		c-4.7,9.3-11.6,14.7-18.6,16.3l-8.5-1.5c11.6,0,18.6-10.9,21.7-17.1c3.9-8.5,5.4-20.9,5.4-38.8V6.2l7,1.6V74.5L244.7,74.5z"/>
</g>
</svg>
