<?xml version="1.0" encoding="utf-8"?>
<!-- Generator: Adobe Illustrator 19.2.1, SVG Export Plug-In . SVG Version: 6.00 Build 0)  -->
<svg version="1.1" id="svg2" xmlns="http://www.w3.org/2000/svg" xmlns:xlink="http://www.w3.org/1999/xlink" x="0px" y="0px"
	 viewBox="0 0 400 267.2" style="enable-background:new 0 0 400 267.2;" xml:space="preserve">
<style type="text/css">
	.st0{fill:#2058AF;}
	.st1{fill:#15356F;}
</style>
<path id="Z" class="st0" d="M202.7,0c-39.9,0-72.2,32.3-72.2,72.2c0,16.5,5.5,31.6,14.8,43.8l60.1-78.9l-6.5,0h-6.4
	c-6.9,0-13.3,0.5-17.9,1.4c-2.8,0.6-5.3,1.6-7.4,3c-2.4,1.7-5.4,5.2-7.4,8.7c-0.2,0.4-0.6,1-1,1.9l-3.5-0.8l5.9-22.7h75.2
	l-59.8,79.9c3.9-0.3,5.4-0.4,8.6-0.4c2.4,0,6.1,0.1,11,0.4l10.6,0.6c3.8,0.2,7.1,0.3,9.5,0.3c5.5,0,9.1-0.4,12.6-1.5
	c2.7-0.9,5.3-2.1,7.7-3.7c4.2-2.9,8.3-7.6,10.7-12.2c0.3-0.5,0.6-1.2,1.1-2.1l3.2,0.8c-1,4-1.6,5.5-3.2,9c-3.2,7.2-6.8,12-11.8,15.7
	c-5.1,3.8-10.8,5.6-17.5,5.8h-1c-5,0-8.8-0.4-20.7-2.2c-12.1-1.9-18.3-2.5-24.3-2.5c-4.1,0-7.9,0.3-11.8,0.9
	c-5.2,0.8-7.2,1.5-11.9,3.6c13.2,14.4,32.2,23.4,53.2,23.4c39.9,0,72.2-32.3,72.2-72.2S242.6,0,202.7,0"/>
<path id="Zurich" class="st1" d="M66.5,194.6H11.2l-6.8,15c2.3-1.2,3.2-1.6,5.2-2.4c3.1-1.2,6.6-2.2,9.9-2.8
	c2.9-0.5,5.6-0.7,9.9-0.9c1.9-0.1,3.8-0.1,5.5-0.1H43L0,264.9h60.8l7-16c-2.4,1.4-3.3,1.9-5.2,2.7c-3.5,1.6-7.4,2.8-11.4,3.5
	c-3.1,0.5-6.7,0.9-11.1,1c-1.5,0.1-3.3,0.1-5.6,0.1H23.8L66.5,194.6 M249.3,264.9c-1.1-1-1.5-1.4-2.2-2.5c-0.4-0.7-0.8-1.4-1.1-2.1
	c-0.6-1.6-1-4-1-6.2v-42.4l0-4.1c0-4.7,0.2-6,0.8-7.9c0.2-0.8,0.6-1.5,1-2.2c0.7-1.2,1.2-1.7,2.7-2.9h-22.6c1.5,1.3,1.9,1.8,2.6,2.8
	c0.5,0.7,0.8,1.5,1.1,2.3c0.5,1.7,0.7,3.4,0.7,7.6c0,2.1,0,3.6,0,4.2v42.1c0,2.5-0.4,5.1-1.1,6.8c-0.3,0.7-0.7,1.4-1.1,2.1
	c-0.5,0.8-0.9,1.2-2.1,2.5H249.3 M319.9,195.2c-1.7-0.6-2.4-0.7-4.3-1.1c-4-0.9-7.9-1.3-12.4-1.3c-7.6,0-14.1,1.2-20,3.7
	c-3.5,1.5-6.8,3.4-9.7,5.7c-8.7,7-13.4,17.1-13.4,28.7c0,11.3,4.5,21.1,12.8,27.6c6.9,5.4,15.7,8.1,26.3,8.1c6.6,0,12.8-1,19.7-3.2
	c0.3-0.1,0.6-0.2,1.1-0.4v-12.8c-1.7,1.1-2.3,1.5-3.3,2.1c-1.4,0.8-2.8,1.5-4.3,2.2c-4.2,1.8-8.1,2.6-12.3,2.6
	c-7.3,0-13.5-2.6-18.1-7.6c-4.5-4.9-7-11.8-7-19.5c0-7.4,2.3-14.2,6.4-19c1.7-2.1,3.9-3.8,6.4-5.2c4-2.2,8.6-3.4,13.6-3.4
	c4.3,0,8.5,0.8,12.6,2.5c2.6,1.1,3.5,1.6,5.8,3.2V195.2 M381.5,233v17.2c0,3.8-0.1,5.2-0.3,7.1c-0.1,1.1-0.4,2.1-0.8,3
	c-0.5,1.3-1.3,2.5-2.5,3.7c-0.2,0.2-0.5,0.5-1,0.9h22.5c-0.9-0.9-1.3-1.3-1.9-2.2c-0.5-0.8-1-1.6-1.3-2.3c-0.7-1.6-0.9-2.9-0.9-6.4
	c0-2.1-0.1-3.3-0.1-3.6l0.1-38.7v-4.2c0-3.1,0.3-5.5,0.8-7.4c0.2-0.9,0.6-1.8,1.1-2.6c0.7-1.2,1.3-1.8,2.8-2.9h-23
	c1.3,1.1,1.8,1.6,2.6,2.9c0.5,0.8,0.9,1.6,1.2,2.4c0.5,1.6,0.8,3.7,0.8,7.4v17.1H350v-12.8c0-3.9,0.1-6.4,0.2-8.3
	c0.1-1.2,0.3-2.2,0.5-3.1c0.5-1.5,1.8-3.6,2.9-4.8c0.2-0.2,0.4-0.4,0.8-0.8H332c1.3,1.4,1.7,1.8,2.3,2.7c0.5,0.7,0.9,1.5,1.2,2.4
	c0.6,1.8,0.7,2.7,0.8,7.4l0.1,4.4V250c0,3.9-0.1,5.6-0.3,7.4c-0.1,0.9-0.3,1.8-0.7,2.8c-0.6,1.5-1.4,2.7-2.7,4
	c-0.2,0.2-0.4,0.4-0.8,0.7h22.3c-1-1-1.3-1.4-1.9-2.3c-0.4-0.7-0.8-1.4-1.1-2.2c-0.7-1.8-1-3.2-1-6.2c-0.1-1.5-0.1-2.9-0.1-4.2v-17
	L381.5,233 M76.1,194.6c1.4,1.1,1.9,1.7,2.6,2.8c0.4,0.8,0.8,1.6,1,2.4c0.3,1.1,0.4,2.1,0.4,3.2c0,0.8,0,2.2,0.1,4.4l0,4.1v20.1
	c0,7.1,0.1,9.5,0.3,12.4c0.4,5,2,9.2,4.9,12.9c3,3.7,7,6.5,11.9,8.2c3.8,1.3,8,2,12.8,2c5.3,0,10.4-0.8,14.2-2.2
	c4-1.5,7.8-4.1,10.5-7c3.2-3.6,5.1-8,5.7-13.6c0.4-3.3,0.5-6.3,0.5-12.6v-20.2l0-4l0-0.6c0-3.6,0.3-5.8,0.6-7c0.7-2.5,2-3.9,3.2-4.8
	c0.4-0.3,0.6-0.4,0.8-0.6h-20.8c0.9,1.3,1.1,1.8,1.5,3.1c0.3,0.8,0.5,1.7,0.6,2.7c0.3,2.5,0.4,5.7,0.4,11.7v21.8
	c0,6.1-0.1,9.1-0.6,11.9c-0.3,1.9-0.9,3.6-1.8,5.1c-1.8,2.9-4.9,5.1-8.7,6c-1.5,0.4-3.2,0.6-5,0.6c-3.6,0-6.8-0.8-9.5-2.3
	c-1.8-1-3.2-2.2-4.2-3.6c-1.9-2.8-2.5-5.7-2.6-12.9l-0.1-8.8v-17.8c0-6,0.1-9.3,0.4-11.7c0.2-1.8,0.8-3.5,1.7-5.1
	c0.1-0.1,0.2-0.4,0.4-0.6L76.1,194.6 M175.1,250.4c0,1.3,0,2.5,0,3.5c0.1,3.2,0.3,4.9,0.9,6.5c0.3,0.8,0.7,1.5,1.2,2.1
	c0.6,0.9,0.9,1.2,1.9,2.3h-22.4c1.3-1.2,1.7-1.6,2.3-2.5c0.5-0.7,0.9-1.4,1.2-2.2c0.6-1.5,0.8-3.5,0.8-6.8v-46.1
	c0-3.7-0.2-5.9-0.7-7.5c-0.3-0.9-0.7-1.7-1.2-2.5c-0.7-1-1.1-1.5-2.4-2.7h18.2c2.2,0,4.4,0,6.5,0.1c5.6,0.1,8.9,0.5,12,1.2
	c4.5,1.1,8.5,3.3,11.4,6.3c3.1,3.3,4.8,7.2,4.8,11.5c0,1.8-0.3,3.6-0.9,5.4c-1,3.2-2.8,5.7-5.5,8c-2.4,2.1-5.1,3.6-8.7,5
	c-1.2,0.5-1.8,0.7-3.1,1.1l10.9,12.8c1.3,1.6,3,3.5,5.1,5.7c3.3,3.6,5.5,5.8,8,8.2c1.1,1,2.1,1.9,3,2.8c0.9,0.8,1.4,1.2,2.6,2.1
	h-8.8c-1.3,0-2.5,0-3.6-0.1c-3.1-0.1-5-0.5-7-1.6c-2.4-1.3-4.8-3.2-7.3-5.8c-0.8-0.8-1.9-2.1-3.4-3.8c-1.3-1.5-2.3-2.7-2.9-3.4
	l-13-15.6V250.4L175.1,250.4z M176.3,228.7c1,0,2.2-0.1,3.7-0.3c3.8-0.5,6.3-1.4,8.8-2.9c1.3-0.8,2.4-1.7,3.3-2.6
	c1.8-2,2.7-4.7,2.7-7.9c0-3.7-1.2-6.6-3.6-8.6c-1.4-1.2-3-2-4.8-2.5c-2.7-0.8-6-1.2-9.5-1.2c-0.6,0-1,0-1.8,0v26
	C175.7,228.7,175.9,228.7,176.3,228.7"/>
</svg>
